<?xml version="1.0" encoding="UTF-8" standalone="no" ?>
<!DOCTYPE svg PUBLIC "-//W3C//DTD SVG 1.1//EN" "http://www.w3.org/Graphics/SVG/1.1/DTD/svg11.dtd">
<svg xmlns="http://www.w3.org/2000/svg" xmlns:xlink="http://www.w3.org/1999/xlink" version="1.1" width="500" height="500" viewBox="0 0 500 500" xml:space="preserve">
<desc>Created with Fabric.js 4.6.0</desc>
<defs>
</defs>
<g transform="matrix(1 0 0 1 -47.32 341.96)" id="Vrsb1J2TBxJcYQZFR7Pc0"  >
<path style="stroke: rgb(0,0,0); stroke-width: 1; stroke-dasharray: none; stroke-linecap: round; stroke-dashoffset: 0; stroke-linejoin: round; stroke-miterlimit: 10; fill: none; fill-rule: nonzero; opacity: 1;" vector-effect="non-scaling-stroke"  transform=" translate(47.32, -341.96)" d="M -47.32242857142855 341.9642857142857 L -47.32042857142856 341.9642857142857" stroke-linecap="round" />
</g>
<g transform="matrix(1 0 0 1 -89.29 97.32)" id="Vb1__8aXjPMBDDhne10iO"  >
<path style="stroke: rgb(0,0,0); stroke-width: 1; stroke-dasharray: none; stroke-linecap: round; stroke-dashoffset: 0; stroke-linejoin: round; stroke-miterlimit: 10; fill: none; fill-rule: nonzero; opacity: 1;" vector-effect="non-scaling-stroke"  transform=" translate(89.29, -97.32)" d="M -89.28671428571425 97.32142857142858 L -89.28471428571424 97.32142857142858" stroke-linecap="round" />
</g>
<g transform="matrix(1 0 0 1 178.13 500.74)" id="Ds72vCIBsEYKWUOL7_mGt"  >
<path style="stroke: rgb(0,0,0); stroke-width: 1; stroke-dasharray: none; stroke-linecap: round; stroke-dashoffset: 0; stroke-linejoin: round; stroke-miterlimit: 10; fill: none; fill-rule: nonzero; opacity: 1;" vector-effect="non-scaling-stroke"  transform=" translate(-178.13, -500.74)" d="M 173.21328571428575 495.5347142857144 Q 173.21428571428575 495.5357142857144 175.00000000000003 499.10714285714295 Q 176.7857142857143 502.6785714285715 177.2321428571429 503.5714285714286 Q 177.67857142857147 504.4642857142857 178.5714285714286 505.3571428571429 Q 179.46428571428575 506.25000000000006 181.25000000000003 504.4642857142858 L 183.0367142857143 502.6775714285715" stroke-linecap="round" />
</g>
<g transform="matrix(1 0 0 1 212.05 505.8)" id="NYhQ-B90u_ly6OGZrve3g"  >
<path style="stroke: rgb(0,0,0); stroke-width: 1; stroke-dasharray: none; stroke-linecap: round; stroke-dashoffset: 0; stroke-linejoin: round; stroke-miterlimit: 10; fill: none; fill-rule: nonzero; opacity: 1;" vector-effect="non-scaling-stroke"  transform=" translate(-212.05, -505.8)" d="M 205.35614285714286 501.7847142857144 Q 205.35714285714286 501.7857142857144 207.14285714285717 503.12500000000006 Q 208.92857142857147 504.4642857142857 210.26785714285717 505.80357142857144 Q 211.60714285714286 507.14285714285717 212.50000000000003 508.4821428571429 Q 213.3928571428572 509.8214285714286 214.28571428571433 509.8214285714286 Q 215.17857142857147 509.8214285714286 216.96428571428575 509.37500000000006 L 218.75100000000003 508.9275714285715" stroke-linecap="round" />
</g>
<g transform="matrix(1 0 0 1 228.57 193.75)" id="8-KCHPnf0XTfwu1wzTbw9"  >
<path style="stroke: rgb(0,0,0); stroke-width: 1; stroke-dasharray: none; stroke-linecap: round; stroke-dashoffset: 0; stroke-linejoin: round; stroke-miterlimit: 10; fill: none; fill-rule: nonzero; opacity: 1;" vector-effect="non-scaling-stroke"  transform=" translate(-228.57, -193.75)" d="M 217.85814285714287 136.60614285714283 Q 217.85714285714286 136.60714285714283 217.4107142857143 136.60714285714283 Q 216.96428571428575 136.60714285714283 215.17857142857147 137.05357142857142 Q 213.3928571428572 137.5 211.6071428571429 137.94642857142856 Q 209.82142857142858 138.3928571428571 207.14285714285717 138.8392857142857 Q 204.46428571428575 139.28571428571428 203.12500000000003 139.28571428571428 Q 201.7857142857143 139.28571428571428 200.00000000000003 140.17857142857142 Q 198.21428571428575 141.07142857142856 196.42857142857144 141.07142857142856 Q 194.64285714285714 141.07142857142856 192.85714285714286 141.9642857142857 Q 191.07142857142858 142.85714285714283 189.73214285714286 144.19642857142856 Q 188.39285714285714 145.53571428571428 187.5 146.42857142857142 Q 186.60714285714286 147.32142857142856 184.82142857142858 149.10714285714283 Q 183.0357142857143 150.8928571428571 181.25000000000003 152.67857142857142 Q 179.46428571428575 154.46428571428572 178.12500000000003 156.69642857142858 Q 176.7857142857143 158.92857142857144 175.89285714285717 160.26785714285714 Q 175.00000000000003 161.60714285714283 174.1071428571429 162.94642857142856 Q 173.21428571428575 164.28571428571428 172.76785714285717 166.07142857142856 Q 172.32142857142858 167.85714285714283 171.87500000000003 169.64285714285714 Q 171.42857142857147 171.42857142857144 170.9821428571429 173.66071428571428 Q 170.5357142857143 175.8928571428571 170.08928571428572 177.67857142857142 Q 169.64285714285714 179.46428571428572 169.64285714285714 180.80357142857142 Q 169.64285714285714 182.1428571428571 169.64285714285714 183.92857142857142 Q 169.64285714285714 185.71428571428572 169.64285714285714 187.94642857142858 Q 169.64285714285714 190.17857142857144 169.64285714285714 191.96428571428572 Q 169.64285714285714 193.75 169.64285714285714 195.53571428571428 Q 169.64285714285714 197.32142857142856 170.08928571428572 199.55357142857142 Q 170.5357142857143 201.78571428571428 170.9821428571429 204.01785714285714 Q 171.42857142857147 206.25 172.76785714285717 208.92857142857142 Q 174.10714285714286 211.60714285714283 175.44642857142858 215.17857142857142 Q 176.7857142857143 218.75 178.57142857142858 221.42857142857142 Q 180.35714285714286 224.10714285714283 182.14285714285717 226.3392857142857 Q 183.92857142857147 228.57142857142856 186.1607142857143 230.80357142857142 Q 188.39285714285714 233.03571428571428 191.51785714285714 235.26785714285714 Q 194.64285714285714 237.5 197.32142857142858 238.8392857142857 Q 200.00000000000003 240.1785714285714 203.5714285714286 241.5178571428571 Q 207.1428571428572 242.85714285714283 210.2678571428572 243.74999999999997 Q 213.3928571428572 244.6428571428571 217.8571428571429 245.98214285714283 Q 222.32142857142858 247.32142857142856 227.67857142857144 248.2142857142857 Q 233.0357142857143 249.10714285714283 240.17857142857144 249.99999999999997 Q 247.32142857142858 250.8928571428571 252.67857142857144 250.8928571428571 Q 258.03571428571433 250.8928571428571 261.6071428571429 250.8928571428571 Q 265.17857142857144 250.8928571428571 266.51785714285717 249.99999999999997 Q 267.8571428571429 249.10714285714283 268.75000000000006 248.2142857142857 Q 269.6428571428572 247.32142857142856 270.53571428571433 246.42857142857142 Q 271.42857142857144 245.53571428571428 272.3214285714286 244.19642857142856 Q 273.2142857142858 242.85714285714283 273.66071428571433 241.9642857142857 Q 274.1071428571429 241.07142857142856 275.4464285714286 239.28571428571428 Q 276.78571428571433 237.5 277.2321428571429 236.60714285714286 Q 277.67857142857144 235.71428571428572 279.01785714285717 233.48214285714286 Q 280.3571428571429 231.25 280.80357142857144 229.46428571428572 Q 281.25 227.67857142857144 281.6964285714286 225.89285714285714 Q 282.1428571428572 224.10714285714283 283.03571428571433 221.87499999999997 Q 283.92857142857144 219.6428571428571 284.375 217.41071428571428 Q 284.82142857142856 215.17857142857144 285.7142857142857 213.39285714285714 Q 286.6071428571429 211.60714285714283 287.05357142857144 209.37499999999997 Q 287.5 207.1428571428571 287.5 204.0178571428571 Q 287.5 200.8928571428571 287.5 199.10714285714283 Q 287.5 197.32142857142856 287.5 195.0892857142857 Q 287.5 192.85714285714283 287.5 190.62499999999997 Q 287.5 188.3928571428571 287.5 186.16071428571428 Q 287.5 183.92857142857144 287.5 182.14285714285714 Q 287.5 180.35714285714283 287.5 178.12499999999997 Q 287.5 175.8928571428571 287.5 174.55357142857142 Q 287.5 173.21428571428572 286.6071428571429 172.32142857142858 Q 285.7142857142858 171.42857142857144 285.26785714285717 169.64285714285714 Q 284.82142857142856 167.85714285714283 284.82142857142856 166.51785714285714 Q 284.82142857142856 165.17857142857144 284.375 164.28571428571428 Q 283.92857142857144 163.3928571428571 283.4821428571429 162.05357142857142 Q 283.03571428571433 160.71428571428572 282.14285714285717 159.375 Q 281.25 158.03571428571428 280.80357142857144 157.5892857142857 Q 280.3571428571429 157.1428571428571 279.91071428571433 155.80357142857142 Q 279.4642857142858 154.46428571428572 278.5714285714286 153.57142857142858 Q 277.67857142857144 152.67857142857144 277.2321428571429 151.78571428571428 Q 276.78571428571433 150.8928571428571 275.4464285714286 149.99999999999997 Q 274.1071428571429 149.10714285714283 273.2142857142857 147.76785714285714 Q 272.32142857142856 146.42857142857144 270.9821428571429 145.98214285714286 Q 269.6428571428572 145.53571428571428 267.8571428571429 144.64285714285714 Q 266.07142857142856 143.75 264.2857142857143 143.30357142857142 Q 262.5 142.85714285714283 260.7142857142857 142.41071428571428 Q 258.92857142857144 141.96428571428572 254.91071428571433 141.07142857142858 Q 250.8928571428572 140.17857142857144 246.42857142857147 139.73214285714286 Q 241.96428571428575 139.28571428571428 238.83928571428575 139.28571428571428 Q 235.71428571428575 139.28571428571428 232.14285714285717 138.8392857142857 Q 228.57142857142858 138.3928571428571 226.33928571428572 138.3928571428571 Q 224.10714285714286 138.3928571428571 221.87500000000003 138.3928571428571 Q 219.6428571428572 138.3928571428571 218.30357142857147 138.3928571428571 Q 216.96428571428575 138.3928571428571 216.0714285714286 138.3928571428571 Q 215.17857142857147 138.3928571428571 213.39285714285717 138.8392857142857 Q 211.60714285714286 139.28571428571428 210.26785714285717 139.73214285714286 Q 208.92857142857147 140.17857142857144 208.03571428571433 140.625 Q 207.1428571428572 141.07142857142856 206.25000000000003 141.9642857142857 Q 205.35714285714286 142.85714285714283 204.46428571428572 143.74999999999997 L 203.57042857142858 144.64385714285712" stroke-linecap="round" />
</g>
<g transform="matrix(1 0 0 1 133.48 315.1)" id="XXNtvKvc3oLFsT5hNYiAa"  >
<path style="stroke: rgb(0,0,0); stroke-width: 1; stroke-dasharray: none; stroke-linecap: round; stroke-dashoffset: 0; stroke-linejoin: round; stroke-miterlimit: 10; fill: none; fill-rule: nonzero; opacity: 1;" vector-effect="non-scaling-stroke"  transform=" translate(-133.48, -315.1)" d="M 199.10814285714287 246.4285714285714 Q 199.10714285714286 246.4285714285714 197.76785714285717 249.5535714285714 Q 196.42857142857147 252.6785714285714 195.9821428571429 252.6785714285714 Q 195.5357142857143 252.6785714285714 194.19642857142858 254.0178571428571 Q 192.85714285714286 255.35714285714283 190.625 256.25 Q 188.39285714285714 257.1428571428571 186.60714285714286 258.48214285714283 Q 184.82142857142858 259.82142857142856 183.0357142857143 260.2678571428571 Q 181.25000000000003 260.7142857142857 179.9107142857143 261.6071428571429 Q 178.57142857142858 262.5 176.7857142857143 263.3928571428571 Q 175.00000000000003 264.2857142857143 174.1071428571429 265.17857142857144 Q 173.21428571428575 266.07142857142856 171.42857142857144 266.96428571428567 Q 169.64285714285714 267.85714285714283 168.75 268.30357142857144 Q 167.85714285714286 268.75 166.96428571428572 269.6428571428571 Q 166.07142857142858 270.5357142857143 164.73214285714286 270.5357142857143 Q 163.39285714285714 270.5357142857143 162.05357142857144 270.98214285714283 Q 160.71428571428575 271.4285714285714 159.8214285714286 271.875 Q 158.92857142857147 272.32142857142856 157.58928571428575 273.21428571428567 Q 156.25000000000003 274.10714285714283 154.46428571428575 274.55357142857144 Q 152.67857142857147 275 150.4464285714286 275.44642857142856 Q 148.21428571428575 275.8928571428571 145.5357142857143 276.33928571428567 Q 142.85714285714286 276.7857142857143 139.73214285714286 277.23214285714283 Q 136.60714285714286 277.6785714285714 133.48214285714286 277.6785714285714 Q 130.35714285714286 277.6785714285714 127.67857142857144 278.125 Q 125.00000000000003 278.57142857142856 122.76785714285717 279.46428571428567 Q 120.5357142857143 280.35714285714283 118.30357142857144 280.80357142857144 Q 116.07142857142858 281.25 113.83928571428572 282.1428571428571 Q 111.60714285714286 283.0357142857143 109.375 283.92857142857144 Q 107.14285714285714 284.82142857142856 104.9107142857143 286.1607142857143 Q 102.67857142857147 287.5 100.89285714285717 288.3928571428571 Q 99.10714285714286 289.2857142857143 97.76785714285717 290.625 Q 96.42857142857147 291.9642857142857 94.64285714285717 294.19642857142856 Q 92.85714285714286 296.4285714285714 91.07142857142858 298.6607142857142 Q 89.2857142857143 300.8928571428571 87.50000000000003 303.125 Q 85.71428571428575 305.35714285714283 84.37500000000003 307.58928571428567 Q 83.0357142857143 309.82142857142856 81.69642857142858 312.5 Q 80.35714285714286 315.1785714285714 79.01785714285715 319.19642857142856 Q 77.67857142857144 323.2142857142857 76.7857142857143 326.7857142857143 Q 75.89285714285717 330.35714285714283 75.00000000000001 333.48214285714283 Q 74.10714285714286 336.60714285714283 73.21428571428572 340.625 Q 72.32142857142858 344.6428571428571 71.87500000000001 348.21428571428567 Q 71.42857142857144 351.7857142857143 70.5357142857143 354.9107142857143 Q 69.64285714285717 358.0357142857143 69.64285714285717 360.71428571428567 Q 69.64285714285717 363.3928571428571 69.64285714285717 365.17857142857144 Q 69.64285714285717 366.9642857142857 69.1964285714286 367.8571428571429 Q 68.75000000000003 368.75 68.75000000000003 370.0892857142857 Q 68.75000000000003 371.42857142857144 68.75000000000003 372.7678571428571 Q 68.75000000000003 374.10714285714283 68.30357142857144 375.44642857142856 Q 67.85714285714286 376.7857142857143 67.85714285714286 377.67857142857144 Q 67.85714285714286 378.57142857142856 67.85714285714286 379.9107142857143 Q 67.85714285714286 381.25 67.85714285714286 382.1428571428571 Q 67.85714285714286 383.0357142857143 67.85714285714286 383.4821428571429 Q 67.85714285714286 383.92857142857144 69.64285714285715 383.0357142857143 L 71.42957142857145 382.14185714285713" stroke-linecap="round" />
</g>
<g transform="matrix(1 0 0 1 329.02 327.23)" id="BhvCo4-6CLmQUjRk6muJV"  >
<path style="stroke: rgb(0,0,0); stroke-width: 1; stroke-dasharray: none; stroke-linecap: round; stroke-dashoffset: 0; stroke-linejoin: round; stroke-miterlimit: 10; fill: none; fill-rule: nonzero; opacity: 1;" vector-effect="non-scaling-stroke"  transform=" translate(-329.02, -327.23)" d="M 272.32142857142856 241.96328571428572 Q 272.32142857142856 241.96428571428572 271.875 241.96428571428572 Q 271.42857142857144 241.96428571428572 271.42857142857144 242.85714285714286 Q 271.42857142857144 243.75 271.42857142857144 244.19642857142856 Q 271.42857142857144 244.6428571428571 271.42857142857144 245.0892857142857 Q 271.42857142857144 245.53571428571428 271.42857142857144 246.875 Q 271.42857142857144 248.21428571428572 271.42857142857144 248.66071428571428 Q 271.42857142857144 249.10714285714283 271.42857142857144 249.55357142857142 Q 271.42857142857144 250 271.875 251.3392857142857 Q 272.32142857142856 252.6785714285714 273.2142857142857 252.6785714285714 Q 274.1071428571429 252.6785714285714 275.00000000000006 254.0178571428571 Q 275.8928571428572 255.35714285714283 277.2321428571429 255.80357142857142 Q 278.57142857142856 256.25 280.3571428571429 257.1428571428571 Q 282.1428571428572 258.0357142857143 283.9285714285715 258.92857142857144 Q 285.7142857142858 259.82142857142856 287.50000000000006 260.2678571428571 Q 289.28571428571433 260.7142857142857 291.51785714285717 261.1607142857143 Q 293.75 261.60714285714283 295.5357142857143 262.5 Q 297.32142857142856 263.3928571428571 299.1071428571429 263.3928571428571 Q 300.8928571428572 263.3928571428571 303.12500000000006 264.2857142857142 Q 305.3571428571429 265.1785714285714 307.5892857142857 266.07142857142856 Q 309.82142857142856 266.9642857142857 311.6071428571429 267.4107142857143 Q 313.3928571428572 267.85714285714283 316.0714285714286 268.75 Q 318.75 269.6428571428571 320.5357142857143 270.5357142857142 Q 322.32142857142856 271.4285714285714 324.55357142857144 272.7678571428571 Q 326.78571428571433 274.10714285714283 330.3571428571429 275.44642857142856 Q 333.92857142857144 276.7857142857143 336.16071428571433 277.67857142857144 Q 338.3928571428572 278.57142857142856 340.1785714285715 279.9107142857143 Q 341.9642857142858 281.25 343.75000000000006 281.69642857142856 Q 345.53571428571433 282.1428571428571 345.9821428571429 283.0357142857142 Q 346.42857142857144 283.9285714285714 347.3214285714286 284.375 Q 348.2142857142858 284.82142857142856 349.10714285714295 285.2678571428571 Q 350.0000000000001 285.7142857142857 351.7857142857144 287.05357142857144 Q 353.57142857142867 288.3928571428571 355.8035714285715 290.17857142857144 Q 358.03571428571433 291.9642857142857 360.2678571428572 293.75 Q 362.5000000000001 295.5357142857143 364.73214285714295 297.32142857142856 Q 366.9642857142858 299.10714285714283 368.75000000000006 301.33928571428567 Q 370.53571428571433 303.57142857142856 372.3214285714286 305.35714285714283 Q 374.1071428571429 307.1428571428571 375.00000000000006 309.375 Q 375.8928571428572 311.60714285714283 376.78571428571433 313.3928571428571 Q 377.67857142857144 315.1785714285714 378.5714285714286 316.96428571428567 Q 379.4642857142858 318.75 379.91071428571433 320.5357142857143 Q 380.3571428571429 322.32142857142856 380.8035714285715 324.10714285714283 Q 381.2500000000001 325.8928571428571 382.1428571428572 328.57142857142856 Q 383.03571428571433 331.25 383.9285714285715 332.58928571428567 Q 384.82142857142867 333.9285714285714 384.82142857142867 335.71428571428567 Q 384.82142857142867 337.5 385.2678571428572 339.2857142857143 Q 385.7142857142858 341.07142857142856 385.7142857142858 343.75 Q 385.7142857142858 346.4285714285714 385.7142857142858 348.21428571428567 Q 385.7142857142858 350 386.16071428571433 352.2321428571429 Q 386.6071428571429 354.4642857142857 386.6071428571429 356.25 Q 386.6071428571429 358.0357142857143 386.6071428571429 360.2678571428571 Q 386.6071428571429 362.5 386.6071428571429 365.17857142857144 Q 386.6071428571429 367.85714285714283 386.6071428571429 371.42857142857144 Q 386.6071428571429 375 386.16071428571433 378.125 Q 385.7142857142858 381.25 385.2678571428572 383.4821428571429 Q 384.82142857142867 385.7142857142857 384.37500000000006 387.94642857142856 Q 383.92857142857144 390.17857142857144 383.4821428571429 392.4107142857143 Q 383.03571428571433 394.6428571428571 382.5892857142858 397.32142857142856 Q 382.1428571428572 400 381.69642857142867 402.2321428571429 Q 381.2500000000001 404.4642857142857 381.2500000000001 405.3571428571429 Q 381.2500000000001 406.25 381.2500000000001 407.1428571428571 Q 381.2500000000001 408.0357142857143 381.2500000000001 408.92857142857144 Q 381.2500000000001 409.82142857142856 381.2500000000001 411.1607142857143 L 381.2500000000001 412.501" stroke-linecap="round" />
</g>
<g transform="matrix(1 0 0 1 72.77 402.68)" id="c8QhdUDkTRr0FkzH9nysb"  >
<path style="stroke: rgb(0,0,0); stroke-width: 1; stroke-dasharray: none; stroke-linecap: round; stroke-dashoffset: 0; stroke-linejoin: round; stroke-miterlimit: 10; fill: none; fill-rule: nonzero; opacity: 1;" vector-effect="non-scaling-stroke"  transform=" translate(-72.77, -402.68)" d="M 71.42757142857144 377.67757142857147 Q 71.42857142857144 377.67857142857144 71.42857142857144 379.0178571428571 Q 71.42857142857144 380.35714285714283 71.87500000000001 381.69642857142856 Q 72.32142857142858 383.0357142857143 72.76785714285715 385.2678571428571 Q 73.21428571428572 387.5 73.21428571428572 389.2857142857143 Q 73.21428571428572 391.07142857142856 73.21428571428572 392.85714285714283 Q 73.21428571428572 394.6428571428571 73.21428571428572 396.875 Q 73.21428571428572 399.10714285714283 73.21428571428572 400.44642857142856 Q 73.21428571428572 401.7857142857143 73.21428571428572 402.67857142857144 Q 73.21428571428572 403.57142857142856 73.21428571428572 404.9107142857143 Q 73.21428571428572 406.25 73.21428571428572 407.5892857142857 Q 73.21428571428572 408.92857142857144 73.66071428571429 410.2678571428571 Q 74.10714285714286 411.60714285714283 74.10714285714286 412.94642857142856 Q 74.10714285714286 414.2857142857143 74.10714285714286 416.07142857142856 Q 74.10714285714286 417.85714285714283 74.10714285714286 419.19642857142856 Q 74.10714285714286 420.5357142857143 74.10714285714286 421.875 Q 74.10714285714286 423.2142857142857 74.10714285714286 424.1071428571429 Q 74.10714285714286 425 74.10714285714286 426.3392857142857 L 74.10714285714286 427.6795714285714" stroke-linecap="round" />
</g>
<g transform="matrix(1 0 0 1 150.45 311.61)" id="yQI6paKWX1jos1ddIm1mJ"  >
<path style="stroke: rgb(0,0,0); stroke-width: 1; stroke-dasharray: none; stroke-linecap: round; stroke-dashoffset: 0; stroke-linejoin: round; stroke-miterlimit: 10; fill: none; fill-rule: nonzero; opacity: 1;" vector-effect="non-scaling-stroke"  transform=" translate(-150.45, -311.61)" d="M 161.60714285714286 291.96328571428575 Q 161.60714285714286 291.9642857142857 161.60714285714286 292.4107142857143 Q 161.60714285714286 292.85714285714283 161.60714285714286 294.19642857142856 Q 161.60714285714286 295.5357142857143 161.60714285714286 296.875 Q 161.60714285714286 298.2142857142857 161.1607142857143 299.1071428571429 Q 160.71428571428575 300 159.8214285714286 301.7857142857143 Q 158.92857142857147 303.57142857142856 158.0357142857143 305.35714285714283 Q 157.14285714285714 307.1428571428571 155.80357142857144 308.48214285714283 Q 154.46428571428575 309.82142857142856 153.5714285714286 311.1607142857143 Q 152.67857142857147 312.5 151.33928571428575 313.3928571428571 Q 150.00000000000003 314.2857142857143 149.55357142857144 315.625 Q 149.10714285714286 316.9642857142857 147.76785714285717 318.30357142857144 Q 146.42857142857147 319.6428571428571 145.08928571428575 320.98214285714283 Q 143.75000000000003 322.32142857142856 142.8571428571429 323.6607142857143 Q 141.96428571428575 325 140.62500000000003 326.7857142857143 Q 139.2857142857143 328.57142857142856 139.2857142857143 329.9107142857143 L 139.2857142857143 331.251" stroke-linecap="round" />
</g>
<g transform="matrix(1 0 0 1 227.57 338.84)" id="TyPc-Tf1CRu-kGOogskJJ"  >
<path style="stroke: rgb(0,0,0); stroke-width: 1; stroke-dasharray: none; stroke-linecap: round; stroke-dashoffset: 0; stroke-linejoin: round; stroke-miterlimit: 10; fill: none; fill-rule: nonzero; opacity: 1;" vector-effect="non-scaling-stroke"  transform=" translate(-227.57, -338.84)" d="M 159.82042857142858 292.85614285714286 Q 159.82142857142858 292.85714285714283 160.26785714285717 292.85714285714283 Q 160.71428571428575 292.85714285714283 162.50000000000003 293.75 Q 164.2857142857143 294.6428571428571 166.07142857142858 295.98214285714283 Q 167.85714285714286 297.32142857142856 170.08928571428572 299.10714285714283 Q 172.32142857142858 300.8928571428571 175.00000000000003 302.23214285714283 Q 177.67857142857147 303.57142857142856 179.46428571428575 304.46428571428567 Q 181.25000000000003 305.35714285714283 183.0357142857143 306.25 Q 184.82142857142858 307.1428571428571 186.60714285714286 308.92857142857144 Q 188.39285714285714 310.7142857142857 190.17857142857144 312.5 Q 191.96428571428575 314.2857142857143 194.1964285714286 316.07142857142856 Q 196.42857142857147 317.85714285714283 198.21428571428575 319.6428571428571 Q 200.00000000000003 321.4285714285714 202.67857142857144 323.6607142857142 Q 205.35714285714286 325.8928571428571 213.83928571428572 331.25 Q 222.32142857142858 336.60714285714283 223.21428571428572 337.5 Q 224.10714285714286 338.3928571428571 231.25000000000003 344.19642857142856 Q 238.3928571428572 350 241.96428571428575 352.67857142857144 Q 245.5357142857143 355.35714285714283 248.6607142857143 357.58928571428567 Q 251.7857142857143 359.82142857142856 256.6964285714286 363.3928571428571 Q 261.6071428571429 366.9642857142857 265.62500000000006 369.6428571428571 Q 269.6428571428572 372.32142857142856 275.4464285714286 375.44642857142856 Q 281.25 378.57142857142856 284.8214285714286 380.35714285714283 Q 288.3928571428572 382.1428571428571 291.0714285714286 383.0357142857143 Q 293.75 383.92857142857144 294.64285714285717 383.92857142857144 Q 295.53571428571433 383.92857142857144 294.64285714285717 384.375 L 293.749 384.82242857142853" stroke-linecap="round" />
</g>
<g transform="matrix(1 0 0 1 222.77 379.91)" id="4WhAloNmmcz_c4p47fxWC"  >
<path style="stroke: rgb(0,0,0); stroke-width: 1; stroke-dasharray: none; stroke-linecap: round; stroke-dashoffset: 0; stroke-linejoin: round; stroke-miterlimit: 10; fill: none; fill-rule: nonzero; opacity: 1;" vector-effect="non-scaling-stroke"  transform=" translate(-222.77, -379.91)" d="M 146.42857142857147 334.8204285714286 Q 146.42857142857147 334.82142857142856 146.42857142857147 335.2678571428571 Q 146.42857142857147 335.7142857142857 146.42857142857147 337.05357142857144 Q 146.42857142857147 338.3928571428571 148.21428571428575 340.625 Q 150.00000000000003 342.85714285714283 151.7857142857143 344.6428571428571 Q 153.57142857142858 346.4285714285714 157.14285714285717 348.21428571428567 Q 160.71428571428575 350 164.2857142857143 351.7857142857143 Q 167.85714285714286 353.57142857142856 171.42857142857144 354.9107142857143 Q 175.00000000000003 356.25 177.67857142857144 357.58928571428567 Q 180.35714285714286 358.9285714285714 182.14285714285717 359.82142857142856 Q 183.92857142857147 360.7142857142857 186.1607142857143 362.5 Q 188.39285714285714 364.2857142857143 191.07142857142858 366.07142857142856 Q 193.75000000000003 367.85714285714283 199.1071428571429 370.98214285714283 Q 204.46428571428575 374.10714285714283 209.37500000000003 378.125 Q 214.2857142857143 382.1428571428571 220.9821428571429 385.71428571428567 Q 227.67857142857147 389.2857142857143 232.14285714285717 391.5178571428571 Q 236.60714285714286 393.75 240.62500000000003 396.42857142857144 Q 244.6428571428572 399.10714285714283 246.87500000000003 400.44642857142856 Q 249.10714285714286 401.7857142857143 251.33928571428572 402.67857142857144 Q 253.57142857142858 403.57142857142856 255.80357142857144 404.46428571428567 Q 258.03571428571433 405.35714285714283 259.37500000000006 406.69642857142856 Q 260.7142857142858 408.0357142857143 261.6071428571429 408.92857142857144 Q 262.5 409.82142857142856 263.8392857142857 411.1607142857143 Q 265.17857142857144 412.5 265.625 413.8392857142857 Q 266.07142857142856 415.17857142857144 266.9642857142857 416.5178571428571 Q 267.8571428571429 417.85714285714283 268.75000000000006 418.75 Q 269.6428571428572 419.6428571428571 270.9821428571429 420.98214285714283 Q 272.32142857142856 422.32142857142856 273.2142857142857 422.7678571428571 Q 274.1071428571429 423.2142857142857 275.4464285714286 423.6607142857143 Q 276.78571428571433 424.10714285714283 278.12500000000006 424.55357142857144 Q 279.4642857142858 425 280.8035714285715 425 Q 282.1428571428572 425 283.9285714285715 425 Q 285.7142857142858 425 287.0535714285715 425 Q 288.3928571428572 425 289.28571428571433 425 Q 290.17857142857144 425 291.51785714285717 424.1071428571429 Q 292.8571428571429 423.2142857142857 293.30357142857144 422.32142857142856 Q 293.75 421.42857142857144 294.64285714285717 420.5357142857143 Q 295.53571428571433 419.6428571428571 295.9821428571429 418.30357142857144 Q 296.42857142857144 416.9642857142857 296.875 416.07142857142856 Q 297.32142857142856 415.17857142857144 297.76785714285717 414.2857142857143 Q 298.2142857142858 413.3928571428571 298.2142857142858 412.05357142857144 Q 298.2142857142858 410.7142857142857 298.66071428571433 409.82142857142856 Q 299.1071428571429 408.92857142857144 299.1071428571429 407.5892857142857 Q 299.1071428571429 406.25 299.1071428571429 405.3571428571429 Q 299.1071428571429 404.4642857142857 299.1071428571429 403.125 Q 299.1071428571429 401.7857142857143 299.1071428571429 400.44642857142856 Q 299.1071428571429 399.10714285714283 299.1071428571429 398.21428571428567 Q 299.1071428571429 397.32142857142856 298.66071428571433 396.42857142857144 Q 298.2142857142858 395.5357142857143 297.76785714285717 395.08928571428567 Q 297.32142857142856 394.6428571428571 297.32142857142856 393.75 Q 297.32142857142856 392.85714285714283 297.32142857142856 391.96428571428567 Q 297.32142857142856 391.07142857142856 296.875 390.17857142857144 Q 296.42857142857144 389.2857142857143 295.9821428571429 388.83928571428567 Q 295.53571428571433 388.3928571428571 295.53571428571433 387.94642857142856 Q 295.53571428571433 387.5 295.0892857142858 387.5 Q 294.6428571428572 387.5 294.1964285714286 386.1607142857143 L 293.749 384.8204285714286" stroke-linecap="round" />
</g>
<g transform="matrix(1 0 0 1 225 371.43)" id="lwk3aaHOKcO7lnOCzqPKL"  >
<path style="stroke: rgb(0,0,0); stroke-width: 1; stroke-dasharray: none; stroke-linecap: round; stroke-dashoffset: 0; stroke-linejoin: round; stroke-miterlimit: 10; fill: none; fill-rule: nonzero; opacity: 1;" vector-effect="non-scaling-stroke"  transform=" translate(-225, -371.43)" d="M 177.67757142857147 340.1775714285714 Q 177.67857142857147 340.1785714285714 177.67857142857147 340.625 Q 177.67857142857147 341.07142857142856 178.5714285714286 342.4107142857143 Q 179.46428571428575 343.75 180.80357142857144 345.08928571428567 Q 182.14285714285714 346.4285714285714 184.375 348.21428571428567 Q 186.60714285714286 350 192.4107142857143 353.57142857142856 Q 198.21428571428575 357.1428571428571 198.6607142857143 357.58928571428567 Q 199.10714285714286 358.0357142857143 200.44642857142858 358.48214285714283 Q 201.7857142857143 358.9285714285714 203.57142857142858 359.82142857142856 Q 205.35714285714286 360.7142857142857 207.58928571428572 361.6071428571429 Q 209.82142857142858 362.5 211.1607142857143 362.94642857142856 Q 212.50000000000003 363.3928571428571 214.2857142857143 364.2857142857143 Q 216.07142857142858 365.17857142857144 217.8571428571429 365.625 Q 219.6428571428572 366.07142857142856 220.9821428571429 366.96428571428567 Q 222.32142857142858 367.85714285714283 223.6607142857143 368.30357142857144 Q 225.00000000000003 368.75 226.33928571428575 369.19642857142856 Q 227.67857142857147 369.6428571428571 229.01785714285717 370.5357142857143 Q 230.35714285714286 371.42857142857144 231.25000000000003 371.875 Q 232.1428571428572 372.32142857142856 233.4821428571429 373.21428571428567 Q 234.82142857142858 374.10714285714283 236.1607142857143 375 Q 237.50000000000003 375.8928571428571 239.2857142857143 376.7857142857143 Q 241.07142857142858 377.67857142857144 241.96428571428572 378.57142857142856 Q 242.85714285714286 379.4642857142857 244.19642857142858 380.80357142857144 Q 245.5357142857143 382.1428571428571 247.32142857142858 383.0357142857143 Q 249.10714285714286 383.92857142857144 251.33928571428572 385.7142857142857 Q 253.57142857142858 387.5 255.3571428571429 388.8392857142857 Q 257.1428571428572 390.17857142857144 258.4821428571429 390.625 Q 259.82142857142856 391.07142857142856 260.7142857142857 392.4107142857143 Q 261.6071428571429 393.75 263.39285714285717 395.5357142857143 Q 265.17857142857144 397.32142857142856 266.51785714285717 398.21428571428567 Q 267.8571428571429 399.10714285714283 270.0892857142857 400.8928571428571 L 272.32242857142853 402.6795714285714" stroke-linecap="round" />
</g>
<g transform="matrix(1 0 0 1 217.04 375.45)" id="_F5eVDHwqvzhNUiuBI0os"  >
<path style="stroke: rgb(0,0,0); stroke-width: 1; stroke-dasharray: none; stroke-linecap: round; stroke-dashoffset: 0; stroke-linejoin: round; stroke-miterlimit: 10; fill: none; fill-rule: nonzero; opacity: 1;" vector-effect="non-scaling-stroke"  transform=" translate(-217.04, -375.45)" d="M 193.75100000000003 338.39185714285713 Q 193.75000000000003 338.3928571428571 192.8571428571429 338.83928571428567 Q 191.96428571428575 339.2857142857143 191.0714285714286 339.73214285714283 Q 190.17857142857147 340.1785714285714 188.83928571428575 340.625 Q 187.50000000000003 341.07142857142856 186.6071428571429 341.07142857142856 Q 185.71428571428575 341.07142857142856 184.37500000000003 341.07142857142856 Q 183.0357142857143 341.07142857142856 182.58928571428572 341.07142857142856 Q 182.14285714285714 341.07142857142856 181.69642857142858 341.07142857142856 Q 181.25000000000003 341.07142857142856 179.9107142857143 341.07142857142856 Q 178.57142857142858 341.07142857142856 177.67857142857144 341.07142857142856 Q 176.7857142857143 341.07142857142856 175.44642857142858 341.07142857142856 Q 174.10714285714286 341.07142857142856 173.21428571428572 341.07142857142856 Q 172.32142857142858 341.07142857142856 171.42857142857144 341.07142857142856 Q 170.5357142857143 341.07142857142856 170.9821428571429 341.5178571428571 Q 171.42857142857147 341.9642857142857 173.21428571428575 341.9642857142857 Q 175.00000000000003 341.9642857142857 178.12500000000003 342.4107142857143 Q 181.25000000000003 342.85714285714283 187.94642857142858 342.85714285714283 Q 194.64285714285714 342.85714285714283 201.33928571428572 343.30357142857144 Q 208.0357142857143 343.75 212.94642857142858 344.6428571428571 Q 217.85714285714286 345.5357142857143 220.5357142857143 345.98214285714283 Q 223.21428571428575 346.4285714285714 223.6607142857143 346.875 Q 224.10714285714286 347.32142857142856 225.00000000000003 348.21428571428567 Q 225.8928571428572 349.10714285714283 226.33928571428575 350 Q 226.7857142857143 350.8928571428571 228.57142857142858 352.67857142857144 Q 230.35714285714286 354.4642857142857 232.14285714285717 356.25 Q 233.92857142857147 358.0357142857143 234.8214285714286 359.375 Q 235.71428571428575 360.7142857142857 237.50000000000003 362.05357142857144 Q 239.2857142857143 363.3928571428571 240.62500000000003 364.2857142857143 Q 241.96428571428575 365.17857142857144 242.8571428571429 366.07142857142856 Q 243.75000000000003 366.9642857142857 245.08928571428575 368.75 Q 246.42857142857147 370.5357142857143 247.76785714285717 372.32142857142856 Q 249.10714285714286 374.10714285714283 250.44642857142858 376.33928571428567 Q 251.7857142857143 378.57142857142856 252.67857142857144 379.9107142857143 Q 253.57142857142858 381.25 254.91071428571428 383.0357142857143 Q 256.25 384.82142857142856 257.5892857142857 386.60714285714283 Q 258.92857142857144 388.3928571428571 259.375 390.17857142857144 Q 259.82142857142856 391.9642857142857 260.7142857142857 393.75 Q 261.6071428571429 395.5357142857143 262.05357142857144 396.875 Q 262.5 398.2142857142857 262.9464285714286 399.1071428571429 Q 263.3928571428572 400 263.3928571428572 401.3392857142857 Q 263.3928571428572 402.67857142857144 263.3928571428572 404.0178571428571 Q 263.3928571428572 405.35714285714283 263.3928571428572 406.69642857142856 Q 263.3928571428572 408.0357142857143 263.3928571428572 408.92857142857144 Q 263.3928571428572 409.82142857142856 263.3928571428572 410.2678571428571 Q 263.3928571428572 410.7142857142857 263.3928571428572 411.6071428571429 L 263.3928571428572 412.5" stroke-linecap="round" />
</g>
<g transform="matrix(1 0 0 1 217.41 363.84)" id="Eq0wzrZ81DxSSpdB-yXnP"  >
<path style="stroke: rgb(0,0,0); stroke-width: 1; stroke-dasharray: none; stroke-linecap: round; stroke-dashoffset: 0; stroke-linejoin: round; stroke-miterlimit: 10; fill: none; fill-rule: nonzero; opacity: 1;" vector-effect="non-scaling-stroke"  transform=" translate(-217.41, -363.84)" d="M 197.32042857142858 349.999 Q 197.32142857142858 350 198.21428571428572 350.44642857142856 Q 199.10714285714286 350.8928571428571 201.33928571428572 352.67857142857144 Q 203.57142857142858 354.4642857142857 206.25000000000003 356.25 Q 208.92857142857147 358.0357142857143 212.05357142857147 359.375 Q 215.17857142857147 360.7142857142857 218.75000000000003 362.05357142857144 Q 222.32142857142858 363.3928571428571 224.1071428571429 364.2857142857143 Q 225.8928571428572 365.17857142857144 227.2321428571429 365.625 Q 228.57142857142858 366.07142857142856 229.46428571428572 366.5178571428571 Q 230.35714285714286 366.9642857142857 231.69642857142858 368.30357142857144 Q 233.0357142857143 369.6428571428571 233.4821428571429 370.08928571428567 Q 233.92857142857147 370.5357142857143 234.37500000000003 371.42857142857144 Q 234.82142857142858 372.32142857142856 235.26785714285717 373.21428571428567 Q 235.71428571428575 374.10714285714283 236.1607142857143 374.55357142857144 Q 236.60714285714286 375 237.05357142857144 376.3392857142857 L 237.50100000000003 377.6795714285714" stroke-linecap="round" />
</g>
<g transform="matrix(1 0 0 1 270.54 391.57)" id="5g-T3pbGWwgl6ek-EBbkR"  >
<path style="stroke: rgb(0,0,0); stroke-width: 1; stroke-dasharray: none; stroke-linecap: round; stroke-dashoffset: 0; stroke-linejoin: round; stroke-miterlimit: 10; fill: none; fill-rule: nonzero; opacity: 1;" vector-effect="non-scaling-stroke"  transform=" translate(-270.54, -391.57)" d="M 274.10814285714287 400.8938571428571 Q 274.1071428571429 400.8928571428571 273.66071428571433 399.55357142857144 Q 273.2142857142858 398.2142857142857 271.87500000000006 397.32142857142856 Q 270.53571428571433 396.42857142857144 269.1964285714286 394.6428571428571 Q 267.8571428571429 392.85714285714283 263.8392857142857 387.5 Q 259.82142857142856 382.1428571428571 259.82142857142856 381.69642857142856 Q 259.82142857142856 381.25 259.82142857142856 380.80357142857144 Q 259.82142857142856 380.35714285714283 258.92857142857144 378.57142857142856 Q 258.03571428571433 376.7857142857143 257.14285714285717 375.44642857142856 Q 256.25 374.10714285714283 256.25 373.21428571428567 Q 256.25 372.32142857142856 256.25 370.98214285714283 Q 256.25 369.6428571428571 256.25 368.30357142857144 Q 256.25 366.9642857142857 256.25 366.5178571428571 Q 256.25 366.07142857142856 256.25 365.625 Q 256.25 365.17857142857144 256.25 365.625 Q 256.25 366.07142857142856 257.14285714285717 366.96428571428567 Q 258.03571428571433 367.85714285714283 258.92857142857144 370.08928571428567 Q 259.82142857142856 372.32142857142856 261.1607142857143 375 Q 262.5 377.67857142857144 264.2857142857143 379.4642857142857 Q 266.07142857142856 381.25 267.4107142857143 383.0357142857143 Q 268.75 384.82142857142856 269.64285714285717 385.2678571428571 Q 270.53571428571433 385.7142857142857 271.87500000000006 386.1607142857143 Q 273.2142857142858 386.60714285714283 274.5535714285715 387.05357142857144 Q 275.8928571428572 387.5 276.3392857142858 387.94642857142856 Q 276.78571428571433 388.3928571428571 277.67857142857144 388.3928571428571 Q 278.57142857142856 388.3928571428571 279.4642857142857 388.83928571428567 Q 280.3571428571429 389.2857142857143 281.25000000000006 389.2857142857143 Q 282.1428571428572 389.2857142857143 282.5892857142858 389.2857142857143 Q 283.03571428571433 389.2857142857143 283.4821428571429 390.17857142857144 Q 283.92857142857144 391.07142857142856 283.92857142857144 391.96428571428567 Q 283.92857142857144 392.85714285714283 283.92857142857144 393.75 Q 283.92857142857144 394.6428571428571 284.375 395.98214285714283 Q 284.82142857142856 397.32142857142856 284.82142857142856 398.6607142857143 Q 284.82142857142856 400 284.82142857142856 401.7857142857143 Q 284.82142857142856 403.57142857142856 284.82142857142856 404.9107142857143 Q 284.82142857142856 406.25 283.92857142857144 407.5892857142857 Q 283.03571428571433 408.92857142857144 282.5892857142858 409.82142857142856 Q 282.1428571428572 410.7142857142857 281.25000000000006 411.6071428571429 Q 280.3571428571429 412.5 279.91071428571433 412.94642857142856 Q 279.4642857142858 413.3928571428571 278.5714285714286 413.83928571428567 Q 277.67857142857144 414.2857142857143 277.67857142857144 414.7321428571429 Q 277.67857142857144 415.17857142857144 277.2321428571429 415.625 Q 276.78571428571433 416.07142857142856 276.78571428571433 416.96428571428567 L 276.78571428571433 417.8581428571428" stroke-linecap="round" />
</g>
<g transform="matrix(1 0 0 1 271.43 399.55)" id="02ZGkvGgZ8srUNBkeDhhJ"  >
<path style="stroke: rgb(0,0,0); stroke-width: 1; stroke-dasharray: none; stroke-linecap: round; stroke-dashoffset: 0; stroke-linejoin: round; stroke-miterlimit: 10; fill: none; fill-rule: nonzero; opacity: 1;" vector-effect="non-scaling-stroke"  transform=" translate(-271.43, -399.55)" d="M 264.28471428571436 384.8204285714286 Q 264.28571428571433 384.82142857142856 264.28571428571433 385.2678571428571 Q 264.28571428571433 385.7142857142857 265.17857142857144 387.5 Q 266.07142857142856 389.2857142857143 267.4107142857143 391.5178571428571 Q 268.75 393.75 269.64285714285717 395.5357142857143 Q 270.53571428571433 397.32142857142856 271.87500000000006 399.10714285714283 Q 273.2142857142858 400.8928571428571 274.1071428571429 402.23214285714283 Q 275 403.57142857142856 275.89285714285717 404.0178571428571 Q 276.78571428571433 404.4642857142857 276.78571428571433 405.3571428571429 Q 276.78571428571433 406.25 277.2321428571429 407.1428571428571 Q 277.67857142857144 408.0357142857143 277.67857142857144 408.92857142857144 Q 277.67857142857144 409.82142857142856 278.125 410.2678571428571 Q 278.57142857142856 410.7142857142857 278.57142857142856 411.6071428571429 Q 278.57142857142856 412.5 278.57142857142856 413.3928571428571 L 278.57142857142856 414.28671428571425" stroke-linecap="round" />
</g>
<g transform="matrix(1 0 0 1 292.86 420.09)" id="ZiupdKql2BlQjU5tQgndh"  >
<path style="stroke: rgb(0,0,0); stroke-width: 1; stroke-dasharray: none; stroke-linecap: round; stroke-dashoffset: 0; stroke-linejoin: round; stroke-miterlimit: 10; fill: none; fill-rule: nonzero; opacity: 1;" vector-effect="non-scaling-stroke"  transform=" translate(-292.86, -420.09)" d="M 228.57142857142858 402.67757142857147 Q 228.57142857142858 402.67857142857144 229.01785714285717 402.67857142857144 Q 229.46428571428575 402.67857142857144 229.46428571428575 403.125 Q 229.46428571428575 403.57142857142856 228.5714285714286 403.57142857142856 Q 227.67857142857147 403.57142857142856 225.89285714285717 403.57142857142856 Q 224.10714285714286 403.57142857142856 222.32142857142858 403.57142857142856 Q 220.5357142857143 403.57142857142856 218.30357142857144 403.57142857142856 Q 216.07142857142858 403.57142857142856 213.83928571428572 403.57142857142856 Q 211.60714285714286 403.57142857142856 210.26785714285717 403.57142857142856 Q 208.92857142857147 403.57142857142856 208.03571428571433 403.57142857142856 Q 207.1428571428572 403.57142857142856 206.6964285714286 403.57142857142856 Q 206.25000000000003 403.57142857142856 205.80357142857144 403.57142857142856 Q 205.35714285714286 403.57142857142856 204.9107142857143 403.57142857142856 Q 204.46428571428575 403.57142857142856 204.01785714285717 403.57142857142856 Q 203.57142857142858 403.57142857142856 203.57142857142858 404.0178571428571 Q 203.57142857142858 404.4642857142857 203.12500000000003 404.4642857142857 Q 202.67857142857147 404.4642857142857 202.67857142857147 404.9107142857143 Q 202.67857142857147 405.35714285714283 202.67857142857147 405.80357142857144 Q 202.67857142857147 406.25 202.67857142857147 407.1428571428571 Q 202.67857142857147 408.0357142857143 202.67857142857147 408.92857142857144 Q 202.67857142857147 409.82142857142856 203.5714285714286 411.60714285714283 Q 204.46428571428575 413.3928571428571 205.3571428571429 414.2857142857143 Q 206.25000000000003 415.17857142857144 207.58928571428575 416.07142857142856 Q 208.92857142857147 416.9642857142857 210.26785714285717 417.4107142857143 Q 211.60714285714286 417.85714285714283 213.39285714285717 418.75 Q 215.17857142857147 419.6428571428571 216.0714285714286 420.08928571428567 Q 216.96428571428575 420.5357142857143 218.30357142857147 420.9821428571429 Q 219.6428571428572 421.42857142857144 221.42857142857147 421.875 Q 223.21428571428575 422.32142857142856 225.00000000000003 422.7678571428571 Q 226.7857142857143 423.2142857142857 228.12500000000003 423.6607142857143 Q 229.46428571428575 424.10714285714283 231.25000000000003 425 Q 233.0357142857143 425.8928571428571 233.92857142857144 426.33928571428567 Q 234.82142857142858 426.7857142857143 236.1607142857143 427.2321428571429 Q 237.50000000000003 427.67857142857144 238.39285714285717 428.125 Q 239.2857142857143 428.57142857142856 241.07142857142858 429.0178571428571 Q 242.85714285714286 429.4642857142857 244.19642857142858 429.9107142857143 Q 245.5357142857143 430.35714285714283 247.32142857142858 430.80357142857144 Q 249.10714285714286 431.25 250.89285714285717 431.69642857142856 Q 252.67857142857147 432.1428571428571 254.46428571428572 432.58928571428567 Q 256.25 433.0357142857143 257.5892857142857 433.4821428571429 Q 258.92857142857144 433.92857142857144 260.7142857142857 434.375 Q 262.5 434.82142857142856 264.2857142857143 435.2678571428571 Q 266.07142857142856 435.7142857142857 267.8571428571429 436.1607142857143 Q 269.6428571428572 436.60714285714283 270.9821428571429 436.60714285714283 Q 272.32142857142856 436.60714285714283 274.1071428571429 436.60714285714283 Q 275.8928571428572 436.60714285714283 277.2321428571429 437.05357142857144 Q 278.57142857142856 437.5 280.3571428571429 437.5 Q 282.1428571428572 437.5 283.9285714285715 437.5 Q 285.7142857142858 437.5 287.0535714285715 437.5 Q 288.3928571428572 437.5 289.7321428571429 437.5 Q 291.07142857142856 437.5 292.4107142857143 437.5 Q 293.75 437.5 294.64285714285717 437.5 Q 295.53571428571433 437.5 296.87500000000006 437.5 Q 298.2142857142858 437.5 299.1071428571429 437.05357142857144 Q 300 436.60714285714283 300.89285714285717 436.60714285714283 Q 301.78571428571433 436.60714285714283 302.67857142857144 435.71428571428567 Q 303.57142857142856 434.82142857142856 304.4642857142857 434.375 Q 305.3571428571429 433.92857142857144 305.3571428571429 433.0357142857143 Q 305.3571428571429 432.1428571428571 306.25000000000006 431.69642857142856 Q 307.1428571428572 431.25 307.5892857142858 429.9107142857143 Q 308.03571428571433 428.57142857142856 308.4821428571429 428.125 Q 308.92857142857144 427.67857142857144 309.8214285714286 426.7857142857143 Q 310.7142857142858 425.8928571428571 311.16071428571433 425 Q 311.6071428571429 424.10714285714283 312.05357142857144 423.6607142857143 Q 312.5 423.2142857142857 313.39285714285717 422.32142857142856 Q 314.28571428571433 421.42857142857144 314.7321428571429 420.9821428571429 Q 315.17857142857144 420.5357142857143 316.0714285714286 420.08928571428567 Q 316.9642857142858 419.6428571428571 318.3035714285715 418.75 Q 319.6428571428572 417.85714285714283 320.9821428571429 416.96428571428567 Q 322.32142857142856 416.07142857142856 324.1071428571429 415.625 Q 325.8928571428572 415.17857142857144 327.2321428571429 414.7321428571429 Q 328.57142857142856 414.2857142857143 329.9107142857143 413.3928571428571 Q 331.25 412.5 332.5892857142857 412.05357142857144 Q 333.92857142857144 411.60714285714283 335.7142857142858 411.1607142857143 Q 337.5000000000001 410.7142857142857 338.8392857142858 409.82142857142856 Q 340.17857142857144 408.92857142857144 341.0714285714286 408.4821428571429 Q 341.9642857142858 408.0357142857143 343.75000000000006 408.0357142857143 Q 345.53571428571433 408.0357142857143 347.3214285714286 407.58928571428567 Q 349.1071428571429 407.1428571428571 350.89285714285717 407.1428571428571 Q 352.67857142857144 407.1428571428571 354.4642857142858 407.1428571428571 Q 356.2500000000001 407.1428571428571 358.0357142857144 407.1428571428571 Q 359.82142857142867 407.1428571428571 361.60714285714295 407.1428571428571 Q 363.3928571428572 407.1428571428571 365.62500000000006 407.1428571428571 Q 367.8571428571429 407.1428571428571 370.53571428571433 407.1428571428571 Q 373.2142857142858 407.1428571428571 375.00000000000006 407.1428571428571 Q 376.78571428571433 407.1428571428571 378.12500000000006 407.1428571428571 Q 379.4642857142858 407.1428571428571 380.35714285714295 407.1428571428571 Q 381.2500000000001 407.1428571428571 382.1428571428572 406.69642857142856 L 383.0367142857143 406.249" stroke-linecap="round" />
</g>
<g transform="matrix(1 0 0 1 285.71 409.82)" id="R8K9zj2seZRHisrkwDNdE"  >
<path style="stroke: rgb(0,0,0); stroke-width: 1; stroke-dasharray: none; stroke-linecap: round; stroke-dashoffset: 0; stroke-linejoin: round; stroke-miterlimit: 10; fill: none; fill-rule: nonzero; opacity: 1;" vector-effect="non-scaling-stroke"  transform=" translate(-285.71, -409.82)" d="M 231.24900000000002 399.10614285714286 Q 231.25000000000003 399.10714285714283 231.6964285714286 399.10714285714283 Q 232.1428571428572 399.10714285714283 233.03571428571433 399.55357142857144 Q 233.92857142857147 400 234.37500000000003 400 Q 234.82142857142858 400 235.26785714285717 400.8928571428571 Q 235.71428571428575 401.7857142857143 237.05357142857147 402.2321428571429 Q 238.3928571428572 402.67857142857144 239.7321428571429 403.125 Q 241.07142857142858 403.57142857142856 242.8571428571429 404.46428571428567 Q 244.6428571428572 405.35714285714283 246.42857142857147 405.35714285714283 Q 248.21428571428575 405.35714285714283 249.1071428571429 405.35714285714283 Q 250.00000000000003 405.35714285714283 250.4464285714286 405.80357142857144 Q 250.8928571428572 406.25 250.8928571428572 406.69642857142856 Q 250.8928571428572 407.1428571428571 251.78571428571433 408.0357142857143 Q 252.67857142857147 408.92857142857144 253.12500000000003 409.82142857142856 Q 253.57142857142858 410.7142857142857 254.01785714285717 411.6071428571429 Q 254.46428571428575 412.5 254.46428571428575 413.3928571428571 Q 254.46428571428575 414.2857142857143 255.3571428571429 415.17857142857144 Q 256.25 416.07142857142856 256.6964285714286 416.5178571428571 Q 257.1428571428572 416.9642857142857 257.5892857142858 417.4107142857143 Q 258.03571428571433 417.85714285714283 258.03571428571433 418.75 Q 258.03571428571433 419.6428571428571 258.92857142857144 420.08928571428567 Q 259.82142857142856 420.5357142857143 260.7142857142857 420.9821428571429 Q 261.6071428571429 421.42857142857144 262.50000000000006 421.875 Q 263.3928571428572 422.32142857142856 263.8392857142858 422.32142857142856 Q 264.28571428571433 422.32142857142856 264.7321428571429 422.7678571428571 Q 265.17857142857144 423.2142857142857 266.0714285714286 423.2142857142857 Q 266.9642857142858 423.2142857142857 267.8571428571429 423.2142857142857 Q 268.75 423.2142857142857 269.64285714285717 423.2142857142857 Q 270.53571428571433 423.2142857142857 271.42857142857144 423.2142857142857 Q 272.32142857142856 423.2142857142857 273.2142857142857 423.2142857142857 Q 274.1071428571429 423.2142857142857 275.00000000000006 423.2142857142857 Q 275.8928571428572 423.2142857142857 277.2321428571429 423.2142857142857 Q 278.57142857142856 423.2142857142857 279.4642857142857 423.2142857142857 Q 280.3571428571429 423.2142857142857 281.6964285714286 423.6607142857143 Q 283.03571428571433 424.10714285714283 284.8214285714286 424.10714285714283 Q 286.6071428571429 424.10714285714283 287.9464285714286 424.10714285714283 Q 289.28571428571433 424.10714285714283 290.62500000000006 424.10714285714283 Q 291.9642857142858 424.10714285714283 293.3035714285715 424.10714285714283 Q 294.6428571428572 424.10714285714283 295.9821428571429 424.10714285714283 Q 297.32142857142856 424.10714285714283 298.6607142857143 424.10714285714283 Q 300 424.10714285714283 300.89285714285717 424.10714285714283 Q 301.78571428571433 424.10714285714283 303.12500000000006 424.10714285714283 Q 304.4642857142858 424.10714285714283 304.91071428571433 424.10714285714283 Q 305.3571428571429 424.10714285714283 305.80357142857144 424.10714285714283 Q 306.25 424.10714285714283 306.25 423.6607142857143 Q 306.25 423.2142857142857 306.25 422.7678571428571 Q 306.25 422.32142857142856 306.25 421.875 Q 306.25 421.42857142857144 306.25 420.5357142857143 Q 306.25 419.6428571428571 306.25 419.19642857142856 Q 306.25 418.75 306.25 417.8571428571429 Q 306.25 416.9642857142857 306.25 416.5178571428571 Q 306.25 416.07142857142856 306.25 415.17857142857144 Q 306.25 414.2857142857143 306.25 413.83928571428567 Q 306.25 413.3928571428571 306.25 412.94642857142856 Q 306.25 412.5 306.25 411.6071428571429 Q 306.25 410.7142857142857 306.25 409.82142857142856 Q 306.25 408.92857142857144 306.25 408.4821428571429 Q 306.25 408.0357142857143 306.25 407.58928571428567 Q 306.25 407.1428571428571 306.25 406.69642857142856 Q 306.25 406.25 306.25 405.3571428571429 Q 306.25 404.4642857142857 306.25 404.0178571428571 Q 306.25 403.57142857142856 306.6964285714286 403.57142857142856 Q 307.1428571428572 403.57142857142856 307.5892857142858 403.125 Q 308.03571428571433 402.67857142857144 308.4821428571429 402.67857142857144 Q 308.92857142857144 402.67857142857144 309.375 402.2321428571429 Q 309.82142857142856 401.7857142857143 310.7142857142857 401.33928571428567 Q 311.6071428571429 400.8928571428571 312.50000000000006 400.44642857142856 Q 313.3928571428572 400 314.28571428571433 400 Q 315.17857142857144 400 316.0714285714286 399.55357142857144 Q 316.9642857142858 399.10714285714283 317.8571428571429 399.10714285714283 Q 318.75 399.10714285714283 319.64285714285717 399.10714285714283 Q 320.53571428571433 399.10714285714283 321.87500000000006 399.10714285714283 Q 323.2142857142858 399.10714285714283 325.00000000000006 398.6607142857143 Q 326.78571428571433 398.2142857142857 328.12500000000006 398.2142857142857 Q 329.4642857142858 398.2142857142857 330.8035714285715 397.7678571428571 Q 332.1428571428572 397.32142857142856 333.03571428571433 397.32142857142856 Q 333.92857142857144 397.32142857142856 334.8214285714286 396.875 Q 335.7142857142858 396.42857142857144 336.60714285714295 396.42857142857144 Q 337.5000000000001 396.42857142857144 337.94642857142867 395.9821428571429 Q 338.3928571428572 395.5357142857143 339.28571428571433 395.5357142857143 L 340.1795714285714 395.5357142857143" stroke-linecap="round" />
</g>
<g transform="matrix(1 0 0 1 246.43 433.04)" id="xk5-4e5E7kvXSwOi3w535"  >
<path style="stroke: rgb(0,0,0); stroke-width: 1; stroke-dasharray: none; stroke-linecap: round; stroke-dashoffset: 0; stroke-linejoin: round; stroke-miterlimit: 10; fill: none; fill-rule: nonzero; opacity: 1;" vector-effect="non-scaling-stroke"  transform=" translate(-246.43, -433.04)" d="M 86.60714285714286 449.999 Q 86.60714285714286 450 86.60714285714286 450.44642857142856 Q 86.60714285714286 450.8928571428571 86.60714285714286 451.7857142857143 Q 86.60714285714286 452.67857142857144 87.5 453.125 Q 88.39285714285714 453.57142857142856 89.2857142857143 454.0178571428571 Q 90.17857142857147 454.4642857142857 92.4107142857143 454.9107142857143 Q 94.64285714285714 455.35714285714283 98.6607142857143 456.25 Q 102.67857142857147 457.1428571428571 108.92857142857147 457.1428571428571 Q 115.17857142857147 457.1428571428571 122.76785714285717 457.58928571428567 Q 130.35714285714286 458.0357142857143 140.17857142857144 458.0357142857143 Q 150.00000000000003 458.0357142857143 160.26785714285717 458.0357142857143 Q 170.5357142857143 458.0357142857143 179.9107142857143 458.4821428571429 Q 189.2857142857143 458.92857142857144 199.1071428571429 459.375 Q 208.92857142857147 459.82142857142856 216.96428571428575 460.71428571428567 Q 225.00000000000003 461.60714285714283 232.58928571428575 462.05357142857144 Q 240.17857142857147 462.5 246.42857142857147 462.5 Q 252.67857142857147 462.5 258.4821428571429 462.5 Q 264.28571428571433 462.5 267.41071428571433 462.05357142857144 Q 270.53571428571433 461.60714285714283 274.55357142857144 460.71428571428567 Q 278.57142857142856 459.82142857142856 282.5892857142857 458.48214285714283 Q 286.6071428571429 457.1428571428571 291.0714285714286 456.25 Q 295.53571428571433 455.35714285714283 300.4464285714286 454.46428571428567 Q 305.3571428571429 453.57142857142856 309.8214285714286 452.67857142857144 Q 314.28571428571433 451.7857142857143 319.1964285714286 451.7857142857143 Q 324.1071428571429 451.7857142857143 328.5714285714286 451.33928571428567 Q 333.03571428571433 450.8928571428571 338.3928571428572 450.44642857142856 Q 343.7500000000001 450 349.10714285714295 450 Q 354.4642857142858 450 360.2678571428572 450 Q 366.07142857142867 450 370.98214285714295 450 Q 375.8928571428572 450 377.6785714285715 450 Q 379.4642857142858 450 381.6964285714286 450 Q 383.92857142857144 450 385.7142857142858 450 Q 387.5000000000001 450 388.3928571428572 450 Q 389.28571428571433 450 390.1785714285715 450 Q 391.07142857142867 450 392.4107142857144 450 Q 393.7500000000001 450 395.0892857142858 450 Q 396.42857142857144 450 396.87500000000006 450 Q 397.32142857142867 450 397.7678571428572 450 Q 398.2142857142858 450 398.66071428571433 450 Q 399.1071428571429 450 399.5535714285715 450 Q 400.0000000000001 450 400.0000000000001 449.1071428571429 Q 400.0000000000001 448.2142857142857 400.0000000000001 446.42857142857144 Q 400.0000000000001 444.6428571428571 400.44642857142867 441.96428571428567 Q 400.8928571428572 439.2857142857143 400.8928571428572 436.1607142857143 Q 400.8928571428572 433.0357142857143 400.8928571428572 430.80357142857144 Q 400.8928571428572 428.57142857142856 400.8928571428572 426.33928571428567 Q 400.8928571428572 424.10714285714283 401.3392857142858 422.7678571428571 Q 401.78571428571433 421.42857142857144 402.2321428571429 420.0892857142857 Q 402.67857142857144 418.75 402.67857142857144 418.30357142857144 Q 402.67857142857144 417.85714285714283 403.12500000000006 416.96428571428567 Q 403.57142857142867 416.07142857142856 403.57142857142867 415.17857142857144 Q 403.57142857142867 414.2857142857143 404.0178571428572 412.94642857142856 Q 404.4642857142858 411.60714285714283 404.4642857142858 410.2678571428571 Q 404.4642857142858 408.92857142857144 404.91071428571433 408.0357142857143 Q 405.3571428571429 407.1428571428571 405.8035714285715 405.35714285714283 L 406.2510000000001 403.5704285714286" stroke-linecap="round" />
</g>
<g transform="matrix(1 0 0 1 208.48 187.95)" id="SAP1SsEe0KzCO2HUe4X0H"  >
<path style="stroke: rgb(0,0,0); stroke-width: 1; stroke-dasharray: none; stroke-linecap: round; stroke-dashoffset: 0; stroke-linejoin: round; stroke-miterlimit: 10; fill: none; fill-rule: nonzero; opacity: 1;" vector-effect="non-scaling-stroke"  transform=" translate(-208.48, -187.95)" d="M 193.75000000000003 176.78471428571427 Q 193.75000000000003 176.78571428571428 193.75000000000003 177.23214285714286 Q 193.75000000000003 177.67857142857144 193.75000000000003 178.125 Q 193.75000000000003 178.57142857142856 193.75000000000003 179.91071428571428 Q 193.75000000000003 181.25 194.19642857142858 183.03571428571428 Q 194.64285714285714 184.82142857142856 195.5357142857143 186.60714285714283 Q 196.42857142857147 188.3928571428571 198.21428571428575 191.07142857142856 Q 200.00000000000003 193.75 201.33928571428575 195.53571428571428 Q 202.67857142857147 197.32142857142856 204.46428571428575 199.10714285714283 Q 206.25000000000003 200.8928571428571 208.4821428571429 202.23214285714283 Q 210.71428571428575 203.57142857142856 212.05357142857147 203.57142857142856 Q 213.3928571428572 203.57142857142856 214.28571428571433 203.57142857142856 Q 215.17857142857147 203.57142857142856 216.0714285714286 203.57142857142856 Q 216.96428571428575 203.57142857142856 217.8571428571429 203.57142857142856 Q 218.75000000000003 203.57142857142856 218.75000000000003 202.67857142857142 Q 218.75000000000003 201.78571428571428 219.64285714285717 201.3392857142857 Q 220.5357142857143 200.8928571428571 220.9821428571429 199.99999999999997 Q 221.42857142857147 199.10714285714283 221.87500000000003 198.2142857142857 Q 222.32142857142858 197.32142857142856 222.32142857142858 196.42857142857142 Q 222.32142857142858 195.53571428571428 222.76785714285717 194.19642857142856 Q 223.21428571428575 192.85714285714283 223.21428571428575 191.9642857142857 Q 223.21428571428575 191.07142857142856 223.21428571428575 189.28571428571428 Q 223.21428571428575 187.5 223.21428571428575 185.71428571428572 Q 223.21428571428575 183.92857142857144 223.21428571428575 182.14285714285714 Q 223.21428571428575 180.35714285714283 222.3214285714286 179.01785714285714 Q 221.42857142857147 177.67857142857144 220.53571428571433 176.78571428571428 Q 219.6428571428572 175.8928571428571 218.75000000000003 174.99999999999997 Q 217.85714285714286 174.10714285714283 216.96428571428572 173.2142857142857 Q 216.07142857142858 172.32142857142856 215.17857142857144 172.32142857142856 Q 214.2857142857143 172.32142857142856 213.39285714285717 172.32142857142856 Q 212.50000000000003 172.32142857142856 211.6071428571429 172.32142857142856 Q 210.71428571428575 172.32142857142856 210.26785714285717 172.76785714285714 Q 209.82142857142858 173.21428571428572 209.37500000000003 173.66071428571428 Q 208.92857142857147 174.10714285714283 208.4821428571429 174.99999999999997 L 208.0347142857143 175.89385714285712" stroke-linecap="round" />
</g>
<g transform="matrix(1 0 0 1 241.96 185.71)" id="UmHQE4A2DerrNkRrQ7Md5"  >
<path style="stroke: rgb(0,0,0); stroke-width: 1; stroke-dasharray: none; stroke-linecap: round; stroke-dashoffset: 0; stroke-linejoin: round; stroke-miterlimit: 10; fill: none; fill-rule: nonzero; opacity: 1;" vector-effect="non-scaling-stroke"  transform=" translate(-241.96, -185.71)" d="M 231.24900000000002 188.39385714285712 Q 231.25000000000003 188.3928571428571 231.6964285714286 188.3928571428571 Q 232.1428571428572 188.3928571428571 233.92857142857147 187.49999999999997 Q 235.71428571428575 186.60714285714283 238.39285714285717 185.7142857142857 Q 241.07142857142858 184.82142857142856 244.19642857142858 183.92857142857142 Q 247.32142857142858 183.03571428571428 248.6607142857143 183.03571428571428 Q 250.00000000000003 183.03571428571428 251.33928571428575 183.03571428571428 L 252.67957142857148 183.03571428571428" stroke-linecap="round" />
</g>
<g transform="matrix(1 0 0 1 266.96 191.52)" id="D2Mk2BPWcZRb3EuXMRQ4y"  >
<path style="stroke: rgb(0,0,0); stroke-width: 1; stroke-dasharray: none; stroke-linecap: round; stroke-dashoffset: 0; stroke-linejoin: round; stroke-miterlimit: 10; fill: none; fill-rule: nonzero; opacity: 1;" vector-effect="non-scaling-stroke"  transform=" translate(-266.96, -191.52)" d="M 259.82142857142856 173.21328571428572 Q 259.82142857142856 173.21428571428572 259.82142857142856 173.66071428571428 Q 259.82142857142856 174.10714285714283 259.82142857142856 175.44642857142856 Q 259.82142857142856 176.78571428571428 259.82142857142856 178.57142857142856 Q 259.82142857142856 180.35714285714283 259.375 182.14285714285714 Q 258.92857142857144 183.92857142857144 258.92857142857144 185.71428571428572 Q 258.92857142857144 187.5 258.92857142857144 189.73214285714286 Q 258.92857142857144 191.96428571428572 258.92857142857144 193.75 Q 258.92857142857144 195.53571428571428 258.92857142857144 197.32142857142856 Q 258.92857142857144 199.10714285714283 259.375 200.89285714285714 Q 259.82142857142856 202.67857142857144 260.26785714285717 203.57142857142858 Q 260.7142857142858 204.46428571428572 261.16071428571433 205.35714285714286 Q 261.6071428571429 206.25 262.05357142857144 206.25 Q 262.5 206.25 262.9464285714286 207.14285714285714 Q 263.3928571428572 208.03571428571428 263.8392857142858 208.48214285714286 Q 264.28571428571433 208.92857142857144 265.17857142857144 209.375 Q 266.07142857142856 209.82142857142856 266.9642857142857 209.82142857142856 Q 267.8571428571429 209.82142857142856 269.1964285714286 209.82142857142856 Q 270.53571428571433 209.82142857142856 270.9821428571429 208.48214285714283 Q 271.42857142857144 207.1428571428571 272.3214285714286 206.24999999999997 Q 273.2142857142858 205.35714285714283 273.66071428571433 204.01785714285714 Q 274.1071428571429 202.67857142857144 274.55357142857144 201.33928571428572 Q 275 200 275 198.21428571428572 Q 275 196.42857142857144 275 195.08928571428572 Q 275 193.75 275 192.85714285714286 Q 275 191.96428571428572 275 191.07142857142858 Q 275 190.17857142857144 274.55357142857144 189.28571428571428 Q 274.1071428571429 188.3928571428571 273.66071428571433 187.94642857142856 Q 273.2142857142858 187.5 272.76785714285717 186.60714285714286 Q 272.32142857142856 185.71428571428572 271.42857142857144 185.26785714285714 Q 270.53571428571433 184.82142857142856 269.64285714285717 183.48214285714283 Q 268.75 182.1428571428571 267.4107142857143 181.69642857142856 Q 266.07142857142856 181.25 265.17857142857144 179.91071428571428 Q 264.28571428571433 178.57142857142856 263.39285714285717 178.57142857142856 Q 262.5 178.57142857142856 262.05357142857144 178.125 Q 261.6071428571429 177.67857142857144 260.7142857142857 177.67857142857144 L 259.8204285714286 177.67857142857144" stroke-linecap="round" />
</g>
<g transform="matrix(1 0 0 1 252.68 162.5)" id="daFhnTVQHT3wpq2ULLtWL"  >
<path style="stroke: rgb(0,0,0); stroke-width: 1; stroke-dasharray: none; stroke-linecap: round; stroke-dashoffset: 0; stroke-linejoin: round; stroke-miterlimit: 10; fill: none; fill-rule: nonzero; opacity: 1;" vector-effect="non-scaling-stroke"  transform=" translate(-252.68, -162.5)" d="M 167.85614285714286 168.751 Q 167.85714285714286 168.75 168.30357142857144 168.75 Q 168.75000000000003 168.75 170.08928571428575 168.30357142857142 Q 171.42857142857147 167.85714285714283 173.21428571428575 166.9642857142857 Q 175.00000000000003 166.07142857142856 179.01785714285717 164.73214285714283 Q 183.0357142857143 163.3928571428571 187.05357142857144 162.05357142857142 Q 191.07142857142858 160.71428571428572 195.98214285714286 159.375 Q 200.89285714285714 158.03571428571428 207.14285714285717 157.5892857142857 Q 213.3928571428572 157.1428571428571 220.9821428571429 156.69642857142856 Q 228.57142857142858 156.25 238.39285714285717 156.25 Q 248.21428571428575 156.25 259.37500000000006 156.25 Q 270.53571428571433 156.25 279.91071428571433 157.58928571428572 Q 289.28571428571433 158.92857142857144 297.3214285714286 159.82142857142858 Q 305.3571428571429 160.71428571428572 312.50000000000006 162.05357142857142 Q 319.6428571428572 163.3928571428571 325.00000000000006 164.28571428571428 Q 330.3571428571429 165.17857142857144 333.9285714285715 165.625 L 337.5010000000001 166.07242857142856" stroke-linecap="round" />
</g>
<g transform="matrix(1 0 0 1 238.39 151.71)" id="ji1asjuqbfIEn_pQ0sNcb"  >
<path style="stroke: rgb(0,0,0); stroke-width: 1; stroke-dasharray: none; stroke-linecap: round; stroke-dashoffset: 0; stroke-linejoin: round; stroke-miterlimit: 10; fill: none; fill-rule: nonzero; opacity: 1;" vector-effect="non-scaling-stroke"  transform=" translate(-238.39, -151.71)" d="M 183.92857142857147 151.78471428571427 Q 183.92857142857147 151.78571428571428 183.92857142857147 153.125 Q 183.92857142857147 154.46428571428572 183.92857142857147 156.25 Q 183.92857142857147 158.03571428571428 184.37500000000003 159.375 Q 184.82142857142858 160.71428571428572 185.71428571428572 162.5 Q 186.60714285714286 164.28571428571428 187.05357142857144 165.17857142857142 Q 187.50000000000003 166.07142857142856 187.94642857142858 166.9642857142857 Q 188.39285714285714 167.85714285714283 188.83928571428572 168.30357142857142 Q 189.2857142857143 168.75 189.7321428571429 170.08928571428572 Q 190.17857142857147 171.42857142857144 190.17857142857147 171.875 Q 190.17857142857147 172.32142857142856 190.62500000000003 172.76785714285714 Q 191.07142857142858 173.21428571428572 191.07142857142858 173.66071428571428 Q 191.07142857142858 174.10714285714283 191.07142857142858 173.2142857142857 Q 191.07142857142858 172.32142857142856 191.51785714285717 171.42857142857142 Q 191.96428571428575 170.53571428571428 192.4107142857143 169.64285714285714 Q 192.85714285714286 168.75 193.75 167.41071428571428 Q 194.64285714285714 166.07142857142856 195.98214285714286 164.73214285714283 Q 197.32142857142858 163.3928571428571 199.10714285714286 162.49999999999997 Q 200.89285714285714 161.60714285714283 203.125 160.26785714285714 Q 205.35714285714286 158.92857142857144 207.14285714285717 158.92857142857144 Q 208.92857142857147 158.92857142857144 211.6071428571429 158.92857142857144 Q 214.2857142857143 158.92857142857144 218.75000000000003 158.92857142857144 Q 223.21428571428575 158.92857142857144 226.7857142857143 158.92857142857144 Q 230.35714285714286 158.92857142857144 233.92857142857144 158.92857142857144 Q 237.50000000000003 158.92857142857144 240.17857142857144 159.375 Q 242.85714285714286 159.82142857142856 245.08928571428572 160.26785714285714 Q 247.32142857142858 160.71428571428572 248.6607142857143 161.16071428571428 Q 250.00000000000003 161.60714285714283 250.00000000000003 162.05357142857142 Q 250.00000000000003 162.5 250.4464285714286 163.39285714285714 Q 250.8928571428572 164.28571428571428 250.8928571428572 164.73214285714286 Q 250.8928571428572 165.17857142857144 250.8928571428572 165.625 Q 250.8928571428572 166.07142857142856 250.8928571428572 165.17857142857142 Q 250.8928571428572 164.28571428571428 250.8928571428572 163.39285714285714 Q 250.8928571428572 162.5 250.8928571428572 161.16071428571428 Q 250.8928571428572 159.82142857142856 250.8928571428572 158.92857142857142 Q 250.8928571428572 158.03571428571428 250.8928571428572 157.5892857142857 Q 250.8928571428572 157.1428571428571 251.33928571428575 156.24999999999997 Q 251.7857142857143 155.35714285714283 253.12500000000003 154.4642857142857 Q 254.46428571428575 153.57142857142856 255.8035714285715 152.67857142857142 Q 257.1428571428572 151.78571428571428 258.9285714285715 151.78571428571428 Q 260.7142857142858 151.78571428571428 262.50000000000006 151.78571428571428 Q 264.28571428571433 151.78571428571428 266.0714285714286 151.78571428571428 Q 267.8571428571429 151.78571428571428 269.64285714285717 151.78571428571428 Q 271.42857142857144 151.78571428571428 273.2142857142857 152.23214285714286 Q 275 152.67857142857144 275.89285714285717 153.57142857142858 Q 276.78571428571433 154.46428571428572 277.67857142857144 154.91071428571428 Q 278.57142857142856 155.35714285714283 279.4642857142857 156.24999999999997 Q 280.3571428571429 157.1428571428571 281.25000000000006 157.5892857142857 Q 282.1428571428572 158.03571428571428 282.5892857142858 158.48214285714286 Q 283.03571428571433 158.92857142857144 283.92857142857144 159.375 Q 284.82142857142856 159.82142857142856 285.26785714285717 160.26785714285714 Q 285.7142857142858 160.71428571428572 286.16071428571433 161.60714285714286 Q 286.6071428571429 162.5 286.6071428571429 163.39285714285714 Q 286.6071428571429 164.28571428571428 287.50000000000006 164.73214285714286 Q 288.3928571428572 165.17857142857144 288.8392857142858 166.07142857142858 Q 289.28571428571433 166.96428571428572 289.28571428571433 167.85714285714286 Q 289.28571428571433 168.75 289.7321428571429 169.19642857142856 Q 290.17857142857144 169.6428571428571 290.625 170.0892857142857 Q 291.07142857142856 170.53571428571428 291.51785714285717 170.98214285714286 Q 291.9642857142858 171.42857142857144 292.41071428571433 170.98214285714286 Q 292.8571428571429 170.53571428571428 292.8571428571429 169.64285714285714 Q 292.8571428571429 168.75 293.75000000000006 166.96428571428572 Q 294.6428571428572 165.17857142857144 295.53571428571433 162.94642857142858 Q 296.42857142857144 160.71428571428572 296.42857142857144 158.48214285714286 Q 296.42857142857144 156.25 296.42857142857144 154.46428571428572 Q 296.42857142857144 152.67857142857144 296.42857142857144 151.78571428571428 Q 296.42857142857144 150.8928571428571 296.42857142857144 149.55357142857142 Q 296.42857142857144 148.21428571428572 296.42857142857144 147.76785714285714 Q 296.42857142857144 147.32142857142856 296.42857142857144 146.875 Q 296.42857142857144 146.42857142857144 296.42857142857144 145.53571428571428 Q 296.42857142857144 144.6428571428571 295.53571428571433 143.74999999999997 Q 294.6428571428572 142.85714285714283 294.1964285714286 142.41071428571428 Q 293.75 141.96428571428572 291.51785714285717 141.51785714285714 Q 289.28571428571433 141.07142857142856 286.6071428571429 140.625 Q 283.92857142857144 140.17857142857144 280.3571428571429 139.73214285714286 Q 276.78571428571433 139.28571428571428 271.87500000000006 138.8392857142857 Q 266.9642857142858 138.3928571428571 262.9464285714286 137.49999999999997 Q 258.92857142857144 136.60714285714283 254.91071428571433 135.7142857142857 Q 250.8928571428572 134.82142857142856 247.3214285714286 133.92857142857142 Q 243.75000000000003 133.03571428571428 241.51785714285717 132.14285714285714 Q 239.2857142857143 131.25 237.50000000000003 130.35714285714286 Q 235.71428571428575 129.46428571428572 235.26785714285717 129.46428571428572 Q 234.82142857142858 129.46428571428572 233.92857142857144 129.46428571428572 Q 233.0357142857143 129.46428571428572 232.14285714285717 129.46428571428572 Q 231.25000000000003 129.46428571428572 229.9107142857143 130.80357142857142 Q 228.57142857142858 132.1428571428571 227.2321428571429 133.03571428571428 Q 225.8928571428572 133.92857142857144 225.4464285714286 134.375 Q 225.00000000000003 134.82142857142856 224.55357142857144 135.26785714285714 Q 224.10714285714286 135.71428571428572 223.6607142857143 135.71428571428572 Q 223.21428571428575 135.71428571428572 222.76785714285717 136.60714285714286 Q 222.32142857142858 137.5 222.32142857142858 137.94642857142856 Q 222.32142857142858 138.3928571428571 221.87500000000003 138.8392857142857 Q 221.42857142857147 139.28571428571428 221.42857142857147 140.17857142857142 Q 221.42857142857147 141.07142857142856 221.42857142857147 141.51785714285714 Q 221.42857142857147 141.96428571428572 220.9821428571429 142.41071428571428 Q 220.5357142857143 142.85714285714283 220.08928571428575 142.85714285714283 Q 219.6428571428572 142.85714285714283 218.75000000000003 142.85714285714283 Q 217.85714285714286 142.85714285714283 216.51785714285717 142.85714285714283 Q 215.17857142857147 142.85714285714283 212.9464285714286 141.51785714285714 Q 210.71428571428575 140.17857142857144 208.92857142857147 139.73214285714286 Q 207.1428571428572 139.28571428571428 204.46428571428575 138.8392857142857 Q 201.7857142857143 138.3928571428571 198.6607142857143 138.3928571428571 Q 195.5357142857143 138.3928571428571 193.30357142857144 138.3928571428571 Q 191.07142857142858 138.3928571428571 189.2857142857143 138.3928571428571 Q 187.50000000000003 138.3928571428571 186.1607142857143 138.3928571428571 Q 184.82142857142858 138.3928571428571 184.37500000000003 138.8392857142857 Q 183.92857142857147 139.28571428571428 183.4821428571429 139.73214285714286 Q 183.0357142857143 140.17857142857144 182.14285714285717 141.51785714285714 Q 181.25000000000003 142.85714285714283 181.25000000000003 143.30357142857142 Q 181.25000000000003 143.75 180.80357142857144 145.08928571428572 Q 180.35714285714286 146.42857142857144 180.35714285714286 146.875 Q 180.35714285714286 147.32142857142856 180.35714285714286 147.76785714285714 Q 180.35714285714286 148.21428571428572 180.35714285714286 149.10714285714286 Q 180.35714285714286 150 180.35714285714286 150.89285714285714 Q 180.35714285714286 151.78571428571428 180.35714285714286 152.67857142857142 Q 180.35714285714286 153.57142857142856 180.35714285714286 154.91071428571428 Q 180.35714285714286 156.25 180.35714285714286 157.14285714285714 Q 180.35714285714286 158.03571428571428 180.35714285714286 158.92857142857142 Q 180.35714285714286 159.82142857142856 180.80357142857144 160.26785714285714 Q 181.25000000000003 160.71428571428572 181.25000000000003 161.16071428571428 Q 181.25000000000003 161.60714285714283 181.69642857142858 162.94642857142856 Q 182.14285714285714 164.28571428571428 182.58928571428572 164.28571428571428 Q 183.0357142857143 164.28571428571428 183.4821428571429 165.625 Q 183.92857142857147 166.96428571428572 184.8214285714286 167.41071428571428 L 185.71528571428576 167.85814285714284" stroke-linecap="round" />
</g>
<g transform="matrix(1 0 0 1 238.84 146.88)" id="XtBgkpqOmwxwj-A6p2NaH"  >
<path style="stroke: rgb(0,0,0); stroke-width: 1; stroke-dasharray: none; stroke-linecap: round; stroke-dashoffset: 0; stroke-linejoin: round; stroke-miterlimit: 10; fill: none; fill-rule: nonzero; opacity: 1;" vector-effect="non-scaling-stroke"  transform=" translate(-238.84, -146.88)" d="M 160.71328571428575 169.64385714285712 Q 160.71428571428575 169.6428571428571 161.1607142857143 169.6428571428571 Q 161.60714285714286 169.6428571428571 162.5 168.30357142857142 Q 163.39285714285714 166.96428571428572 165.17857142857144 165.17857142857142 Q 166.96428571428575 163.3928571428571 168.75000000000003 159.82142857142856 Q 170.5357142857143 156.25 172.76785714285717 152.23214285714286 Q 175.00000000000003 148.21428571428572 176.7857142857143 145.08928571428572 Q 178.57142857142858 141.96428571428572 179.9107142857143 139.28571428571428 Q 181.25000000000003 136.60714285714283 183.0357142857143 133.92857142857142 Q 184.82142857142858 131.25 186.1607142857143 129.01785714285714 Q 187.50000000000003 126.78571428571426 188.83928571428575 125.44642857142856 Q 190.17857142857147 124.10714285714285 191.51785714285717 122.76785714285714 Q 192.85714285714286 121.42857142857143 194.19642857142858 120.53571428571428 Q 195.5357142857143 119.64285714285712 197.32142857142858 118.30357142857142 Q 199.10714285714286 116.96428571428571 201.33928571428572 116.07142857142857 Q 203.57142857142858 115.17857142857143 205.3571428571429 113.83928571428571 Q 207.1428571428572 112.49999999999999 209.37500000000003 112.05357142857142 Q 211.60714285714286 111.60714285714285 213.39285714285717 110.7142857142857 Q 215.17857142857147 109.82142857142856 216.96428571428575 109.82142857142856 Q 218.75000000000003 109.82142857142856 221.42857142857144 109.37499999999999 Q 224.10714285714286 108.92857142857142 229.46428571428572 108.92857142857142 Q 234.82142857142858 108.92857142857142 239.7321428571429 108.92857142857142 Q 244.6428571428572 108.92857142857142 249.55357142857147 108.92857142857142 Q 254.46428571428575 108.92857142857142 261.16071428571433 108.92857142857142 Q 267.8571428571429 108.92857142857142 272.3214285714286 109.82142857142856 Q 276.78571428571433 110.71428571428571 279.01785714285717 111.16071428571428 Q 281.25 111.60714285714285 282.14285714285717 112.05357142857142 Q 283.03571428571433 112.49999999999999 283.4821428571429 112.49999999999999 Q 283.92857142857144 112.49999999999999 284.375 113.39285714285712 Q 284.82142857142856 114.28571428571426 285.7142857142857 115.17857142857142 Q 286.6071428571429 116.07142857142857 287.50000000000006 117.41071428571428 Q 288.3928571428572 118.74999999999999 289.7321428571429 119.64285714285712 Q 291.07142857142856 120.53571428571426 291.51785714285717 121.87499999999999 Q 291.9642857142858 123.21428571428571 293.3035714285715 124.55357142857142 Q 294.6428571428572 125.89285714285712 295.9821428571429 126.78571428571428 Q 297.32142857142856 127.67857142857143 298.2142857142857 129.01785714285714 Q 299.1071428571429 130.35714285714283 300.00000000000006 132.14285714285714 Q 300.8928571428572 133.92857142857144 301.78571428571433 134.82142857142858 Q 302.67857142857144 135.71428571428572 303.125 137.05357142857142 Q 303.57142857142856 138.3928571428571 304.4642857142857 139.73214285714283 Q 305.3571428571429 141.07142857142856 305.80357142857144 142.85714285714283 Q 306.25 144.6428571428571 307.5892857142857 146.42857142857142 Q 308.92857142857144 148.21428571428572 309.375 150.44642857142858 Q 309.82142857142856 152.67857142857144 310.26785714285717 154.46428571428572 Q 310.7142857142858 156.25 311.6071428571429 158.48214285714286 Q 312.5 160.71428571428572 312.9464285714286 162.5 Q 313.3928571428572 164.28571428571428 313.8392857142858 165.625 Q 314.28571428571433 166.96428571428572 314.7321428571429 168.75 Q 315.17857142857144 170.53571428571428 315.625 172.32142857142856 Q 316.07142857142856 174.10714285714283 316.07142857142856 175.89285714285714 Q 316.07142857142856 177.67857142857144 316.51785714285717 178.57142857142858 Q 316.9642857142858 179.46428571428572 316.9642857142858 180.80357142857142 Q 316.9642857142858 182.1428571428571 316.9642857142858 183.48214285714283 L 316.9642857142858 184.82242857142856" stroke-linecap="round" />
</g>
</svg>