<?xml version="1.0" encoding="UTF-8" standalone="no" ?>
<!DOCTYPE svg PUBLIC "-//W3C//DTD SVG 1.1//EN" "http://www.w3.org/Graphics/SVG/1.1/DTD/svg11.dtd">
<svg xmlns="http://www.w3.org/2000/svg" xmlns:xlink="http://www.w3.org/1999/xlink" version="1.1" width="48" height="48" viewBox="0 0 500 500" xml:space="preserve">
<desc>Created with Fabric.js 4.6.0</desc>
<defs>
</defs>
<g transform="matrix(1 0 0 1 -47.32 341.96)" id="Vrsb1J2TBxJcYQZFR7Pc0"  >
<path style="stroke: rgb(0,0,0); stroke-width: 1; stroke-dasharray: none; stroke-linecap: round; stroke-dashoffset: 0; stroke-linejoin: round; stroke-miterlimit: 10; fill: none; fill-rule: nonzero; opacity: 1;" vector-effect="non-scaling-stroke"  transform=" translate(47.32, -341.96)" d="M -47.32242857142855 341.9642857142857 L -47.32042857142856 341.9642857142857" stroke-linecap="round" />
</g>
<g transform="matrix(1 0 0 1 -89.29 97.32)" id="Vb1__8aXjPMBDDhne10iO"  >
<path style="stroke: rgb(0,0,0); stroke-width: 1; stroke-dasharray: none; stroke-linecap: round; stroke-dashoffset: 0; stroke-linejoin: round; stroke-miterlimit: 10; fill: none; fill-rule: nonzero; opacity: 1;" vector-effect="non-scaling-stroke"  transform=" translate(89.29, -97.32)" d="M -89.28671428571425 97.32142857142858 L -89.28471428571424 97.32142857142858" stroke-linecap="round" />
</g>
<g transform="matrix(1 0 0 1 178.13 500.74)" id="Ds72vCIBsEYKWUOL7_mGt"  >
<path style="stroke: rgb(0,0,0); stroke-width: 1; stroke-dasharray: none; stroke-linecap: round; stroke-dashoffset: 0; stroke-linejoin: round; stroke-miterlimit: 10; fill: none; fill-rule: nonzero; opacity: 1;" vector-effect="non-scaling-stroke"  transform=" translate(-178.13, -500.74)" d="M 173.21328571428575 495.5347142857144 Q 173.21428571428575 495.5357142857144 175.00000000000003 499.10714285714295 Q 176.7857142857143 502.6785714285715 177.2321428571429 503.5714285714286 Q 177.67857142857147 504.4642857142857 178.5714285714286 505.3571428571429 Q 179.46428571428575 506.25000000000006 181.25000000000003 504.4642857142858 L 183.0367142857143 502.6775714285715" stroke-linecap="round" />
</g>
<g transform="matrix(1 0 0 1 212.05 505.8)" id="NYhQ-B90u_ly6OGZrve3g"  >
<path style="stroke: rgb(0,0,0); stroke-width: 1; stroke-dasharray: none; stroke-linecap: round; stroke-dashoffset: 0; stroke-linejoin: round; stroke-miterlimit: 10; fill: none; fill-rule: nonzero; opacity: 1;" vector-effect="non-scaling-stroke"  transform=" translate(-212.05, -505.8)" d="M 205.35614285714286 501.7847142857144 Q 205.35714285714286 501.7857142857144 207.14285714285717 503.12500000000006 Q 208.92857142857147 504.4642857142857 210.26785714285717 505.80357142857144 Q 211.60714285714286 507.14285714285717 212.50000000000003 508.4821428571429 Q 213.3928571428572 509.8214285714286 214.28571428571433 509.8214285714286 Q 215.17857142857147 509.8214285714286 216.96428571428575 509.37500000000006 L 218.75100000000003 508.9275714285715" stroke-linecap="round" />
</g>
<g transform="matrix(1 0 0 1 154.46 278.57)" id="TiCLYgpNph5CpL3dSUBXh"  >
<path style="stroke: rgb(0,0,0); stroke-width: 1; stroke-dasharray: none; stroke-linecap: round; stroke-dashoffset: 0; stroke-linejoin: round; stroke-miterlimit: 10; fill: none; fill-rule: nonzero; opacity: 1;" vector-effect="non-scaling-stroke"  transform=" translate(-154.46, -278.57)" d="M 191.07142857142838 194.6418571428571 Q 191.07142857142838 194.6428571428571 191.07142857142838 195.0892857142857 Q 191.07142857142838 195.53571428571428 191.07142857142838 196.42857142857142 Q 191.07142857142838 197.32142857142856 191.07142857142838 198.2142857142857 Q 191.07142857142838 199.10714285714283 191.51785714285697 200.44642857142856 Q 191.96428571428555 201.78571428571428 191.96428571428555 203.125 Q 191.96428571428555 204.46428571428572 191.96428571428555 205.35714285714286 Q 191.96428571428555 206.25 191.96428571428555 207.58928571428572 Q 191.96428571428555 208.92857142857144 191.96428571428555 210.26785714285714 Q 191.96428571428555 211.60714285714283 191.96428571428555 212.94642857142856 Q 191.96428571428555 214.28571428571428 191.96428571428555 215.625 Q 191.96428571428555 216.96428571428572 191.96428571428555 217.85714285714286 Q 191.96428571428555 218.75 191.96428571428555 220.08928571428572 Q 191.96428571428555 221.42857142857144 191.96428571428555 221.875 Q 191.96428571428555 222.32142857142856 191.96428571428555 222.76785714285714 Q 191.96428571428555 223.21428571428572 191.51785714285697 224.10714285714286 Q 191.07142857142838 225 190.17857142857125 225.89285714285714 Q 189.2857142857141 226.78571428571428 188.83928571428552 227.23214285714286 Q 188.39285714285694 227.67857142857144 187.94642857142838 229.01785714285714 Q 187.49999999999983 230.35714285714283 186.6071428571427 231.24999999999997 Q 185.71428571428555 232.1428571428571 185.26785714285697 233.03571428571428 Q 184.82142857142838 233.92857142857144 184.37499999999983 234.375 Q 183.92857142857127 234.82142857142856 182.58928571428555 236.16071428571428 Q 181.24999999999983 237.5 180.3571428571427 237.94642857142856 Q 179.46428571428555 238.3928571428571 178.5714285714284 239.73214285714283 Q 177.67857142857127 241.07142857142856 177.67857142857127 241.51785714285714 Q 177.67857142857127 241.96428571428572 177.2321428571427 242.85714285714286 Q 176.7857142857141 243.75 175.89285714285697 244.19642857142856 Q 174.99999999999983 244.6428571428571 174.55357142857125 245.0892857142857 Q 174.10714285714266 245.53571428571428 173.6607142857141 246.42857142857142 Q 173.21428571428555 247.32142857142856 172.76785714285697 247.76785714285714 Q 172.32142857142838 248.21428571428572 171.87499999999983 248.21428571428572 Q 171.42857142857127 248.21428571428572 170.9821428571427 248.66071428571428 Q 170.5357142857141 249.10714285714283 170.08928571428552 249.99999999999997 Q 169.64285714285694 250.8928571428571 168.30357142857125 251.3392857142857 Q 166.96428571428555 251.78571428571428 166.51785714285697 251.78571428571428 Q 166.07142857142838 251.78571428571428 165.17857142857125 252.23214285714283 Q 164.2857142857141 252.6785714285714 163.39285714285697 253.12499999999997 Q 162.49999999999983 253.57142857142856 162.05357142857125 254.4642857142857 Q 161.60714285714266 255.35714285714283 160.71428571428552 255.35714285714283 Q 159.82142857142838 255.35714285714283 158.92857142857125 255.80357142857142 Q 158.0357142857141 256.25 157.58928571428552 256.69642857142856 Q 157.14285714285694 257.1428571428571 156.69642857142838 257.58928571428567 Q 156.24999999999983 258.0357142857143 155.3571428571427 258.92857142857144 Q 154.46428571428555 259.82142857142856 153.5714285714284 260.2678571428571 Q 152.67857142857127 260.7142857142857 152.2321428571427 262.05357142857144 Q 151.7857142857141 263.3928571428571 150.44642857142838 264.2857142857142 Q 149.10714285714266 265.1785714285714 148.6607142857141 266.07142857142856 Q 148.21428571428555 266.9642857142857 146.87499999999983 268.75 Q 145.5357142857141 270.5357142857143 143.74999999999983 272.32142857142856 Q 141.96428571428555 274.10714285714283 141.51785714285697 275.44642857142856 Q 141.07142857142838 276.7857142857143 139.73214285714266 278.57142857142856 Q 138.39285714285694 280.35714285714283 137.4999999999998 281.25 Q 136.60714285714266 282.1428571428571 136.1607142857141 283.0357142857142 Q 135.71428571428555 283.9285714285714 134.8214285714284 285.2678571428571 Q 133.92857142857127 286.60714285714283 133.0357142857141 288.3928571428571 Q 132.14285714285694 290.1785714285714 131.2499999999998 291.5178571428571 Q 130.35714285714266 292.85714285714283 129.9107142857141 294.19642857142856 Q 129.46428571428555 295.5357142857143 129.01785714285697 297.32142857142856 Q 128.57142857142838 299.10714285714283 128.12499999999983 300.44642857142856 Q 127.67857142857127 301.7857142857143 126.7857142857141 303.125 Q 125.89285714285694 304.4642857142857 125.89285714285694 305.80357142857144 Q 125.89285714285694 307.1428571428571 125.44642857142838 308.48214285714283 Q 124.99999999999983 309.82142857142856 124.55357142857125 311.1607142857143 Q 124.10714285714266 312.5 124.10714285714266 313.83928571428567 Q 124.10714285714266 315.1785714285714 123.6607142857141 316.07142857142856 Q 123.21428571428555 316.9642857142857 122.76785714285697 318.30357142857144 Q 122.32142857142838 319.6428571428571 121.87499999999983 321.42857142857144 Q 121.42857142857127 323.2142857142857 121.42857142857127 324.1071428571429 Q 121.42857142857127 325 120.98214285714269 326.33928571428567 Q 120.5357142857141 327.6785714285714 120.5357142857141 328.57142857142856 Q 120.5357142857141 329.4642857142857 120.08928571428552 330.80357142857144 Q 119.64285714285694 332.1428571428571 119.64285714285694 333.0357142857142 Q 119.64285714285694 333.9285714285714 119.64285714285694 335.2678571428571 Q 119.64285714285694 336.60714285714283 119.64285714285694 337.94642857142856 Q 119.64285714285694 339.2857142857143 119.19642857142838 341.07142857142856 Q 118.74999999999983 342.85714285714283 118.74999999999983 344.19642857142856 Q 118.74999999999983 345.5357142857143 118.30357142857125 346.875 Q 117.85714285714266 348.2142857142857 117.85714285714266 349.1071428571429 Q 117.85714285714266 350 117.85714285714266 350.44642857142856 Q 117.85714285714266 350.8928571428571 117.85714285714266 351.7857142857142 Q 117.85714285714266 352.6785714285714 117.85714285714266 353.125 Q 117.85714285714266 353.57142857142856 117.4107142857141 354.0178571428571 Q 116.96428571428555 354.4642857142857 116.96428571428555 355.3571428571429 Q 116.96428571428555 356.25 116.96428571428555 357.1428571428571 Q 116.96428571428555 358.0357142857143 116.96428571428555 358.48214285714283 Q 116.96428571428555 358.9285714285714 116.96428571428555 359.375 Q 116.96428571428555 359.82142857142856 116.96428571428555 361.1607142857143 L 116.96428571428555 362.501" stroke-linecap="round" />
</g>
<g transform="matrix(1 0 0 1 229.02 372.32)" id="uQ1pzsk3bkZXZpJJhDbBk"  >
<path style="stroke: rgb(0,0,0); stroke-width: 1; stroke-dasharray: none; stroke-linecap: round; stroke-dashoffset: 0; stroke-linejoin: round; stroke-miterlimit: 10; fill: none; fill-rule: nonzero; opacity: 1;" vector-effect="non-scaling-stroke"  transform=" translate(-229.02, -372.32)" d="M 119.64185714285694 368.751 Q 119.64285714285694 368.75 120.5357142857141 368.75 Q 121.42857142857127 368.75 122.32142857142841 368.30357142857144 Q 123.21428571428555 367.85714285714283 124.55357142857125 367.4107142857143 Q 125.89285714285694 366.9642857142857 127.67857142857125 366.9642857142857 Q 129.46428571428555 366.9642857142857 130.80357142857125 366.9642857142857 Q 132.14285714285694 366.9642857142857 133.92857142857125 366.9642857142857 Q 135.71428571428555 366.9642857142857 137.9464285714284 366.9642857142857 Q 140.17857142857127 366.9642857142857 141.96428571428555 366.9642857142857 Q 143.74999999999983 366.9642857142857 145.9821428571427 366.9642857142857 Q 148.21428571428555 366.9642857142857 150.89285714285697 366.9642857142857 Q 153.57142857142838 366.9642857142857 155.80357142857125 366.9642857142857 Q 158.0357142857141 366.9642857142857 160.71428571428552 367.4107142857143 Q 163.39285714285694 367.85714285714283 166.07142857142838 368.30357142857144 Q 168.74999999999983 368.75 171.87499999999983 368.75 Q 174.99999999999983 368.75 178.12499999999983 369.19642857142856 Q 181.24999999999983 369.6428571428571 183.92857142857125 370.08928571428567 Q 186.60714285714266 370.5357142857143 190.62499999999977 370.9821428571429 Q 194.6428571428569 371.42857142857144 204.01785714285694 372.32142857142856 Q 213.39285714285697 373.2142857142857 214.73214285714266 373.2142857142857 Q 216.07142857142836 373.2142857142857 238.8392857142855 373.2142857142857 Q 261.60714285714266 373.2142857142857 262.9464285714284 373.2142857142857 Q 264.2857142857141 373.2142857142857 266.0714285714284 373.2142857142857 Q 267.85714285714266 373.2142857142857 270.5357142857141 373.6607142857143 Q 273.21428571428555 374.10714285714283 276.33928571428555 374.55357142857144 Q 279.46428571428555 375 283.0357142857141 375 Q 286.60714285714266 375 289.2857142857141 375 Q 291.96428571428555 375 295.98214285714266 375.44642857142856 Q 299.9999999999998 375.8928571428571 302.6785714285712 375.8928571428571 Q 305.35714285714266 375.8928571428571 308.48214285714266 375.8928571428571 Q 311.60714285714266 375.8928571428571 315.1785714285712 376.33928571428567 Q 318.7499999999998 376.7857142857143 321.8749999999998 376.7857142857143 Q 324.9999999999998 376.7857142857143 327.23214285714266 377.2321428571429 Q 329.46428571428555 377.67857142857144 330.8035714285713 377.67857142857144 Q 332.142857142857 377.67857142857144 332.58928571428555 377.67857142857144 Q 333.0357142857141 377.67857142857144 333.48214285714266 377.67857142857144 Q 333.9285714285712 377.67857142857144 334.3749999999998 377.67857142857144 Q 334.8214285714283 377.67857142857144 335.7142857142855 377.67857142857144 Q 336.60714285714266 377.67857142857144 337.49999999999983 377.67857142857144 L 338.393857142857 377.67857142857144" stroke-linecap="round" />
</g>
<g transform="matrix(1 0 0 1 317.86 284.82)" id="_xNdehBEhQVn_7pAYV0DH"  >
<path style="stroke: rgb(0,0,0); stroke-width: 1; stroke-dasharray: none; stroke-linecap: round; stroke-dashoffset: 0; stroke-linejoin: round; stroke-miterlimit: 10; fill: none; fill-rule: nonzero; opacity: 1;" vector-effect="non-scaling-stroke"  transform=" translate(-317.86, -284.82)" d="M 278.5714285714283 191.96328571428572 Q 278.5714285714283 191.96428571428572 278.5714285714283 192.41071428571428 Q 278.5714285714283 192.85714285714283 278.5714285714283 193.30357142857142 Q 278.5714285714283 193.75 278.5714285714283 195.08928571428572 Q 278.5714285714283 196.42857142857144 278.1249999999998 197.76785714285714 Q 277.6785714285712 199.10714285714283 277.6785714285712 200.89285714285714 Q 277.6785714285712 202.67857142857144 277.6785714285712 204.01785714285714 Q 277.6785714285712 205.35714285714283 277.6785714285712 206.69642857142856 Q 277.6785714285712 208.03571428571428 277.6785714285712 209.82142857142856 Q 277.6785714285712 211.60714285714283 277.6785714285712 213.39285714285714 Q 277.6785714285712 215.17857142857144 277.6785714285712 216.07142857142858 Q 277.6785714285712 216.96428571428572 277.6785714285712 217.85714285714286 Q 277.6785714285712 218.75 277.6785714285712 219.64285714285714 Q 277.6785714285712 220.53571428571428 277.6785714285712 221.42857142857142 Q 277.6785714285712 222.32142857142856 277.6785714285712 223.2142857142857 Q 277.6785714285712 224.10714285714283 278.5714285714283 225.44642857142856 Q 279.4642857142855 226.78571428571428 279.4642857142855 227.67857142857142 Q 279.4642857142855 228.57142857142856 279.91071428571405 229.91071428571428 Q 280.3571428571426 231.25 280.8035714285712 232.58928571428572 Q 281.2499999999998 233.92857142857144 282.1428571428569 234.82142857142858 Q 283.03571428571405 235.71428571428572 283.9285714285712 237.05357142857142 Q 284.8214285714283 238.3928571428571 286.60714285714266 240.17857142857142 Q 288.39285714285694 241.96428571428572 289.2857142857141 243.30357142857142 Q 290.1785714285712 244.6428571428571 291.0714285714283 245.53571428571425 Q 291.9642857142855 246.4285714285714 293.3035714285712 247.7678571428571 Q 294.64285714285694 249.10714285714283 295.98214285714266 250.44642857142856 Q 297.3214285714283 251.78571428571428 299.10714285714266 252.67857142857142 Q 300.89285714285694 253.57142857142856 303.1249999999998 254.91071428571428 Q 305.3571428571426 256.25 306.6964285714283 256.69642857142856 Q 308.03571428571405 257.1428571428571 308.9285714285712 257.58928571428567 Q 309.8214285714283 258.0357142857143 311.16071428571405 258.92857142857144 Q 312.4999999999998 259.82142857142856 313.8392857142855 260.71428571428567 Q 315.1785714285712 261.60714285714283 316.0714285714283 262.5 Q 316.9642857142855 263.3928571428571 317.85714285714266 263.83928571428567 Q 318.7499999999998 264.2857142857143 319.6428571428569 264.73214285714283 Q 320.53571428571405 265.1785714285714 320.98214285714266 265.625 Q 321.4285714285712 266.07142857142856 322.3214285714283 266.5178571428571 Q 323.2142857142855 266.9642857142857 323.66071428571405 267.4107142857143 Q 324.1071428571426 267.85714285714283 324.5535714285712 268.75 Q 324.9999999999998 269.6428571428571 325.4464285714283 270.5357142857142 Q 325.89285714285694 271.4285714285714 326.3392857142855 272.32142857142856 Q 326.78571428571405 273.2142857142857 327.6785714285712 274.55357142857144 Q 328.5714285714283 275.8928571428571 329.0178571428569 277.67857142857144 Q 329.4642857142855 279.4642857142857 330.35714285714266 280.80357142857144 Q 331.2499999999998 282.1428571428571 332.1428571428569 283.48214285714283 Q 333.03571428571405 284.82142857142856 333.48214285714266 286.1607142857143 Q 333.9285714285712 287.5 334.8214285714283 288.3928571428571 Q 335.7142857142855 289.2857142857143 336.16071428571405 290.625 Q 336.6071428571426 291.9642857142857 337.4999999999998 292.8571428571429 Q 338.39285714285694 293.75 338.8392857142855 294.6428571428571 Q 339.28571428571405 295.5357142857143 340.1785714285712 296.875 Q 341.0714285714284 298.2142857142857 341.9642857142855 299.55357142857144 Q 342.8571428571426 300.8928571428571 343.3035714285712 301.7857142857142 Q 343.74999999999983 302.6785714285714 343.74999999999983 303.57142857142856 Q 343.74999999999983 304.4642857142857 344.64285714285694 305.80357142857144 Q 345.53571428571405 307.1428571428571 345.9821428571426 309.375 Q 346.42857142857116 311.60714285714283 346.8749999999998 313.3928571428571 Q 347.3214285714284 315.1785714285714 347.76785714285694 316.96428571428567 Q 348.2142857142855 318.75 348.66071428571405 320.5357142857143 Q 349.1071428571426 322.32142857142856 349.5535714285712 324.55357142857144 Q 349.99999999999983 326.7857142857143 350.4464285714284 328.57142857142856 Q 350.89285714285694 330.35714285714283 350.89285714285694 332.58928571428567 Q 350.89285714285694 334.82142857142856 351.78571428571405 336.60714285714283 Q 352.67857142857116 338.3928571428571 353.1249999999998 340.17857142857144 Q 353.5714285714284 341.9642857142857 353.5714285714284 343.30357142857144 Q 353.5714285714284 344.6428571428571 354.01785714285694 346.42857142857144 Q 354.4642857142855 348.2142857142857 354.4642857142855 350 Q 354.4642857142855 351.7857142857143 355.35714285714266 352.67857142857144 Q 356.24999999999983 353.57142857142856 356.24999999999983 354.46428571428567 Q 356.24999999999983 355.35714285714283 356.24999999999983 355.80357142857144 Q 356.24999999999983 356.25 356.6964285714284 357.58928571428567 Q 357.14285714285694 358.9285714285714 357.14285714285694 359.82142857142856 Q 357.14285714285694 360.7142857142857 357.14285714285694 361.6071428571429 Q 357.14285714285694 362.5 357.5892857142855 363.3928571428571 Q 358.03571428571405 364.2857142857143 358.03571428571405 364.7321428571429 Q 358.03571428571405 365.17857142857144 358.03571428571405 366.07142857142856 Q 358.03571428571405 366.9642857142857 358.03571428571405 367.8571428571429 Q 358.03571428571405 368.75 358.03571428571405 369.6428571428571 Q 358.03571428571405 370.5357142857143 358.03571428571405 370.9821428571429 Q 358.03571428571405 371.42857142857144 358.03571428571405 372.32142857142856 Q 358.03571428571405 373.2142857142857 358.03571428571405 373.6607142857143 Q 358.03571428571405 374.10714285714283 358.03571428571405 375.44642857142856 Q 358.03571428571405 376.7857142857143 358.03571428571405 377.2321428571429 Q 358.03571428571405 377.67857142857144 357.5892857142855 377.67857142857144 Q 357.14285714285694 377.67857142857144 356.6964285714284 377.67857142857144 Q 356.24999999999983 377.67857142857144 355.35714285714266 377.67857142857144 Q 354.4642857142855 377.67857142857144 352.6785714285712 377.67857142857144 Q 350.89285714285694 377.67857142857144 349.10714285714266 377.67857142857144 Q 347.3214285714284 377.67857142857144 345.5357142857141 377.67857142857144 Q 343.74999999999983 377.67857142857144 341.51785714285694 377.2321428571429 Q 339.28571428571405 376.7857142857143 337.9464285714283 376.7857142857143 Q 336.6071428571426 376.7857142857143 335.2678571428569 376.33928571428567 Q 333.9285714285712 375.8928571428571 333.0357142857141 375.8928571428571 L 332.14185714285696 375.8928571428571" stroke-linecap="round" />
</g>
<g transform="matrix(1 0 0 1 231.25 175.89)" id="xRPXSGB9OQRZStcD3oWzK"  >
<path style="stroke: rgb(0,0,0); stroke-width: 1; stroke-dasharray: none; stroke-linecap: round; stroke-dashoffset: 0; stroke-linejoin: round; stroke-miterlimit: 10; fill: none; fill-rule: nonzero; opacity: 1;" vector-effect="non-scaling-stroke"  transform=" translate(-231.25, -175.89)" d="M 190.1795714285712 187.5 Q 190.1785714285712 187.5 189.7321428571426 187.94642857142856 Q 189.28571428571402 188.3928571428571 187.9464285714283 188.3928571428571 Q 186.60714285714258 188.3928571428571 185.26785714285688 188.3928571428571 Q 183.9285714285712 188.3928571428571 183.03571428571402 188.3928571428571 Q 182.14285714285685 188.3928571428571 180.80357142857116 188.3928571428571 Q 179.46428571428547 188.3928571428571 179.01785714285688 188.3928571428571 Q 178.5714285714283 188.3928571428571 177.67857142857116 188.3928571428571 Q 176.78571428571402 188.3928571428571 176.33928571428544 187.94642857142856 Q 175.89285714285685 187.5 175.4464285714283 187.05357142857142 Q 174.99999999999974 186.60714285714283 173.66071428571402 186.16071428571428 Q 172.3214285714283 185.71428571428572 171.87499999999974 185.26785714285714 Q 171.4285714285712 184.82142857142856 170.9821428571426 184.375 Q 170.53571428571402 183.92857142857144 169.64285714285688 183.48214285714286 Q 168.74999999999974 183.03571428571428 168.30357142857116 182.5892857142857 Q 167.85714285714258 182.1428571428571 167.85714285714258 181.69642857142856 Q 167.85714285714258 181.25 167.41071428571402 180.80357142857142 Q 166.96428571428547 180.35714285714283 166.96428571428547 179.4642857142857 Q 166.96428571428547 178.57142857142856 166.96428571428547 177.67857142857142 Q 166.96428571428547 176.78571428571428 166.96428571428547 175.89285714285714 Q 166.96428571428547 175 166.96428571428547 174.55357142857142 Q 166.96428571428547 174.10714285714283 167.41071428571402 172.76785714285714 Q 167.85714285714258 171.42857142857144 167.85714285714258 170.98214285714286 Q 167.85714285714258 170.53571428571428 169.1964285714283 170.0892857142857 Q 170.53571428571402 169.6428571428571 171.42857142857116 169.19642857142856 Q 172.3214285714283 168.75 174.10714285714258 167.85714285714286 Q 175.89285714285685 166.96428571428572 177.67857142857116 166.96428571428572 Q 179.46428571428547 166.96428571428572 181.69642857142833 166.07142857142858 Q 183.9285714285712 165.17857142857144 186.16071428571402 165.17857142857144 Q 188.39285714285685 165.17857142857144 190.62499999999972 164.73214285714286 Q 192.85714285714258 164.28571428571428 194.64285714285688 163.8392857142857 Q 196.4285714285712 163.3928571428571 198.66071428571402 163.3928571428571 Q 200.89285714285685 163.3928571428571 202.67857142857116 163.3928571428571 Q 204.46428571428547 163.3928571428571 206.24999999999974 163.3928571428571 Q 208.03571428571402 163.3928571428571 209.37499999999974 162.94642857142856 Q 210.71428571428547 162.5 212.49999999999974 162.05357142857142 Q 214.28571428571402 161.60714285714283 216.0714285714283 161.60714285714283 Q 217.85714285714258 161.60714285714283 219.64285714285688 161.60714285714283 Q 221.4285714285712 161.60714285714283 223.21428571428547 161.60714285714283 Q 224.99999999999974 161.60714285714283 226.33928571428547 161.60714285714283 Q 227.6785714285712 161.60714285714283 229.46428571428547 161.60714285714283 Q 231.24999999999974 161.60714285714283 233.92857142857116 161.60714285714283 Q 236.60714285714258 161.60714285714283 238.39285714285688 161.60714285714283 Q 240.1785714285712 161.60714285714283 242.8571428571426 161.60714285714283 Q 245.53571428571402 161.60714285714283 247.3214285714283 162.05357142857142 Q 249.10714285714258 162.5 251.33928571428544 162.5 Q 253.5714285714283 162.5 255.80357142857116 162.5 Q 258.035714285714 162.5 259.82142857142827 162.5 Q 261.60714285714255 162.5 263.3928571428569 162.5 Q 265.1785714285712 162.5 266.5178571428569 162.94642857142856 Q 267.85714285714255 163.3928571428571 269.6428571428569 163.8392857142857 Q 271.4285714285712 164.28571428571428 272.7678571428569 164.28571428571428 Q 274.10714285714255 164.28571428571428 275.44642857142827 165.17857142857142 Q 276.785714285714 166.07142857142856 277.67857142857116 166.07142857142856 Q 278.5714285714283 166.07142857142856 279.91071428571405 166.07142857142856 Q 281.2499999999998 166.07142857142856 282.5892857142855 166.51785714285714 Q 283.9285714285712 166.96428571428572 284.8214285714283 167.41071428571428 Q 285.71428571428544 167.85714285714283 287.05357142857116 168.30357142857142 Q 288.3928571428569 168.75 289.28571428571405 169.19642857142856 Q 290.1785714285712 169.6428571428571 291.0714285714283 170.0892857142857 Q 291.96428571428544 170.53571428571428 292.410714285714 170.98214285714286 Q 292.85714285714255 171.42857142857144 293.30357142857116 172.32142857142858 Q 293.7499999999998 173.21428571428572 294.1964285714283 173.21428571428572 Q 294.6428571428569 173.21428571428572 294.6428571428569 173.66071428571428 Q 294.6428571428569 174.10714285714283 294.6428571428569 174.55357142857142 Q 294.6428571428569 175 295.08928571428544 175.89285714285714 Q 295.535714285714 176.78571428571428 295.535714285714 177.67857142857142 Q 295.535714285714 178.57142857142856 295.535714285714 179.01785714285714 Q 295.535714285714 179.46428571428572 295.535714285714 180.35714285714286 Q 295.535714285714 181.25 295.535714285714 181.69642857142856 Q 295.535714285714 182.1428571428571 295.535714285714 182.5892857142857 Q 295.535714285714 183.03571428571428 295.08928571428544 183.48214285714286 Q 294.6428571428569 183.92857142857144 294.1964285714283 184.82142857142858 Q 293.7499999999998 185.71428571428572 292.41071428571405 186.16071428571428 Q 291.0714285714283 186.60714285714283 289.7321428571426 187.05357142857142 Q 288.3928571428569 187.5 287.05357142857116 188.39285714285714 Q 285.71428571428544 189.28571428571428 284.3749999999997 189.28571428571428 Q 283.035714285714 189.28571428571428 281.2499999999997 189.73214285714286 Q 279.46428571428544 190.17857142857144 277.67857142857116 190.17857142857144 L 275.8918571428569 190.17857142857144" stroke-linecap="round" />
</g>
<g transform="matrix(1 0 0 1 237.95 285.71)" id="s21qeZGZLlBC1oOdvhelG"  >
<path style="stroke: rgb(0,0,0); stroke-width: 1; stroke-dasharray: none; stroke-linecap: round; stroke-dashoffset: 0; stroke-linejoin: round; stroke-miterlimit: 10; fill: none; fill-rule: nonzero; opacity: 1;" vector-effect="non-scaling-stroke"  transform=" translate(-237.95, -285.71)" d="M 220.536714285714 236.60714285714283 Q 220.535714285714 236.60714285714283 220.08928571428544 236.60714285714283 Q 219.64285714285688 236.60714285714283 218.74999999999972 236.60714285714283 Q 217.85714285714255 236.60714285714283 216.9642857142854 236.60714285714283 Q 216.07142857142827 236.60714285714283 215.17857142857113 236.60714285714283 Q 214.285714285714 236.60714285714283 213.83928571428544 236.60714285714283 Q 213.39285714285688 236.60714285714283 212.49999999999972 236.60714285714283 Q 211.60714285714255 236.60714285714283 210.7142857142854 236.60714285714283 Q 209.82142857142827 236.60714285714283 208.035714285714 236.60714285714283 Q 206.24999999999972 236.60714285714283 204.910714285714 237.05357142857142 Q 203.57142857142827 237.5 202.23214285714255 237.94642857142856 Q 200.89285714285683 238.3928571428571 199.9999999999997 239.28571428571425 Q 199.10714285714255 240.1785714285714 198.2142857142854 240.62499999999997 Q 197.32142857142827 241.07142857142856 196.87499999999972 241.51785714285714 Q 196.42857142857116 241.96428571428572 195.98214285714258 242.85714285714286 Q 195.535714285714 243.75 194.64285714285685 244.19642857142856 Q 193.74999999999972 244.6428571428571 193.30357142857113 244.6428571428571 Q 192.85714285714255 244.6428571428571 192.410714285714 245.0892857142857 Q 191.96428571428544 245.53571428571428 191.96428571428544 245.98214285714283 Q 191.96428571428544 246.4285714285714 191.0714285714283 246.87499999999997 Q 190.17857142857116 247.32142857142856 189.73214285714258 247.76785714285714 Q 189.285714285714 248.21428571428572 188.8392857142854 248.66071428571428 Q 188.39285714285683 249.10714285714283 187.94642857142827 249.99999999999997 Q 187.49999999999972 250.8928571428571 186.60714285714258 251.78571428571425 Q 185.71428571428544 252.6785714285714 185.26785714285685 253.57142857142856 Q 184.82142857142827 254.46428571428572 183.92857142857113 255.35714285714286 Q 183.035714285714 256.25 182.14285714285685 257.1428571428571 Q 181.24999999999972 258.0357142857143 181.24999999999972 258.92857142857144 Q 181.24999999999972 259.82142857142856 180.80357142857113 261.1607142857143 Q 180.35714285714255 262.5 179.4642857142854 262.94642857142856 Q 178.57142857142827 263.3928571428571 178.12499999999972 264.73214285714283 Q 177.67857142857116 266.07142857142856 177.67857142857116 266.96428571428567 Q 177.67857142857116 267.85714285714283 177.23214285714258 269.19642857142856 Q 176.785714285714 270.5357142857143 176.3392857142854 271.42857142857144 Q 175.89285714285683 272.32142857142856 175.44642857142827 273.6607142857143 Q 174.99999999999972 275 174.55357142857113 276.33928571428567 Q 174.10714285714255 277.6785714285714 174.10714285714255 279.0178571428571 Q 174.10714285714255 280.35714285714283 174.10714285714255 282.1428571428571 Q 174.10714285714255 283.9285714285714 174.10714285714255 285.2678571428571 Q 174.10714285714255 286.60714285714283 174.10714285714255 287.94642857142856 Q 174.10714285714255 289.2857142857143 174.10714285714255 290.625 Q 174.10714285714255 291.9642857142857 174.10714285714255 292.8571428571429 Q 174.10714285714255 293.75 174.10714285714255 295.08928571428567 Q 174.10714285714255 296.4285714285714 174.10714285714255 297.7678571428571 Q 174.10714285714255 299.10714285714283 174.10714285714255 300 Q 174.10714285714255 300.8928571428571 174.10714285714255 302.23214285714283 Q 174.10714285714255 303.57142857142856 174.10714285714255 304.46428571428567 Q 174.10714285714255 305.35714285714283 174.10714285714255 306.69642857142856 Q 174.10714285714255 308.0357142857143 174.10714285714255 308.92857142857144 Q 174.10714285714255 309.82142857142856 174.9999999999997 310.71428571428567 Q 175.89285714285683 311.60714285714283 175.89285714285683 312.94642857142856 Q 175.89285714285683 314.2857142857143 176.3392857142854 314.73214285714283 Q 176.785714285714 315.1785714285714 177.23214285714258 316.5178571428571 Q 177.67857142857116 317.85714285714283 178.5714285714283 318.75 Q 179.46428571428544 319.6428571428571 179.910714285714 320.98214285714283 Q 180.35714285714255 322.32142857142856 181.69642857142827 323.6607142857143 Q 183.035714285714 325 183.92857142857113 325.44642857142856 Q 184.82142857142827 325.8928571428571 186.160714285714 327.23214285714283 Q 187.49999999999972 328.57142857142856 187.94642857142827 329.0178571428571 Q 188.39285714285683 329.4642857142857 189.285714285714 329.9107142857143 Q 190.17857142857116 330.35714285714283 191.0714285714283 330.80357142857144 Q 191.96428571428544 331.25 192.85714285714258 331.69642857142856 Q 193.74999999999972 332.1428571428571 194.64285714285685 332.58928571428567 Q 195.535714285714 333.0357142857143 196.87499999999972 333.48214285714283 Q 198.21428571428544 333.9285714285714 199.10714285714258 334.82142857142856 Q 199.99999999999972 335.7142857142857 200.89285714285685 336.1607142857143 Q 201.785714285714 336.60714285714283 203.57142857142827 337.05357142857144 Q 205.35714285714255 337.5 206.24999999999972 338.3928571428571 Q 207.14285714285688 339.2857142857143 208.48214285714258 339.73214285714283 Q 209.82142857142827 340.1785714285714 210.7142857142854 340.625 Q 211.60714285714255 341.07142857142856 212.94642857142827 341.5178571428571 Q 214.285714285714 341.9642857142857 215.17857142857113 342.4107142857143 Q 216.07142857142827 342.85714285714283 217.410714285714 343.30357142857144 Q 218.74999999999972 343.75 220.535714285714 344.19642857142856 Q 222.32142857142827 344.6428571428571 224.55357142857113 345.5357142857142 Q 226.785714285714 346.4285714285714 229.01785714285685 346.875 Q 231.24999999999972 347.32142857142856 233.48214285714258 347.32142857142856 Q 235.71428571428544 347.32142857142856 238.39285714285685 347.7678571428571 Q 241.07142857142827 348.2142857142857 243.30357142857113 348.2142857142857 Q 245.535714285714 348.2142857142857 247.32142857142827 348.2142857142857 Q 249.10714285714255 348.2142857142857 249.99999999999972 348.2142857142857 Q 250.89285714285688 348.2142857142857 251.78571428571402 348.2142857142857 Q 252.67857142857116 348.2142857142857 254.01785714285685 348.2142857142857 Q 255.35714285714255 348.2142857142857 256.2499999999997 348.2142857142857 Q 257.1428571428569 348.2142857142857 258.035714285714 348.2142857142857 Q 258.92857142857116 348.2142857142857 259.3749999999997 348.2142857142857 Q 259.82142857142827 348.2142857142857 261.160714285714 347.32142857142856 Q 262.4999999999997 346.4285714285714 262.9464285714283 345.5357142857142 Q 263.3928571428569 344.6428571428571 264.285714285714 344.6428571428571 Q 265.17857142857116 344.6428571428571 266.0714285714283 343.75 Q 266.96428571428544 342.85714285714283 267.85714285714255 341.96428571428567 Q 268.7499999999997 341.07142857142856 269.6428571428569 339.73214285714283 Q 270.535714285714 338.3928571428571 271.8749999999997 337.94642857142856 Q 273.21428571428544 337.5 273.660714285714 336.6071428571429 Q 274.10714285714255 335.7142857142857 274.9999999999997 334.82142857142856 Q 275.8928571428569 333.9285714285714 276.785714285714 333.48214285714283 Q 277.67857142857116 333.0357142857143 278.5714285714283 332.1428571428571 Q 279.46428571428544 331.25 279.910714285714 330.3571428571429 Q 280.35714285714255 329.4642857142857 281.2499999999997 328.125 Q 282.1428571428569 326.7857142857143 282.58928571428544 326.33928571428567 Q 283.035714285714 325.8928571428571 284.3749999999997 324.55357142857144 Q 285.71428571428544 323.2142857142857 286.160714285714 321.875 Q 286.60714285714255 320.5357142857143 287.4999999999997 319.6428571428571 Q 288.3928571428569 318.75 288.83928571428544 317.4107142857143 Q 289.285714285714 316.07142857142856 289.73214285714255 315.17857142857144 Q 290.17857142857116 314.2857142857143 291.0714285714283 312.5 Q 291.96428571428544 310.7142857142857 292.85714285714255 309.375 Q 293.7499999999997 308.0357142857143 294.1964285714283 306.69642857142856 Q 294.6428571428569 305.35714285714283 295.08928571428544 304.0178571428571 Q 295.535714285714 302.6785714285714 296.4285714285711 300.8928571428571 Q 297.32142857142827 299.10714285714283 297.7678571428569 297.32142857142856 Q 298.21428571428544 295.5357142857143 299.10714285714255 294.19642857142856 Q 299.9999999999997 292.85714285714283 300.4464285714283 291.07142857142856 Q 300.8928571428569 289.2857142857143 300.8928571428569 287.94642857142856 Q 300.8928571428569 286.60714285714283 300.8928571428569 285.71428571428567 Q 300.8928571428569 284.82142857142856 300.8928571428569 283.48214285714283 Q 300.8928571428569 282.1428571428571 300.8928571428569 281.69642857142856 Q 300.8928571428569 281.25 301.33928571428544 279.9107142857143 Q 301.785714285714 278.57142857142856 301.785714285714 278.125 Q 301.785714285714 277.6785714285714 301.785714285714 276.33928571428567 Q 301.785714285714 275 301.785714285714 274.55357142857144 Q 301.785714285714 274.10714285714283 301.785714285714 272.7678571428571 Q 301.785714285714 271.4285714285714 300.8928571428569 270.5357142857142 Q 299.9999999999997 269.6428571428571 299.10714285714255 268.30357142857144 Q 298.21428571428544 266.9642857142857 297.7678571428569 265.17857142857144 Q 297.32142857142827 263.3928571428571 295.98214285714255 262.05357142857144 Q 294.6428571428569 260.7142857142857 293.7499999999997 259.375 Q 292.85714285714255 258.0357142857143 291.96428571428544 256.69642857142856 Q 291.07142857142827 255.35714285714283 290.1785714285711 254.0178571428571 Q 289.285714285714 252.6785714285714 288.3928571428569 251.78571428571425 Q 287.4999999999997 250.8928571428571 287.0535714285711 249.99999999999997 Q 286.60714285714255 249.10714285714283 286.160714285714 248.66071428571428 Q 285.71428571428544 248.21428571428572 284.8214285714283 246.875 Q 283.92857142857116 245.53571428571428 283.48214285714255 245.0892857142857 Q 283.035714285714 244.6428571428571 281.69642857142827 243.30357142857142 Q 280.35714285714255 241.96428571428572 280.35714285714255 241.51785714285714 Q 280.35714285714255 241.07142857142856 279.0178571428569 239.73214285714283 Q 277.67857142857116 238.3928571428571 276.785714285714 237.94642857142856 Q 275.8928571428569 237.5 274.9999999999997 236.60714285714286 Q 274.10714285714255 235.71428571428572 272.7678571428569 235.26785714285714 Q 271.42857142857116 234.82142857142856 270.98214285714255 234.375 Q 270.535714285714 233.92857142857144 269.19642857142827 233.03571428571428 Q 267.85714285714255 232.1428571428571 266.5178571428569 231.69642857142856 Q 265.17857142857116 231.25 263.3928571428569 230.35714285714286 Q 261.60714285714255 229.46428571428572 259.82142857142827 228.57142857142858 Q 258.035714285714 227.67857142857144 256.2499999999997 227.23214285714286 Q 254.46428571428544 226.78571428571428 252.67857142857116 226.3392857142857 Q 250.89285714285688 225.8928571428571 249.99999999999972 224.99999999999997 Q 249.10714285714255 224.10714285714283 247.76785714285685 224.10714285714283 Q 246.42857142857116 224.10714285714283 245.53571428571402 224.10714285714283 Q 244.64285714285688 224.10714285714283 243.74999999999972 223.66071428571428 Q 242.85714285714255 223.21428571428572 242.410714285714 223.21428571428572 Q 241.96428571428544 223.21428571428572 241.51785714285685 223.21428571428572 Q 241.07142857142827 223.21428571428572 240.17857142857113 223.21428571428572 Q 239.285714285714 223.21428571428572 238.39285714285685 223.21428571428572 Q 237.49999999999972 223.21428571428572 236.160714285714 223.21428571428572 Q 234.82142857142827 223.21428571428572 233.48214285714258 223.21428571428572 Q 232.14285714285688 223.21428571428572 231.24999999999972 223.21428571428572 Q 230.35714285714255 223.21428571428572 229.01785714285685 223.21428571428572 Q 227.67857142857116 223.21428571428572 226.78571428571402 223.21428571428572 Q 225.89285714285688 223.21428571428572 224.55357142857116 223.21428571428572 Q 223.21428571428544 223.21428571428572 221.42857142857116 223.21428571428572 Q 219.64285714285688 223.21428571428572 217.85714285714258 223.21428571428572 Q 216.07142857142827 223.21428571428572 215.17857142857113 223.21428571428572 Q 214.285714285714 223.21428571428572 213.83928571428544 223.21428571428572 Q 213.39285714285688 223.21428571428572 212.9464285714283 223.66071428571428 Q 212.49999999999972 224.10714285714283 212.05357142857113 224.55357142857142 Q 211.60714285714255 225 210.7142857142854 225.44642857142856 Q 209.82142857142827 225.8928571428571 209.37499999999972 226.3392857142857 Q 208.92857142857116 226.78571428571428 207.58928571428544 227.67857142857142 Q 206.24999999999972 228.57142857142856 205.80357142857113 229.4642857142857 Q 205.35714285714255 230.35714285714283 204.01785714285685 231.24999999999997 Q 202.67857142857116 232.1428571428571 201.785714285714 233.03571428571428 Q 200.89285714285683 233.92857142857144 199.9999999999997 235.26785714285714 Q 199.10714285714255 236.60714285714283 198.660714285714 237.94642857142856 Q 198.21428571428544 239.28571428571428 197.3214285714283 240.17857142857142 Q 196.42857142857116 241.07142857142856 195.535714285714 241.9642857142857 Q 194.64285714285683 242.85714285714283 194.64285714285683 243.30357142857142 Q 194.64285714285683 243.75 194.19642857142827 244.19642857142856 Q 193.74999999999972 244.6428571428571 192.85714285714258 245.53571428571425 L 191.96328571428543 246.4295714285714" stroke-linecap="round" />
</g>
<g transform="matrix(1 0 0 1 200 304.02)" id="jaUUlqgRvIQPnvNY5O9Oa"  >
<path style="stroke: rgb(0,0,0); stroke-width: 1; stroke-dasharray: none; stroke-linecap: round; stroke-dashoffset: 0; stroke-linejoin: round; stroke-miterlimit: 10; fill: none; fill-rule: nonzero; opacity: 1;" vector-effect="non-scaling-stroke"  transform=" translate(-200, -304.02)" d="M 214.28671428571397 316.9642857142857 Q 214.28571428571396 316.9642857142857 212.94642857142824 316.9642857142857 Q 211.60714285714252 316.9642857142857 210.26785714285683 316.9642857142857 Q 208.92857142857113 316.9642857142857 207.5892857142854 316.9642857142857 Q 206.2499999999997 316.9642857142857 205.35714285714255 316.5178571428571 Q 204.4642857142854 316.07142857142856 204.01785714285683 316.07142857142856 Q 203.57142857142824 316.07142857142856 202.6785714285711 316.07142857142856 Q 201.78571428571396 316.07142857142856 200.89285714285683 315.625 Q 199.9999999999997 315.1785714285714 199.10714285714255 314.73214285714283 Q 198.2142857142854 314.2857142857143 197.32142857142827 314.2857142857143 Q 196.42857142857113 314.2857142857143 195.0892857142854 313.83928571428567 Q 193.7499999999997 313.3928571428571 193.3035714285711 312.94642857142856 Q 192.85714285714252 312.5 192.41071428571396 311.6071428571429 Q 191.9642857142854 310.7142857142857 191.07142857142827 310.7142857142857 Q 190.17857142857113 310.7142857142857 189.73214285714255 309.375 Q 189.28571428571396 308.0357142857143 188.83928571428538 307.1428571428571 Q 188.3928571428568 306.25 187.49999999999966 304.9107142857143 Q 186.60714285714252 303.57142857142856 186.16071428571396 303.125 Q 185.7142857142854 302.6785714285714 185.26785714285683 301.33928571428567 Q 184.82142857142824 300 184.82142857142824 299.55357142857144 Q 184.82142857142824 299.10714285714283 184.3749999999997 298.6607142857143 Q 183.92857142857113 298.2142857142857 183.48214285714255 297.32142857142856 Q 183.03571428571396 296.4285714285714 183.03571428571396 295.98214285714283 Q 183.03571428571396 295.5357142857143 183.03571428571396 295.08928571428567 Q 183.03571428571396 294.6428571428571 183.03571428571396 294.19642857142856 Q 183.03571428571396 293.75 183.03571428571396 293.30357142857144 Q 183.03571428571396 292.85714285714283 183.03571428571396 292.4107142857143 Q 183.03571428571396 291.9642857142857 183.03571428571396 291.5178571428571 Q 183.03571428571396 291.07142857142856 183.48214285714255 291.07142857142856 Q 183.92857142857113 291.07142857142856 185.7142857142854 291.5178571428571 Q 187.4999999999997 291.9642857142857 189.73214285714255 292.4107142857143 Q 191.9642857142854 292.85714285714283 195.0892857142854 293.30357142857144 Q 198.2142857142854 293.75 200.89285714285683 294.19642857142856 Q 203.57142857142824 294.6428571428571 205.8035714285711 294.6428571428571 Q 208.03571428571396 294.6428571428571 209.82142857142824 294.6428571428571 Q 211.60714285714252 294.6428571428571 212.0535714285711 294.6428571428571 Q 212.4999999999997 294.6428571428571 212.94642857142827 294.6428571428571 Q 213.39285714285685 294.6428571428571 213.8392857142854 295.08928571428567 Q 214.28571428571396 295.5357142857143 214.73214285714255 296.42857142857144 Q 215.17857142857113 297.32142857142856 215.17857142857113 297.7678571428571 Q 215.17857142857113 298.2142857142857 215.6249999999997 298.6607142857143 Q 216.07142857142824 299.10714285714283 216.51785714285683 300 L 216.96528571428541 300.8938571428571" stroke-linecap="round" />
</g>
<g transform="matrix(1 0 0 1 269.2 304.46)" id="y3yCix2nkJ0clgzx5iIot"  >
<path style="stroke: rgb(0,0,0); stroke-width: 1; stroke-dasharray: none; stroke-linecap: round; stroke-dashoffset: 0; stroke-linejoin: round; stroke-miterlimit: 10; fill: none; fill-rule: nonzero; opacity: 1;" vector-effect="non-scaling-stroke"  transform=" translate(-269.2, -304.46)" d="M 249.1061428571425 316.9642857142857 Q 249.1071428571425 316.9642857142857 250.4464285714282 316.9642857142857 Q 251.78571428571394 316.9642857142857 252.67857142857108 316.9642857142857 Q 253.5714285714282 316.9642857142857 255.35714285714252 316.9642857142857 Q 257.1428571428568 316.9642857142857 258.035714285714 317.4107142857143 Q 258.9285714285711 317.85714285714283 261.160714285714 317.85714285714283 Q 263.3928571428568 317.85714285714283 264.285714285714 317.85714285714283 Q 265.1785714285711 317.85714285714283 266.51785714285677 317.85714285714283 Q 267.8571428571425 317.85714285714283 269.1964285714282 317.85714285714283 Q 270.53571428571394 317.85714285714283 271.87499999999966 317.85714285714283 Q 273.2142857142854 317.85714285714283 274.5535714285711 317.85714285714283 Q 275.8928571428568 317.85714285714283 277.23214285714255 317.4107142857143 Q 278.5714285714282 316.9642857142857 279.91071428571394 316.9642857142857 Q 281.24999999999966 316.9642857142857 281.6964285714282 316.5178571428571 Q 282.1428571428568 316.07142857142856 282.5892857142854 315.625 Q 283.03571428571394 315.1785714285714 283.03571428571394 314.73214285714283 Q 283.03571428571394 314.2857142857143 283.48214285714255 314.2857142857143 Q 283.9285714285711 314.2857142857143 283.9285714285711 313.83928571428567 Q 283.9285714285711 313.3928571428571 284.37499999999966 312.5 Q 284.8214285714282 311.60714285714283 285.26785714285677 310.71428571428567 Q 285.7142857142854 309.82142857142856 286.16071428571394 309.375 Q 286.6071428571425 308.9285714285714 287.0535714285711 308.0357142857142 Q 287.49999999999966 307.1428571428571 287.49999999999966 306.25 Q 287.49999999999966 305.35714285714283 287.9464285714282 304.46428571428567 Q 288.3928571428568 303.57142857142856 288.3928571428568 302.67857142857144 Q 288.3928571428568 301.7857142857143 288.3928571428568 300.8928571428571 Q 288.3928571428568 300 288.3928571428568 299.55357142857144 Q 288.3928571428568 299.10714285714283 288.8392857142854 297.7678571428571 Q 289.28571428571394 296.4285714285714 289.28571428571394 295.98214285714283 Q 289.28571428571394 295.5357142857143 289.28571428571394 294.6428571428571 Q 289.28571428571394 293.75 289.28571428571394 293.30357142857144 Q 289.28571428571394 292.85714285714283 289.28571428571394 292.4107142857143 Q 289.28571428571394 291.9642857142857 289.28571428571394 291.5178571428571 Q 289.28571428571394 291.07142857142856 288.8392857142854 291.07142857142856 Q 288.3928571428568 291.07142857142856 287.0535714285711 291.07142857142856 Q 285.7142857142854 291.07142857142856 284.8214285714282 291.5178571428571 Q 283.9285714285711 291.9642857142857 283.035714285714 291.9642857142857 Q 282.1428571428568 291.9642857142857 280.35714285714255 292.4107142857143 Q 278.5714285714282 292.85714285714283 277.6785714285711 292.85714285714283 Q 276.78571428571394 292.85714285714283 274.99999999999966 292.85714285714283 Q 273.2142857142854 292.85714285714283 271.87499999999966 292.85714285714283 Q 270.53571428571394 292.85714285714283 269.1964285714282 292.85714285714283 Q 267.8571428571425 292.85714285714283 266.51785714285677 292.85714285714283 Q 265.1785714285711 292.85714285714283 264.73214285714255 292.85714285714283 Q 264.28571428571394 292.85714285714283 263.8392857142854 292.85714285714283 Q 263.3928571428568 292.85714285714283 262.9464285714282 293.30357142857144 Q 262.49999999999966 293.75 262.0535714285711 293.75 Q 261.6071428571425 293.75 261.16071428571394 294.19642857142856 Q 260.7142857142854 294.6428571428571 260.7142857142854 295.08928571428567 Q 260.7142857142854 295.5357142857143 259.8214285714282 296.42857142857144 Q 258.9285714285711 297.32142857142856 258.48214285714255 297.7678571428571 Q 258.03571428571394 298.2142857142857 257.5892857142854 298.6607142857143 L 257.14185714285685 299.1081428571428" stroke-linecap="round" />
</g>
<g transform="matrix(1 0 0 1 216.52 273.27)" id="FFJg31QbyA_9XhJJ4S-n_"  >
<path style="stroke: rgb(0,0,0); stroke-width: 1; stroke-dasharray: none; stroke-linecap: round; stroke-dashoffset: 0; stroke-linejoin: round; stroke-miterlimit: 10; fill: none; fill-rule: nonzero; opacity: 1;" vector-effect="non-scaling-stroke"  transform=" translate(-216.52, -273.27)" d="M 218.75099999999964 299.1081428571428 Q 218.74999999999963 299.10714285714283 218.74999999999963 298.6607142857143 Q 218.74999999999963 298.2142857142857 218.30357142857105 297.32142857142856 Q 217.85714285714246 296.4285714285714 217.4107142857139 295.5357142857142 Q 216.96428571428535 294.6428571428571 216.0714285714282 293.75 Q 215.17857142857108 292.85714285714283 214.28571428571394 291.5178571428571 Q 213.3928571428568 290.1785714285714 212.49999999999963 289.2857142857142 Q 211.60714285714246 288.3928571428571 210.26785714285677 287.05357142857144 Q 208.92857142857108 285.7142857142857 207.58928571428535 284.82142857142856 Q 206.24999999999963 283.9285714285714 205.3571428571425 282.58928571428567 Q 204.46428571428535 281.25 203.5714285714282 279.9107142857143 Q 202.67857142857108 278.57142857142856 202.2321428571425 277.67857142857144 Q 201.7857142857139 276.7857142857143 201.7857142857139 275.8928571428571 Q 201.7857142857139 275 201.7857142857139 274.1071428571429 Q 201.7857142857139 273.2142857142857 201.7857142857139 272.32142857142856 Q 201.7857142857139 271.4285714285714 201.7857142857139 270.5357142857142 Q 201.7857142857139 269.6428571428571 201.7857142857139 268.75 Q 201.7857142857139 267.85714285714283 201.7857142857139 266.5178571428571 Q 201.7857142857139 265.1785714285714 202.2321428571425 264.2857142857142 Q 202.67857142857108 263.3928571428571 203.5714285714282 262.5 Q 204.46428571428535 261.60714285714283 204.9107142857139 260.71428571428567 Q 205.35714285714246 259.82142857142856 205.80357142857105 258.92857142857144 Q 206.24999999999963 258.0357142857143 207.14285714285677 257.1428571428571 Q 208.0357142857139 256.25 208.4821428571425 255.35714285714286 Q 208.92857142857108 254.46428571428572 209.8214285714282 253.57142857142856 Q 210.71428571428535 252.6785714285714 211.6071428571425 251.78571428571425 Q 212.49999999999963 250.8928571428571 212.9464285714282 249.99999999999997 Q 213.3928571428568 249.10714285714283 213.83928571428535 248.66071428571428 Q 214.2857142857139 248.21428571428572 214.7321428571425 247.76785714285714 Q 215.17857142857108 247.32142857142856 215.62499999999963 247.76785714285714 Q 216.07142857142819 248.21428571428572 217.4107142857139 250 Q 218.74999999999963 251.78571428571428 219.1964285714282 252.67857142857142 Q 219.6428571428568 253.57142857142856 221.42857142857108 255.35714285714283 Q 223.21428571428535 257.1428571428571 223.6607142857139 257.58928571428567 Q 224.10714285714246 258.0357142857143 224.99999999999963 258.92857142857144 Q 225.8928571428568 259.82142857142856 226.33928571428535 260.71428571428567 Q 226.7857142857139 261.60714285714283 227.2321428571425 262.05357142857144 Q 227.67857142857108 262.5 228.12499999999963 262.94642857142856 Q 228.57142857142819 263.3928571428571 229.46428571428532 264.73214285714283 Q 230.35714285714246 266.07142857142856 230.35714285714246 266.5178571428571 Q 230.35714285714246 266.9642857142857 230.80357142857105 267.8571428571429 Q 231.24999999999963 268.75 231.24999999999963 269.6428571428571 Q 231.24999999999963 270.5357142857143 231.24999999999963 272.32142857142856 Q 231.24999999999963 274.10714285714283 231.24999999999963 275.44642857142856 Q 231.24999999999963 276.7857142857143 231.24999999999963 278.57142857142856 Q 231.24999999999963 280.35714285714283 231.24999999999963 281.69642857142856 Q 231.24999999999963 283.0357142857143 231.24999999999963 283.92857142857144 Q 231.24999999999963 284.82142857142856 231.24999999999963 285.71428571428567 Q 231.24999999999963 286.60714285714283 230.80357142857105 287.05357142857144 Q 230.35714285714246 287.5 230.35714285714246 287.94642857142856 Q 230.35714285714246 288.3928571428571 229.9107142857139 288.83928571428567 Q 229.46428571428535 289.2857142857143 229.01785714285677 290.17857142857144 L 228.57042857142818 291.07242857142853" stroke-linecap="round" />
</g>
<g transform="matrix(1 0 0 1 262.05 280.8)" id="AfahiApL2VoA4GdBocf3W"  >
<path style="stroke: rgb(0,0,0); stroke-width: 1; stroke-dasharray: none; stroke-linecap: round; stroke-dashoffset: 0; stroke-linejoin: round; stroke-miterlimit: 10; fill: none; fill-rule: nonzero; opacity: 1;" vector-effect="non-scaling-stroke"  transform=" translate(-262.05, -280.8)" d="M 241.96428571428535 292.8581428571428 Q 241.96428571428535 292.85714285714283 242.4107142857139 292.4107142857143 Q 242.85714285714246 291.9642857142857 242.85714285714246 290.625 Q 242.85714285714246 289.2857142857143 243.74999999999963 288.3928571428571 Q 244.6428571428568 287.5 245.53571428571394 285.71428571428567 Q 246.42857142857105 283.9285714285714 247.76785714285674 280.35714285714283 Q 249.10714285714243 276.7857142857143 249.10714285714243 276.33928571428567 Q 249.10714285714243 275.8928571428571 249.55357142857102 275.44642857142856 Q 249.9999999999996 275 250.44642857142819 274.1071428571429 Q 250.89285714285677 273.2142857142857 251.33928571428532 271.875 Q 251.78571428571388 270.5357142857143 252.67857142857102 269.19642857142856 Q 253.57142857142816 267.85714285714283 254.4642857142853 266.96428571428567 Q 255.35714285714243 266.07142857142856 255.80357142857102 265.17857142857144 Q 256.2499999999996 264.2857142857143 257.5892857142853 263.3928571428571 Q 258.92857142857105 262.5 259.3749999999996 262.05357142857144 Q 259.82142857142816 261.60714285714283 260.26785714285677 261.1607142857143 Q 260.7142857142853 260.7142857142857 261.60714285714243 259.82142857142856 Q 262.4999999999996 258.9285714285714 263.39285714285677 258.9285714285714 Q 264.2857142857139 258.9285714285714 265.178571428571 258.48214285714283 Q 266.07142857142816 258.0357142857143 266.51785714285677 257.58928571428567 Q 266.9642857142853 257.1428571428571 268.30357142857105 256.69642857142856 Q 269.64285714285677 256.25 270.5357142857139 255.80357142857142 Q 271.42857142857105 255.35714285714283 271.8749999999996 255.35714285714283 Q 272.32142857142816 255.35714285714283 273.2142857142853 255.35714285714283 Q 274.10714285714243 255.35714285714283 274.553571428571 255.35714285714283 Q 274.9999999999996 255.35714285714283 275.89285714285677 255.35714285714283 Q 276.7857142857139 255.35714285714283 277.678571428571 255.35714285714283 Q 278.57142857142816 255.35714285714283 279.01785714285677 255.35714285714283 Q 279.4642857142853 255.35714285714283 280.35714285714243 254.91071428571428 Q 281.2499999999996 254.46428571428572 281.6964285714282 254.46428571428572 Q 282.14285714285677 254.46428571428572 282.14285714285677 255.80357142857142 Q 282.14285714285677 257.1428571428571 282.14285714285677 258.92857142857144 Q 282.14285714285677 260.7142857142857 282.14285714285677 262.05357142857144 Q 282.14285714285677 263.3928571428571 282.14285714285677 265.17857142857144 Q 282.14285714285677 266.9642857142857 282.14285714285677 268.75 Q 282.14285714285677 270.5357142857143 282.14285714285677 271.875 Q 282.14285714285677 273.2142857142857 282.14285714285677 273.6607142857143 Q 282.14285714285677 274.10714285714283 282.14285714285677 275 Q 282.14285714285677 275.8928571428571 282.14285714285677 276.7857142857142 Q 282.14285714285677 277.6785714285714 282.14285714285677 278.57142857142856 Q 282.14285714285677 279.4642857142857 281.6964285714282 280.3571428571429 Q 281.2499999999996 281.25 280.803571428571 282.58928571428567 Q 280.35714285714243 283.9285714285714 279.4642857142853 284.82142857142856 Q 278.57142857142816 285.7142857142857 278.1249999999996 287.05357142857144 Q 277.67857142857105 288.3928571428571 276.7857142857139 289.2857142857142 Q 275.89285714285677 290.1785714285714 274.55357142857105 291.07142857142856 Q 273.2142857142853 291.9642857142857 272.3214285714282 292.8571428571429 Q 271.42857142857105 293.75 270.5357142857139 294.6428571428571 Q 269.64285714285677 295.5357142857143 268.7499999999996 295.98214285714283 Q 267.85714285714243 296.4285714285714 267.4107142857139 296.4285714285714 Q 266.9642857142853 296.4285714285714 266.9642857142853 296.875 Q 266.9642857142853 297.32142857142856 266.0714285714282 297.7678571428571 Q 265.17857142857105 298.2142857142857 264.73214285714243 298.2142857142857 Q 264.2857142857139 298.2142857142857 263.8392857142853 298.6607142857143 Q 263.39285714285677 299.10714285714283 262.4999999999996 299.55357142857144 Q 261.60714285714243 300 261.1607142857139 300.44642857142856 Q 260.7142857142853 300.8928571428571 260.26785714285677 301.7857142857142 Q 259.82142857142816 302.6785714285714 259.3749999999996 302.6785714285714 Q 258.92857142857105 302.6785714285714 258.48214285714243 303.125 Q 258.0357142857139 303.57142857142856 258.0357142857139 304.0178571428571 Q 258.0357142857139 304.4642857142857 257.5892857142853 304.9107142857143 Q 257.14285714285677 305.35714285714283 256.6964285714282 305.80357142857144 Q 256.2499999999996 306.25 255.80357142857102 306.69642857142856 L 255.35614285714243 307.1438571428571" stroke-linecap="round" />
</g>
<g transform="matrix(1 0 0 1 234.37 270.98)" id="Rtdsi9YPkLJ7SO_iitOeF"  >
<path style="stroke: rgb(0,0,0); stroke-width: 1; stroke-dasharray: none; stroke-linecap: round; stroke-dashoffset: 0; stroke-linejoin: round; stroke-miterlimit: 10; fill: none; fill-rule: nonzero; opacity: 1;" vector-effect="non-scaling-stroke"  transform=" translate(-234.37, -270.98)" d="M 232.14285714285674 292.8581428571428 Q 232.14285714285674 292.85714285714283 231.69642857142816 292.85714285714283 Q 231.24999999999957 292.85714285714283 231.24999999999957 292.4107142857143 Q 231.24999999999957 291.9642857142857 230.803571428571 289.7321428571429 Q 230.3571428571424 287.5 229.46428571428527 285.71428571428567 Q 228.57142857142813 283.9285714285714 228.12499999999957 281.69642857142856 Q 227.67857142857102 279.4642857142857 227.23214285714243 277.2321428571429 Q 226.78571428571385 275 225.8928571428567 272.7678571428571 Q 224.99999999999957 270.5357142857143 224.553571428571 268.75 Q 224.1071428571424 266.9642857142857 223.66071428571385 265.17857142857144 Q 223.2142857142853 263.3928571428571 222.32142857142816 261.60714285714283 Q 221.42857142857102 259.82142857142856 220.98214285714243 258.0357142857143 Q 220.53571428571385 256.25 220.53571428571385 255.35714285714286 Q 220.53571428571385 254.46428571428572 220.53571428571385 253.57142857142856 Q 220.53571428571385 252.6785714285714 220.53571428571385 251.78571428571425 Q 220.53571428571385 250.8928571428571 220.53571428571385 249.99999999999997 Q 220.53571428571385 249.10714285714283 220.53571428571385 248.2142857142857 Q 220.53571428571385 247.32142857142856 220.53571428571385 245.98214285714283 Q 220.53571428571385 244.6428571428571 220.53571428571385 243.74999999999997 Q 220.53571428571385 242.85714285714283 220.53571428571385 242.41071428571428 Q 220.53571428571385 241.96428571428572 220.53571428571385 241.07142857142856 Q 220.53571428571385 240.1785714285714 220.53571428571385 239.28571428571425 Q 220.53571428571385 238.3928571428571 220.98214285714243 237.49999999999997 Q 221.42857142857102 236.60714285714283 222.32142857142816 235.7142857142857 Q 223.2142857142853 234.82142857142856 224.10714285714243 234.375 Q 224.99999999999957 233.92857142857144 225.44642857142816 233.48214285714286 Q 225.89285714285674 233.03571428571428 226.3392857142853 233.03571428571428 Q 226.78571428571385 233.03571428571428 227.23214285714243 233.03571428571428 Q 227.67857142857102 233.03571428571428 228.57142857142816 232.5892857142857 Q 229.4642857142853 232.1428571428571 229.91071428571385 232.1428571428571 Q 230.3571428571424 232.1428571428571 230.803571428571 232.5892857142857 Q 231.24999999999957 233.03571428571428 232.5892857142853 234.82142857142856 Q 233.92857142857102 236.60714285714283 235.2678571428567 238.8392857142857 Q 236.6071428571424 241.07142857142856 237.49999999999957 242.85714285714283 Q 238.39285714285674 244.6428571428571 239.73214285714243 245.53571428571425 Q 241.07142857142813 246.4285714285714 241.5178571428567 247.7678571428571 Q 241.9642857142853 249.10714285714283 242.41071428571385 249.55357142857142 Q 242.8571428571424 250 243.74999999999957 250.89285714285714 Q 244.64285714285674 251.78571428571428 244.64285714285674 252.67857142857142 Q 244.64285714285674 253.57142857142856 245.0892857142853 254.4642857142857 Q 245.53571428571385 255.35714285714283 245.53571428571385 256.25 Q 245.53571428571385 257.1428571428571 245.98214285714243 258.0357142857142 Q 246.42857142857102 258.9285714285714 246.42857142857102 260.2678571428571 Q 246.42857142857102 261.60714285714283 247.32142857142816 262.5 Q 248.2142857142853 263.3928571428571 248.2142857142853 264.73214285714283 Q 248.2142857142853 266.07142857142856 248.2142857142853 266.96428571428567 Q 248.2142857142853 267.85714285714283 248.2142857142853 269.19642857142856 Q 248.2142857142853 270.5357142857143 248.2142857142853 271.42857142857144 Q 248.2142857142853 272.32142857142856 248.2142857142853 273.6607142857143 Q 248.2142857142853 275 248.2142857142853 276.33928571428567 Q 248.2142857142853 277.6785714285714 248.2142857142853 279.0178571428571 Q 248.2142857142853 280.35714285714283 248.2142857142853 281.69642857142856 Q 248.2142857142853 283.0357142857143 248.2142857142853 283.92857142857144 Q 248.2142857142853 284.82142857142856 248.2142857142853 285.71428571428567 Q 248.2142857142853 286.60714285714283 248.2142857142853 287.05357142857144 Q 248.2142857142853 287.5 248.2142857142853 287.94642857142856 Q 248.2142857142853 288.3928571428571 247.7678571428567 289.2857142857142 Q 247.32142857142813 290.1785714285714 246.87499999999957 291.07142857142856 Q 246.42857142857102 291.9642857142857 246.42857142857102 292.4107142857143 Q 246.42857142857102 292.85714285714283 246.42857142857102 294.19642857142856 Q 246.42857142857102 295.5357142857143 245.98214285714243 295.98214285714283 Q 245.53571428571385 296.4285714285714 245.53571428571385 297.32142857142856 Q 245.53571428571385 298.2142857142857 245.53571428571385 298.6607142857143 Q 245.53571428571385 299.10714285714283 245.53571428571385 299.55357142857144 Q 245.53571428571385 300 245.53571428571385 300.44642857142856 Q 245.53571428571385 300.8928571428571 245.53571428571385 301.33928571428567 Q 245.53571428571385 301.7857142857143 245.0892857142853 302.23214285714283 Q 244.64285714285674 302.6785714285714 244.19642857142816 303.125 Q 243.74999999999957 303.57142857142856 243.74999999999957 304.9107142857143 Q 243.74999999999957 306.25 243.74999999999957 306.69642857142856 Q 243.74999999999957 307.1428571428571 243.303571428571 308.48214285714283 L 242.8561428571424 309.82242857142853" stroke-linecap="round" />
</g>
<g transform="matrix(1 0 0 1 231.25 317.86)" id="3sWErNeGIxZPKguBqD59o"  >
<path style="stroke: rgb(0,0,0); stroke-width: 1; stroke-dasharray: none; stroke-linecap: round; stroke-dashoffset: 0; stroke-linejoin: round; stroke-miterlimit: 10; fill: none; fill-rule: nonzero; opacity: 1;" vector-effect="non-scaling-stroke"  transform=" translate(-231.25, -317.86)" d="M 219.6418571428567 318.75 Q 219.6428571428567 318.75 220.53571428571385 318.75 Q 221.428571428571 318.75 221.87499999999955 318.75 Q 222.3214285714281 318.75 222.76785714285668 318.75 Q 223.21428571428527 318.75 224.553571428571 318.75 Q 225.8928571428567 318.75 226.33928571428527 318.75 Q 226.78571428571382 318.75 228.5714285714281 318.75 Q 230.35714285714238 318.75 231.6964285714281 318.75 Q 233.03571428571382 318.75 234.8214285714281 318.75 Q 236.60714285714238 318.75 237.49999999999955 318.75 Q 238.3928571428567 318.75 239.28571428571385 318.30357142857144 Q 240.178571428571 317.85714285714283 240.62499999999955 317.85714285714283 Q 241.0714285714281 317.85714285714283 241.51785714285668 317.85714285714283 Q 241.96428571428527 317.85714285714283 242.41071428571382 317.4107142857143 L 242.85814285714238 316.96328571428575" stroke-linecap="round" />
</g>
<g transform="matrix(1 0 0 1 228.12 179.91)" id="l7EvgCyKOlwt9fqXQCTbJ"  >
<path style="stroke: rgb(0,0,0); stroke-width: 1; stroke-dasharray: none; stroke-linecap: round; stroke-dashoffset: 0; stroke-linejoin: round; stroke-miterlimit: 10; fill: none; fill-rule: nonzero; opacity: 1;" vector-effect="non-scaling-stroke"  transform=" translate(-228.12, -179.91)" d="M 195.5347142857138 177.67857142857144 Q 195.5357142857138 177.67857142857144 195.98214285714238 177.67857142857144 Q 196.42857142857096 177.67857142857144 196.87499999999952 177.67857142857144 Q 197.32142857142807 177.67857142857144 197.76785714285666 177.67857142857144 Q 198.21428571428524 177.67857142857144 199.55357142857093 178.125 Q 200.89285714285663 178.57142857142856 203.1249999999995 179.01785714285714 Q 205.35714285714235 179.46428571428572 207.14285714285666 179.91071428571428 Q 208.92857142857096 180.35714285714283 211.16071428571382 181.24999999999997 Q 213.39285714285668 182.1428571428571 216.0714285714281 182.1428571428571 Q 218.74999999999952 182.1428571428571 220.5357142857138 182.1428571428571 Q 222.32142857142807 182.1428571428571 223.6607142857138 182.1428571428571 Q 224.99999999999952 182.1428571428571 226.33928571428524 182.1428571428571 Q 227.67857142857096 182.1428571428571 229.01785714285666 182.1428571428571 Q 230.35714285714235 182.1428571428571 231.69642857142807 182.1428571428571 Q 233.0357142857138 182.1428571428571 234.37499999999952 182.1428571428571 Q 235.71428571428524 182.1428571428571 237.49999999999952 182.1428571428571 Q 239.2857142857138 182.1428571428571 240.62499999999952 182.1428571428571 Q 241.96428571428524 182.1428571428571 243.30357142857096 182.1428571428571 Q 244.64285714285668 182.1428571428571 245.53571428571382 182.1428571428571 Q 246.42857142857096 182.1428571428571 247.3214285714281 182.1428571428571 Q 248.21428571428524 182.1428571428571 249.10714285714238 182.1428571428571 Q 249.99999999999952 182.1428571428571 251.33928571428524 181.69642857142856 Q 252.67857142857096 181.25 253.12499999999952 181.25 Q 253.57142857142807 181.25 254.4642857142852 181.25 Q 255.35714285714235 181.25 256.2499999999995 180.80357142857142 Q 257.14285714285666 180.35714285714283 257.5892857142852 180.35714285714283 Q 258.03571428571377 180.35714285714283 258.4821428571424 180.35714285714283 Q 258.928571428571 180.35714285714283 259.8214285714281 179.91071428571428 L 260.7152857142852 179.46328571428572" stroke-linecap="round" />
</g>
</svg>