<?xml version="1.0" encoding="UTF-8" standalone="no" ?>
<!DOCTYPE svg PUBLIC "-//W3C//DTD SVG 1.1//EN" "http://www.w3.org/Graphics/SVG/1.1/DTD/svg11.dtd">
<svg xmlns="http://www.w3.org/2000/svg" xmlns:xlink="http://www.w3.org/1999/xlink" version="1.1" width="500" height="500" viewBox="0 0 500 500" xml:space="preserve">
<desc>Created with Fabric.js 4.6.0</desc>
<defs>
</defs>
<g transform="matrix(1 0 0 1 -47.32 341.96)" id="Vrsb1J2TBxJcYQZFR7Pc0"  >
<path style="stroke: rgb(0,0,0); stroke-width: 1; stroke-dasharray: none; stroke-linecap: round; stroke-dashoffset: 0; stroke-linejoin: round; stroke-miterlimit: 10; fill: none; fill-rule: nonzero; opacity: 1;" vector-effect="non-scaling-stroke"  transform=" translate(47.32, -341.96)" d="M -47.32242857142855 341.9642857142857 L -47.32042857142856 341.9642857142857" stroke-linecap="round" />
</g>
<g transform="matrix(1 0 0 1 -89.29 97.32)" id="Vb1__8aXjPMBDDhne10iO"  >
<path style="stroke: rgb(0,0,0); stroke-width: 1; stroke-dasharray: none; stroke-linecap: round; stroke-dashoffset: 0; stroke-linejoin: round; stroke-miterlimit: 10; fill: none; fill-rule: nonzero; opacity: 1;" vector-effect="non-scaling-stroke"  transform=" translate(89.29, -97.32)" d="M -89.28671428571425 97.32142857142858 L -89.28471428571424 97.32142857142858" stroke-linecap="round" />
</g>
<g transform="matrix(1 0 0 1 178.13 500.74)" id="Ds72vCIBsEYKWUOL7_mGt"  >
<path style="stroke: rgb(0,0,0); stroke-width: 1; stroke-dasharray: none; stroke-linecap: round; stroke-dashoffset: 0; stroke-linejoin: round; stroke-miterlimit: 10; fill: none; fill-rule: nonzero; opacity: 1;" vector-effect="non-scaling-stroke"  transform=" translate(-178.13, -500.74)" d="M 173.21328571428575 495.5347142857144 Q 173.21428571428575 495.5357142857144 175.00000000000003 499.10714285714295 Q 176.7857142857143 502.6785714285715 177.2321428571429 503.5714285714286 Q 177.67857142857147 504.4642857142857 178.5714285714286 505.3571428571429 Q 179.46428571428575 506.25000000000006 181.25000000000003 504.4642857142858 L 183.0367142857143 502.6775714285715" stroke-linecap="round" />
</g>
<g transform="matrix(1 0 0 1 212.05 505.8)" id="NYhQ-B90u_ly6OGZrve3g"  >
<path style="stroke: rgb(0,0,0); stroke-width: 1; stroke-dasharray: none; stroke-linecap: round; stroke-dashoffset: 0; stroke-linejoin: round; stroke-miterlimit: 10; fill: none; fill-rule: nonzero; opacity: 1;" vector-effect="non-scaling-stroke"  transform=" translate(-212.05, -505.8)" d="M 205.35614285714286 501.7847142857144 Q 205.35714285714286 501.7857142857144 207.14285714285717 503.12500000000006 Q 208.92857142857147 504.4642857142857 210.26785714285717 505.80357142857144 Q 211.60714285714286 507.14285714285717 212.50000000000003 508.4821428571429 Q 213.3928571428572 509.8214285714286 214.28571428571433 509.8214285714286 Q 215.17857142857147 509.8214285714286 216.96428571428575 509.37500000000006 L 218.75100000000003 508.9275714285715" stroke-linecap="round" />
</g>
<g transform="matrix(1 0 0 1 231.7 265.18)" id="3EvXahJUt6RzOZBVQCbIZ"  >
<path style="stroke: rgb(0,0,0); stroke-width: 1; stroke-dasharray: none; stroke-linecap: round; stroke-dashoffset: 0; stroke-linejoin: round; stroke-miterlimit: 10; fill: none; fill-rule: nonzero; opacity: 1;" vector-effect="non-scaling-stroke"  transform=" translate(-231.7, -265.18)" d="M 66.96528571428573 137.499 Q 66.96428571428572 137.5 66.96428571428572 137.94642857142856 Q 66.96428571428572 138.3928571428571 66.51785714285715 140.17857142857142 Q 66.07142857142858 141.96428571428572 66.07142857142858 143.75 Q 66.07142857142858 145.53571428571428 66.07142857142858 147.32142857142856 Q 66.07142857142858 149.10714285714283 66.07142857142858 150.89285714285714 Q 66.07142857142858 152.67857142857144 65.62500000000001 154.91071428571428 Q 65.17857142857144 157.1428571428571 65.17857142857144 158.92857142857142 Q 65.17857142857144 160.71428571428572 65.17857142857144 162.5 Q 65.17857142857144 164.28571428571428 65.17857142857144 166.51785714285714 Q 65.17857142857144 168.75 65.17857142857144 170.98214285714286 Q 65.17857142857144 173.21428571428572 65.17857142857144 175 Q 65.17857142857144 176.78571428571428 65.17857142857144 179.01785714285714 Q 65.17857142857144 181.25 65.17857142857144 183.03571428571428 Q 65.17857142857144 184.82142857142856 65.17857142857144 187.05357142857142 Q 65.17857142857144 189.28571428571428 65.17857142857144 191.51785714285714 Q 65.17857142857144 193.75 65.17857142857144 196.42857142857142 Q 65.17857142857144 199.10714285714283 65.17857142857144 201.78571428571428 Q 65.17857142857144 204.46428571428572 65.17857142857144 206.69642857142858 Q 65.17857142857144 208.92857142857144 65.62500000000001 211.60714285714286 Q 66.07142857142858 214.28571428571428 66.96428571428572 216.51785714285714 Q 67.85714285714286 218.75 68.30357142857144 222.32142857142856 Q 68.75000000000003 225.8928571428571 69.64285714285717 228.12499999999997 Q 70.5357142857143 230.35714285714283 70.98214285714288 233.03571428571428 Q 71.42857142857144 235.71428571428572 72.32142857142858 238.39285714285714 Q 73.21428571428572 241.07142857142856 74.10714285714288 243.74999999999997 Q 75.00000000000003 246.4285714285714 75.89285714285717 248.66071428571425 Q 76.7857142857143 250.8928571428571 77.67857142857144 253.12499999999997 Q 78.57142857142858 255.35714285714283 79.9107142857143 258.48214285714283 Q 81.25000000000003 261.60714285714283 82.14285714285717 263.83928571428567 Q 83.0357142857143 266.07142857142856 84.37500000000003 268.30357142857144 Q 85.71428571428575 270.5357142857143 87.05357142857144 272.7678571428571 Q 88.39285714285714 275 89.73214285714286 277.2321428571429 Q 91.07142857142858 279.4642857142857 92.4107142857143 281.25 Q 93.75000000000003 283.0357142857143 95.5357142857143 285.2678571428571 Q 97.32142857142858 287.5 99.10714285714286 289.2857142857143 Q 100.89285714285714 291.07142857142856 101.7857142857143 291.96428571428567 Q 102.67857142857147 292.85714285714283 104.01785714285717 294.6428571428571 Q 105.35714285714286 296.4285714285714 106.25 297.32142857142856 Q 107.14285714285714 298.2142857142857 108.92857142857144 299.1071428571429 Q 110.71428571428575 300 112.05357142857144 301.7857142857143 Q 113.39285714285714 303.57142857142856 116.07142857142858 305.35714285714283 Q 118.75000000000003 307.1428571428571 120.08928571428575 308.0357142857142 Q 121.42857142857147 308.9285714285714 123.6607142857143 310.2678571428571 Q 125.89285714285714 311.60714285714283 128.125 312.94642857142856 Q 130.35714285714286 314.2857142857143 132.58928571428572 315.625 Q 134.82142857142858 316.9642857142857 136.60714285714286 317.8571428571429 Q 138.39285714285714 318.75 140.17857142857144 319.6428571428571 Q 141.96428571428575 320.5357142857143 143.30357142857144 321.42857142857144 Q 144.64285714285714 322.32142857142856 145.98214285714286 323.21428571428567 Q 147.32142857142858 324.10714285714283 148.6607142857143 324.55357142857144 Q 150.00000000000003 325 151.7857142857143 325.44642857142856 Q 153.57142857142858 325.8928571428571 155.35714285714286 326.7857142857142 Q 157.14285714285714 327.6785714285714 158.92857142857144 328.57142857142856 Q 160.71428571428575 329.4642857142857 162.50000000000003 329.9107142857143 Q 164.2857142857143 330.35714285714283 166.07142857142858 331.25 Q 167.85714285714286 332.1428571428571 170.08928571428572 332.58928571428567 Q 172.32142857142858 333.0357142857143 175.44642857142858 333.48214285714283 Q 178.57142857142858 333.9285714285714 181.69642857142858 334.82142857142856 Q 184.82142857142858 335.7142857142857 187.50000000000003 336.1607142857143 Q 190.17857142857147 336.60714285714283 192.8571428571429 337.05357142857144 Q 195.5357142857143 337.5 197.32142857142858 337.94642857142856 Q 199.10714285714286 338.3928571428571 201.33928571428572 338.83928571428567 Q 203.57142857142858 339.2857142857143 205.80357142857144 339.73214285714283 Q 208.0357142857143 340.1785714285714 210.26785714285717 340.625 Q 212.50000000000003 341.07142857142856 213.83928571428575 341.07142857142856 Q 215.17857142857147 341.07142857142856 217.41071428571433 341.07142857142856 Q 219.6428571428572 341.07142857142856 221.87500000000003 341.5178571428571 Q 224.10714285714286 341.9642857142857 226.33928571428572 342.4107142857143 Q 228.57142857142858 342.85714285714283 230.3571428571429 342.85714285714283 Q 232.1428571428572 342.85714285714283 234.37500000000003 342.85714285714283 Q 236.60714285714286 342.85714285714283 238.39285714285717 342.85714285714283 Q 240.17857142857147 342.85714285714283 242.41071428571433 342.85714285714283 Q 244.6428571428572 342.85714285714283 246.42857142857147 342.85714285714283 Q 248.21428571428575 342.85714285714283 250.4464285714286 343.30357142857144 Q 252.67857142857147 343.75 254.46428571428572 343.75 Q 256.25 343.75 258.0357142857143 343.75 Q 259.82142857142856 343.75 261.6071428571429 344.19642857142856 Q 263.3928571428572 344.6428571428571 265.1785714285715 344.6428571428571 Q 266.9642857142858 344.6428571428571 268.3035714285715 345.08928571428567 Q 269.6428571428572 345.5357142857143 270.9821428571429 345.5357142857143 Q 272.32142857142856 345.5357142857143 273.2142857142857 345.5357142857143 Q 274.1071428571429 345.5357142857143 275.00000000000006 345.5357142857143 Q 275.8928571428572 345.5357142857143 276.78571428571433 345.5357142857143 Q 277.67857142857144 345.5357142857143 278.5714285714286 345.5357142857143 Q 279.4642857142858 345.5357142857143 280.8035714285715 345.5357142857143 Q 282.1428571428572 345.5357142857143 283.4821428571429 345.5357142857143 Q 284.82142857142856 345.5357142857143 286.1607142857143 345.5357142857143 Q 287.5 345.5357142857143 288.8392857142857 345.5357142857143 Q 290.17857142857144 345.5357142857143 291.0714285714286 345.5357142857143 Q 291.9642857142858 345.5357142857143 293.75000000000006 345.5357142857143 Q 295.53571428571433 345.5357142857143 297.3214285714286 345.98214285714283 Q 299.1071428571429 346.4285714285714 301.3392857142857 346.4285714285714 Q 303.57142857142856 346.4285714285714 305.80357142857144 346.4285714285714 Q 308.03571428571433 346.4285714285714 309.8214285714286 346.4285714285714 Q 311.6071428571429 346.4285714285714 313.39285714285717 346.875 Q 315.17857142857144 347.32142857142856 317.41071428571433 347.32142857142856 Q 319.6428571428572 347.32142857142856 321.87500000000006 347.7678571428571 Q 324.1071428571429 348.2142857142857 325.89285714285717 349.1071428571429 Q 327.67857142857144 350 329.91071428571433 350 Q 332.1428571428572 350 334.37500000000006 350.8928571428571 Q 336.6071428571429 351.7857142857143 338.39285714285717 352.23214285714283 Q 340.17857142857144 352.6785714285714 341.51785714285717 353.125 Q 342.8571428571429 353.57142857142856 344.64285714285717 353.57142857142856 Q 346.42857142857144 353.57142857142856 348.66071428571433 354.46428571428567 Q 350.8928571428572 355.35714285714283 352.6785714285715 355.80357142857144 Q 354.4642857142858 356.25 355.8035714285715 356.69642857142856 Q 357.1428571428572 357.1428571428571 358.03571428571433 358.0357142857142 Q 358.92857142857144 358.9285714285714 359.8214285714286 359.375 Q 360.7142857142858 359.82142857142856 361.60714285714295 360.2678571428571 Q 362.5000000000001 360.7142857142857 363.3928571428572 361.1607142857143 Q 364.28571428571433 361.60714285714283 365.1785714285715 362.05357142857144 Q 366.07142857142867 362.5 366.9642857142858 362.94642857142856 Q 367.8571428571429 363.3928571428571 368.75000000000006 363.83928571428567 Q 369.6428571428572 364.2857142857143 370.0892857142858 364.7321428571429 Q 370.53571428571433 365.17857142857144 371.4285714285715 365.17857142857144 Q 372.32142857142867 365.17857142857144 372.7678571428572 365.17857142857144 Q 373.2142857142858 365.17857142857144 374.10714285714295 365.625 Q 375.0000000000001 366.07142857142856 375.8928571428572 366.5178571428571 Q 376.78571428571433 366.9642857142857 377.6785714285715 368.30357142857144 Q 378.57142857142867 369.6428571428571 379.4642857142858 371.42857142857144 Q 380.3571428571429 373.2142857142857 380.8035714285715 374.1071428571429 Q 381.2500000000001 375 382.1428571428572 375.8928571428571 Q 383.03571428571433 376.7857142857143 383.03571428571433 377.67857142857144 Q 383.03571428571433 378.57142857142856 383.4821428571429 379.0178571428571 Q 383.92857142857144 379.4642857142857 384.8214285714286 380.80357142857144 Q 385.7142857142858 382.1428571428571 386.60714285714295 382.58928571428567 Q 387.5000000000001 383.0357142857143 387.94642857142867 383.92857142857144 Q 388.3928571428572 384.82142857142856 389.28571428571433 385.2678571428571 Q 390.17857142857144 385.7142857142857 391.0714285714286 386.6071428571429 Q 391.9642857142858 387.5 392.85714285714295 388.3928571428571 Q 393.7500000000001 389.2857142857143 394.19642857142867 390.17857142857144 Q 394.6428571428572 391.07142857142856 395.53571428571433 391.96428571428567 Q 396.42857142857144 392.85714285714283 397.3214285714286 392.85714285714283 L 398.21528571428576 392.85714285714283" stroke-linecap="round" />
</g>
<g transform="matrix(1 0 0 1 241.96 278.13)" id="ZRyzT5S9LmXGpaBttQQoh"  >
<path style="stroke: rgb(0,0,0); stroke-width: 1; stroke-dasharray: none; stroke-linecap: round; stroke-dashoffset: 0; stroke-linejoin: round; stroke-miterlimit: 10; fill: none; fill-rule: nonzero; opacity: 1;" vector-effect="non-scaling-stroke"  transform=" translate(-241.96, -278.13)" d="M 33.92757142857145 140.17857142857144 Q 33.928571428571445 140.17857142857144 34.375000000000014 140.17857142857144 Q 34.821428571428584 140.17857142857144 36.160714285714306 140.17857142857144 Q 37.50000000000003 140.17857142857144 39.732142857142875 139.73214285714286 Q 41.96428571428572 139.28571428571428 45.53571428571429 138.8392857142857 Q 49.10714285714286 138.3928571428571 52.678571428571445 137.49999999999997 Q 56.25000000000003 136.60714285714283 58.928571428571445 136.16071428571428 Q 61.60714285714286 135.71428571428572 63.83928571428572 134.375 Q 66.07142857142858 133.03571428571428 68.30357142857144 132.5892857142857 Q 70.5357142857143 132.1428571428571 72.76785714285717 131.69642857142856 Q 75.00000000000003 131.25 75.89285714285717 130.80357142857142 Q 76.7857142857143 130.35714285714283 77.67857142857144 130.35714285714283 Q 78.57142857142858 130.35714285714283 79.9107142857143 129.91071428571428 Q 81.25000000000003 129.46428571428572 82.58928571428575 129.01785714285714 Q 83.92857142857147 128.57142857142856 85.71428571428575 128.57142857142856 Q 87.50000000000003 128.57142857142856 89.2857142857143 128.57142857142856 Q 91.07142857142858 128.57142857142856 92.85714285714286 128.125 Q 94.64285714285714 127.67857142857143 96.875 127.23214285714285 Q 99.10714285714286 126.78571428571426 100.89285714285717 126.78571428571426 Q 102.67857142857147 126.78571428571426 104.46428571428575 126.78571428571426 Q 106.25000000000003 126.78571428571426 108.48214285714289 126.78571428571426 Q 110.71428571428575 126.78571428571426 112.94642857142861 126.78571428571426 Q 115.17857142857147 126.78571428571426 117.4107142857143 126.78571428571426 Q 119.64285714285714 126.78571428571426 122.32142857142858 126.78571428571426 Q 125.00000000000003 126.78571428571426 127.67857142857144 127.23214285714285 Q 130.35714285714286 127.67857142857143 133.92857142857144 127.67857142857143 Q 137.50000000000003 127.67857142857143 140.62500000000003 127.67857142857143 Q 143.75000000000003 127.67857142857143 146.87500000000003 127.67857142857143 Q 150.00000000000003 127.67857142857143 152.67857142857144 128.125 Q 155.35714285714286 128.57142857142856 158.0357142857143 128.57142857142856 Q 160.71428571428575 128.57142857142856 163.83928571428575 128.57142857142856 Q 166.96428571428575 128.57142857142856 169.64285714285717 128.57142857142856 Q 172.32142857142858 128.57142857142856 174.10714285714286 128.57142857142856 Q 175.89285714285714 128.57142857142856 178.125 128.57142857142856 Q 180.35714285714286 128.57142857142856 181.69642857142858 128.57142857142856 Q 183.0357142857143 128.57142857142856 184.82142857142858 129.01785714285714 Q 186.60714285714286 129.46428571428572 188.83928571428572 129.91071428571428 Q 191.07142857142858 130.35714285714283 192.85714285714286 130.80357142857142 Q 194.64285714285714 131.25 196.875 131.69642857142856 Q 199.10714285714286 132.1428571428571 201.33928571428572 132.5892857142857 Q 203.57142857142858 133.03571428571428 205.3571428571429 133.92857142857142 Q 207.1428571428572 134.82142857142856 209.37500000000003 135.26785714285714 Q 211.60714285714286 135.71428571428572 212.50000000000003 136.16071428571428 Q 213.3928571428572 136.60714285714283 215.17857142857147 137.49999999999997 Q 216.96428571428575 138.3928571428571 219.1964285714286 138.8392857142857 Q 221.42857142857147 139.28571428571428 223.21428571428575 140.625 Q 225.00000000000003 141.96428571428572 227.2321428571429 142.85714285714286 Q 229.46428571428575 143.75 232.58928571428575 145.08928571428572 Q 235.71428571428575 146.42857142857144 237.50000000000003 147.32142857142858 Q 239.2857142857143 148.21428571428572 241.07142857142858 149.55357142857142 Q 242.85714285714286 150.8928571428571 243.75000000000003 151.3392857142857 Q 244.6428571428572 151.78571428571428 246.87500000000003 153.57142857142856 Q 249.10714285714286 155.35714285714283 251.7857142857143 157.5892857142857 Q 254.46428571428575 159.82142857142856 255.8035714285715 161.16071428571428 Q 257.1428571428572 162.5 259.37500000000006 164.28571428571428 Q 261.6071428571429 166.07142857142856 263.39285714285717 167.85714285714283 Q 265.17857142857144 169.6428571428571 267.41071428571433 171.87499999999997 Q 269.6428571428572 174.10714285714283 271.4285714285715 175.89285714285714 Q 273.2142857142858 177.67857142857144 275.00000000000006 180.35714285714286 Q 276.78571428571433 183.03571428571428 278.12500000000006 184.82142857142856 Q 279.4642857142858 186.60714285714283 281.25000000000006 189.28571428571428 Q 283.03571428571433 191.96428571428572 283.92857142857144 193.75 Q 284.82142857142856 195.53571428571428 285.7142857142857 197.32142857142856 Q 286.6071428571429 199.10714285714283 287.50000000000006 200.89285714285714 Q 288.3928571428572 202.67857142857144 289.7321428571429 204.91071428571428 Q 291.07142857142856 207.1428571428571 291.51785714285717 208.92857142857142 Q 291.9642857142858 210.71428571428572 293.3035714285715 212.94642857142858 Q 294.6428571428572 215.17857142857144 295.53571428571433 216.51785714285714 Q 296.42857142857144 217.85714285714283 297.3214285714286 219.64285714285714 Q 298.2142857142858 221.42857142857144 299.1071428571429 223.21428571428572 Q 300 225 301.3392857142857 227.23214285714286 Q 302.67857142857144 229.46428571428572 303.125 230.35714285714286 Q 303.57142857142856 231.25 304.4642857142857 232.58928571428572 Q 305.3571428571429 233.92857142857144 306.25000000000006 236.16071428571428 Q 307.1428571428572 238.3928571428571 308.03571428571433 240.17857142857142 Q 308.92857142857144 241.96428571428572 309.375 243.75 Q 309.82142857142856 245.53571428571428 311.1607142857143 246.875 Q 312.5 248.21428571428572 312.9464285714286 250 Q 313.3928571428572 251.78571428571428 313.8392857142858 253.125 Q 314.28571428571433 254.46428571428572 315.62500000000006 256.25 Q 316.9642857142858 258.0357142857143 317.41071428571433 260.2678571428571 Q 317.8571428571429 262.5 319.1964285714286 265.17857142857144 Q 320.53571428571433 267.85714285714283 320.9821428571429 268.75 Q 321.42857142857144 269.6428571428571 322.76785714285717 271.875 Q 324.1071428571429 274.10714285714283 324.55357142857144 275.8928571428571 Q 325 277.6785714285714 325.89285714285717 279.46428571428567 Q 326.78571428571433 281.25 327.2321428571429 282.58928571428567 Q 327.67857142857144 283.9285714285714 328.5714285714286 285.71428571428567 Q 329.4642857142858 287.5 330.3571428571429 289.2857142857143 Q 331.25 291.07142857142856 332.14285714285717 292.85714285714283 Q 333.03571428571433 294.6428571428571 333.92857142857144 296.42857142857144 Q 334.82142857142856 298.2142857142857 335.7142857142857 299.55357142857144 Q 336.6071428571429 300.8928571428571 337.50000000000006 302.23214285714283 Q 338.3928571428572 303.57142857142856 338.8392857142858 304.9107142857143 Q 339.28571428571433 306.25 340.1785714285715 307.58928571428567 Q 341.07142857142867 308.9285714285714 341.9642857142858 310.2678571428571 Q 342.8571428571429 311.60714285714283 343.75000000000006 312.5 Q 344.6428571428572 313.3928571428571 345.0892857142858 314.73214285714283 Q 345.53571428571433 316.07142857142856 345.9821428571429 317.4107142857143 Q 346.42857142857144 318.75 347.3214285714286 319.6428571428571 Q 348.2142857142858 320.5357142857143 349.10714285714295 321.875 Q 350.0000000000001 323.2142857142857 350.44642857142867 325 Q 350.8928571428572 326.7857142857143 351.78571428571433 327.67857142857144 Q 352.67857142857144 328.57142857142856 353.5714285714286 329.9107142857143 Q 354.4642857142858 331.25 354.91071428571433 332.58928571428567 Q 355.3571428571429 333.9285714285714 356.25000000000006 334.82142857142856 Q 357.1428571428572 335.7142857142857 357.5892857142858 337.05357142857144 Q 358.03571428571433 338.3928571428571 358.4821428571429 339.73214285714283 Q 358.92857142857144 341.07142857142856 359.8214285714286 341.96428571428567 Q 360.7142857142858 342.85714285714283 361.16071428571433 344.19642857142856 Q 361.6071428571429 345.5357142857143 362.0535714285715 346.875 Q 362.5000000000001 348.2142857142857 363.3928571428572 349.55357142857144 Q 364.28571428571433 350.8928571428571 365.1785714285715 352.23214285714283 Q 366.07142857142867 353.57142857142856 366.5178571428572 354.9107142857143 Q 366.9642857142858 356.25 367.85714285714295 357.1428571428571 Q 368.7500000000001 358.0357142857143 369.19642857142867 359.82142857142856 Q 369.6428571428572 361.60714285714283 370.53571428571433 362.5 Q 371.42857142857144 363.3928571428571 372.3214285714286 364.73214285714283 Q 373.2142857142858 366.07142857142856 373.66071428571433 366.96428571428567 Q 374.1071428571429 367.85714285714283 375.00000000000006 369.19642857142856 Q 375.8928571428572 370.5357142857143 376.3392857142858 371.42857142857144 Q 376.78571428571433 372.32142857142856 377.6785714285715 373.6607142857143 Q 378.57142857142867 375 379.4642857142858 375.8928571428571 Q 380.3571428571429 376.7857142857143 381.25000000000006 378.57142857142856 Q 382.1428571428572 380.35714285714283 383.03571428571433 381.69642857142856 Q 383.92857142857144 383.0357142857143 385.26785714285717 384.375 Q 386.6071428571429 385.7142857142857 387.0535714285715 386.6071428571429 Q 387.5000000000001 387.5 388.8392857142858 388.3928571428571 Q 390.17857142857144 389.2857142857143 391.0714285714286 390.17857142857144 Q 391.9642857142858 391.07142857142856 393.3035714285715 392.4107142857143 Q 394.6428571428572 393.75 395.53571428571433 394.6428571428571 Q 396.42857142857144 395.5357142857143 398.2142857142858 396.875 Q 400.0000000000001 398.2142857142857 400.8928571428572 399.1071428571429 Q 401.78571428571433 400 403.5714285714286 400.8928571428571 Q 405.3571428571429 401.7857142857143 406.25000000000006 402.2321428571429 Q 407.1428571428572 402.67857142857144 408.48214285714295 403.57142857142856 Q 409.82142857142867 404.4642857142857 411.1607142857144 405.3571428571429 Q 412.5000000000001 406.25 413.3928571428572 407.1428571428571 Q 414.28571428571433 408.0357142857143 416.0714285714286 408.92857142857144 Q 417.8571428571429 409.82142857142856 419.64285714285717 411.1607142857143 Q 421.42857142857144 412.5 423.2142857142858 413.8392857142857 Q 425.0000000000001 415.17857142857144 426.7857142857144 415.625 Q 428.57142857142867 416.07142857142856 430.8035714285715 417.4107142857143 Q 433.03571428571433 418.75 434.37500000000006 419.19642857142856 Q 435.7142857142858 419.6428571428571 437.50000000000006 420.98214285714283 Q 439.28571428571433 422.32142857142856 440.62500000000006 422.32142857142856 Q 441.9642857142858 422.32142857142856 442.85714285714295 422.7678571428571 Q 443.7500000000001 423.2142857142857 444.19642857142867 423.6607142857143 Q 444.6428571428572 424.10714285714283 445.0892857142858 425 Q 445.53571428571433 425.8928571428571 445.9821428571429 425.8928571428571 Q 446.42857142857144 425.8928571428571 446.87500000000006 426.33928571428567 Q 447.32142857142867 426.7857142857143 447.7678571428572 426.7857142857143 Q 448.2142857142858 426.7857142857143 448.66071428571433 427.2321428571429 Q 449.1071428571429 427.67857142857144 449.1071428571429 428.125 Q 449.1071428571429 428.57142857142856 449.5535714285715 429.0178571428571 L 450.0010000000001 429.4652857142857" stroke-linecap="round" />
</g>
<g transform="matrix(1 0 0 1 225.89 262.5)" id="jN75EJrule2C4NfNfhI_H"  >
<path style="stroke: rgb(0,0,0); stroke-width: 1; stroke-dasharray: none; stroke-linecap: round; stroke-dashoffset: 0; stroke-linejoin: round; stroke-miterlimit: 10; fill: none; fill-rule: nonzero; opacity: 1;" vector-effect="non-scaling-stroke"  transform=" translate(-225.89, -262.5)" d="M 66.96328571428572 136.60614285714283 Q 66.96428571428572 136.60714285714283 67.85714285714288 136.60714285714283 Q 68.75000000000003 136.60714285714283 69.1964285714286 137.05357142857142 Q 69.64285714285717 137.5 70.08928571428574 138.39285714285714 Q 70.5357142857143 139.28571428571428 71.87500000000001 140.17857142857142 Q 73.21428571428572 141.07142857142856 73.66071428571429 141.9642857142857 Q 74.10714285714286 142.85714285714283 75.00000000000001 143.74999999999997 Q 75.89285714285717 144.6428571428571 76.7857142857143 145.53571428571428 Q 77.67857142857144 146.42857142857144 79.01785714285715 147.32142857142858 Q 80.35714285714286 148.21428571428572 80.80357142857144 148.66071428571428 Q 81.25000000000003 149.10714285714283 82.14285714285717 149.55357142857142 Q 83.0357142857143 150 83.92857142857144 150.89285714285714 Q 84.82142857142858 151.78571428571428 85.26785714285717 152.23214285714286 Q 85.71428571428575 152.67857142857144 86.60714285714289 153.57142857142858 Q 87.50000000000003 154.46428571428572 88.83928571428575 155.80357142857142 Q 90.17857142857147 157.1428571428571 91.07142857142861 158.03571428571428 Q 91.96428571428575 158.92857142857144 93.75000000000003 159.82142857142858 Q 95.5357142857143 160.71428571428572 97.32142857142858 162.05357142857142 Q 99.10714285714286 163.3928571428571 100 164.28571428571428 Q 100.89285714285714 165.17857142857144 101.7857142857143 166.51785714285714 Q 102.67857142857147 167.85714285714283 104.01785714285717 168.74999999999997 Q 105.35714285714286 169.6428571428571 106.69642857142858 170.98214285714283 Q 108.0357142857143 172.32142857142856 109.37500000000003 174.10714285714283 Q 110.71428571428575 175.8928571428571 112.50000000000003 176.78571428571428 Q 114.2857142857143 177.67857142857144 115.62500000000003 179.01785714285714 Q 116.96428571428575 180.35714285714283 118.30357142857144 182.14285714285714 Q 119.64285714285714 183.92857142857144 120.5357142857143 184.82142857142858 Q 121.42857142857147 185.71428571428572 122.76785714285717 187.05357142857142 Q 124.10714285714286 188.3928571428571 125.44642857142858 189.73214285714283 Q 126.7857142857143 191.07142857142856 128.12500000000003 192.85714285714283 Q 129.46428571428575 194.6428571428571 130.80357142857144 195.53571428571428 Q 132.14285714285714 196.42857142857144 133.92857142857144 198.21428571428572 Q 135.71428571428575 200 137.50000000000003 200.89285714285714 Q 139.2857142857143 201.78571428571428 141.07142857142858 203.57142857142856 Q 142.85714285714286 205.35714285714283 144.19642857142858 205.80357142857142 Q 145.5357142857143 206.25 147.32142857142858 207.58928571428572 Q 149.10714285714286 208.92857142857144 150 209.375 Q 150.89285714285714 209.82142857142856 152.23214285714286 211.16071428571428 Q 153.57142857142858 212.5 155.35714285714286 212.94642857142856 Q 157.14285714285714 213.3928571428571 158.48214285714286 214.28571428571428 Q 159.82142857142858 215.17857142857144 161.1607142857143 216.51785714285714 Q 162.50000000000003 217.85714285714283 163.83928571428575 219.19642857142856 Q 165.17857142857147 220.53571428571428 166.51785714285717 221.42857142857142 Q 167.85714285714286 222.32142857142856 169.19642857142858 223.2142857142857 Q 170.5357142857143 224.10714285714283 171.87500000000003 224.99999999999997 Q 173.21428571428575 225.8928571428571 174.55357142857144 226.3392857142857 Q 175.89285714285714 226.78571428571428 177.23214285714286 227.67857142857142 Q 178.57142857142858 228.57142857142856 179.9107142857143 229.4642857142857 Q 181.25000000000003 230.35714285714283 183.0357142857143 231.24999999999997 Q 184.82142857142858 232.1428571428571 186.1607142857143 233.03571428571428 Q 187.50000000000003 233.92857142857144 189.2857142857143 234.82142857142858 Q 191.07142857142858 235.71428571428572 192.85714285714286 236.60714285714286 Q 194.64285714285714 237.5 195.98214285714286 238.39285714285714 Q 197.32142857142858 239.28571428571428 199.10714285714286 239.73214285714283 Q 200.89285714285714 240.1785714285714 201.7857142857143 241.5178571428571 Q 202.67857142857147 242.85714285714283 204.46428571428575 243.30357142857142 Q 206.25000000000003 243.75 208.0357142857143 245.0892857142857 Q 209.82142857142858 246.4285714285714 211.1607142857143 246.87499999999997 Q 212.50000000000003 247.32142857142856 214.2857142857143 248.66071428571428 Q 216.07142857142858 250 217.8571428571429 250.89285714285714 Q 219.6428571428572 251.78571428571428 220.53571428571433 252.67857142857142 Q 221.42857142857147 253.57142857142856 223.21428571428575 254.4642857142857 Q 225.00000000000003 255.35714285714283 226.33928571428575 256.69642857142856 Q 227.67857142857147 258.0357142857143 229.46428571428575 258.48214285714283 Q 231.25000000000003 258.9285714285714 232.58928571428575 260.2678571428571 Q 233.92857142857147 261.60714285714283 234.8214285714286 262.05357142857144 Q 235.71428571428575 262.5 237.05357142857147 263.3928571428571 Q 238.3928571428572 264.2857142857143 240.17857142857147 264.73214285714283 Q 241.96428571428575 265.1785714285714 242.8571428571429 266.5178571428571 Q 243.75000000000003 267.85714285714283 245.9821428571429 268.30357142857144 Q 248.21428571428575 268.75 249.1071428571429 269.6428571428571 Q 250.00000000000003 270.5357142857143 251.33928571428575 271.42857142857144 Q 252.67857142857147 272.32142857142856 254.46428571428572 272.7678571428571 Q 256.25 273.2142857142857 257.14285714285717 274.1071428571429 Q 258.03571428571433 275 259.37500000000006 275.44642857142856 Q 260.7142857142858 275.8928571428571 262.0535714285715 276.7857142857142 Q 263.3928571428572 277.6785714285714 264.28571428571433 278.57142857142856 Q 265.17857142857144 279.4642857142857 266.51785714285717 280.3571428571429 Q 267.8571428571429 281.25 268.75000000000006 282.1428571428571 Q 269.6428571428572 283.0357142857143 270.53571428571433 283.92857142857144 Q 271.42857142857144 284.82142857142856 272.3214285714286 285.71428571428567 Q 273.2142857142858 286.60714285714283 274.1071428571429 287.5 Q 275 288.3928571428571 276.3392857142857 289.73214285714283 Q 277.67857142857144 291.07142857142856 278.5714285714286 291.96428571428567 Q 279.4642857142858 292.85714285714283 279.91071428571433 293.30357142857144 Q 280.3571428571429 293.75 281.6964285714286 294.6428571428571 Q 283.03571428571433 295.5357142857143 284.37500000000006 296.875 Q 285.7142857142858 298.2142857142857 286.6071428571429 299.1071428571429 Q 287.5 300 288.8392857142857 301.33928571428567 Q 290.17857142857144 302.6785714285714 291.0714285714286 303.57142857142856 Q 291.9642857142858 304.4642857142857 293.3035714285715 305.3571428571429 Q 294.6428571428572 306.25 295.9821428571429 307.58928571428567 Q 297.32142857142856 308.9285714285714 298.6607142857143 309.82142857142856 Q 300 310.7142857142857 301.3392857142857 312.05357142857144 Q 302.67857142857144 313.3928571428571 304.4642857142857 314.73214285714283 Q 306.25 316.07142857142856 307.5892857142857 316.96428571428567 Q 308.92857142857144 317.85714285714283 311.16071428571433 319.19642857142856 Q 313.3928571428572 320.5357142857143 314.7321428571429 320.98214285714283 Q 316.07142857142856 321.4285714285714 317.8571428571429 322.32142857142856 Q 319.6428571428572 323.2142857142857 320.9821428571429 324.1071428571429 Q 322.32142857142856 325 322.76785714285717 325.44642857142856 Q 323.2142857142858 325.8928571428571 324.1071428571429 326.33928571428567 Q 325 326.7857142857143 325.89285714285717 327.67857142857144 Q 326.78571428571433 328.57142857142856 327.2321428571429 329.0178571428571 Q 327.67857142857144 329.4642857142857 328.5714285714286 330.80357142857144 Q 329.4642857142858 332.1428571428571 329.91071428571433 332.58928571428567 Q 330.3571428571429 333.0357142857143 331.25000000000006 334.375 Q 332.1428571428572 335.7142857142857 333.03571428571433 337.05357142857144 Q 333.92857142857144 338.3928571428571 334.8214285714286 340.17857142857144 Q 335.7142857142858 341.9642857142857 336.60714285714295 343.30357142857144 Q 337.5000000000001 344.6428571428571 338.8392857142858 345.98214285714283 Q 340.17857142857144 347.32142857142856 341.51785714285717 349.10714285714283 Q 342.8571428571429 350.8928571428571 343.75000000000006 351.7857142857142 Q 344.6428571428572 352.6785714285714 345.0892857142858 353.57142857142856 Q 345.53571428571433 354.4642857142857 346.4285714285715 354.9107142857143 Q 347.32142857142867 355.35714285714283 347.7678571428572 356.25 Q 348.2142857142858 357.1428571428571 349.10714285714295 358.0357142857142 Q 350.0000000000001 358.9285714285714 350.8928571428572 360.2678571428571 Q 351.78571428571433 361.60714285714283 352.6785714285715 362.5 Q 353.57142857142867 363.3928571428571 354.9107142857144 364.2857142857143 Q 356.2500000000001 365.17857142857144 357.5892857142858 366.5178571428571 Q 358.92857142857144 367.85714285714283 359.37500000000006 368.30357142857144 Q 359.82142857142867 368.75 360.7142857142858 370.0892857142857 Q 361.6071428571429 371.42857142857144 362.50000000000006 371.875 Q 363.3928571428572 372.32142857142856 364.28571428571433 373.21428571428567 Q 365.17857142857144 374.10714285714283 366.0714285714286 375 Q 366.9642857142858 375.8928571428571 368.3035714285715 376.33928571428567 Q 369.6428571428572 376.7857142857143 370.53571428571433 378.125 Q 371.42857142857144 379.4642857142857 372.3214285714286 379.9107142857143 Q 373.2142857142858 380.35714285714283 373.66071428571433 381.25 Q 374.1071428571429 382.1428571428571 375.00000000000006 382.58928571428567 Q 375.8928571428572 383.0357142857143 376.3392857142858 383.0357142857143 Q 376.78571428571433 383.0357142857143 377.2321428571429 383.4821428571429 Q 377.67857142857144 383.92857142857144 378.5714285714286 384.375 Q 379.4642857142858 384.82142857142856 379.91071428571433 385.71428571428567 Q 380.3571428571429 386.60714285714283 381.25000000000006 386.60714285714283 Q 382.1428571428572 386.60714285714283 382.5892857142858 386.60714285714283 Q 383.03571428571433 386.60714285714283 383.4821428571429 387.05357142857144 Q 383.92857142857144 387.5 384.37500000000006 387.94642857142856 L 384.82242857142865 388.3938571428571" stroke-linecap="round" />
</g>
<g transform="matrix(1 0 0 1 198.66 343.75)" id="PgTZ_kRKfAIrCxVbjEK5-"  >
<path style="stroke: rgb(0,0,0); stroke-width: 1; stroke-dasharray: none; stroke-linecap: round; stroke-dashoffset: 0; stroke-linejoin: round; stroke-miterlimit: 10; fill: none; fill-rule: nonzero; opacity: 1;" vector-effect="non-scaling-stroke"  transform=" translate(-198.66, -343.75)" d="M 205.35814285714287 286.60714285714283 Q 205.35714285714286 286.60714285714283 204.9107142857143 286.60714285714283 Q 204.46428571428575 286.60714285714283 203.5714285714286 286.60714285714283 Q 202.67857142857147 286.60714285714283 201.33928571428575 286.60714285714283 Q 200.00000000000003 286.60714285714283 198.21428571428575 286.60714285714283 Q 196.42857142857147 286.60714285714283 194.64285714285717 287.05357142857144 Q 192.85714285714286 287.5 191.07142857142858 287.94642857142856 Q 189.2857142857143 288.3928571428571 186.6071428571429 288.83928571428567 Q 183.92857142857147 289.2857142857143 182.14285714285717 289.73214285714283 Q 180.35714285714286 290.1785714285714 178.57142857142858 290.625 Q 176.7857142857143 291.07142857142856 174.55357142857144 291.96428571428567 Q 172.32142857142858 292.85714285714283 170.5357142857143 293.75 Q 168.75000000000003 294.6428571428571 166.96428571428575 295.5357142857142 Q 165.17857142857147 296.4285714285714 163.39285714285717 297.7678571428571 Q 161.60714285714286 299.10714285714283 160.26785714285717 300.44642857142856 Q 158.92857142857147 301.7857142857143 157.14285714285717 303.125 Q 155.35714285714286 304.4642857142857 154.01785714285717 305.80357142857144 Q 152.67857142857147 307.1428571428571 150.89285714285717 308.92857142857144 Q 149.10714285714286 310.7142857142857 148.6607142857143 312.5 Q 148.21428571428575 314.2857142857143 146.87500000000003 316.07142857142856 Q 145.5357142857143 317.85714285714283 145.08928571428572 319.19642857142856 Q 144.64285714285714 320.5357142857143 143.75 322.32142857142856 Q 142.85714285714286 324.10714285714283 142.85714285714286 325.8928571428571 Q 142.85714285714286 327.6785714285714 142.4107142857143 329.0178571428571 Q 141.96428571428575 330.35714285714283 141.96428571428575 332.1428571428571 Q 141.96428571428575 333.9285714285714 141.96428571428575 335.71428571428567 Q 141.96428571428575 337.5 141.96428571428575 339.2857142857143 Q 141.96428571428575 341.07142857142856 141.96428571428575 342.85714285714283 Q 141.96428571428575 344.6428571428571 141.96428571428575 346.875 Q 141.96428571428575 349.10714285714283 142.4107142857143 350.8928571428571 Q 142.85714285714286 352.6785714285714 143.30357142857144 354.46428571428567 Q 143.75000000000003 356.25 144.19642857142858 358.0357142857143 Q 144.64285714285714 359.82142857142856 145.5357142857143 362.05357142857144 Q 146.42857142857147 364.2857142857143 147.3214285714286 366.07142857142856 Q 148.21428571428575 367.85714285714283 148.6607142857143 369.6428571428571 Q 149.10714285714286 371.42857142857144 150.44642857142858 373.2142857142857 Q 151.7857142857143 375 152.67857142857144 376.7857142857143 Q 153.57142857142858 378.57142857142856 154.9107142857143 379.46428571428567 Q 156.25000000000003 380.35714285714283 157.58928571428575 382.1428571428571 Q 158.92857142857147 383.92857142857144 161.1607142857143 385.7142857142857 Q 163.39285714285714 387.5 164.73214285714286 388.3928571428571 Q 166.07142857142858 389.2857142857143 167.85714285714286 390.625 Q 169.64285714285714 391.9642857142857 171.42857142857144 392.4107142857143 Q 173.21428571428575 392.85714285714283 175.00000000000003 393.75 Q 176.7857142857143 394.6428571428571 178.57142857142858 395.5357142857143 Q 180.35714285714286 396.42857142857144 182.58928571428572 396.875 Q 184.82142857142858 397.32142857142856 186.60714285714286 397.7678571428571 Q 188.39285714285714 398.2142857142857 190.625 399.1071428571429 Q 192.85714285714286 400 194.64285714285717 400 Q 196.42857142857147 400 199.55357142857147 400 Q 202.67857142857147 400 204.46428571428575 400.44642857142856 Q 206.25000000000003 400.8928571428571 208.4821428571429 400.8928571428571 Q 210.71428571428575 400.8928571428571 212.9464285714286 400.8928571428571 Q 215.17857142857147 400.8928571428571 216.96428571428575 400.8928571428571 Q 218.75000000000003 400.8928571428571 219.64285714285717 400.8928571428571 Q 220.5357142857143 400.8928571428571 222.32142857142858 400.8928571428571 Q 224.10714285714286 400.8928571428571 225.00000000000003 400.44642857142856 Q 225.8928571428572 400 227.67857142857147 399.1071428571429 Q 229.46428571428575 398.2142857142857 231.25000000000003 397.7678571428571 Q 233.0357142857143 397.32142857142856 234.37500000000003 395.98214285714283 Q 235.71428571428575 394.6428571428571 237.05357142857147 393.30357142857144 Q 238.3928571428572 391.9642857142857 239.7321428571429 390.625 Q 241.07142857142858 389.2857142857143 242.4107142857143 387.94642857142856 Q 243.75000000000003 386.60714285714283 245.08928571428575 384.82142857142856 Q 246.42857142857147 383.0357142857143 247.3214285714286 381.25 Q 248.21428571428575 379.4642857142857 249.55357142857147 377.2321428571429 Q 250.8928571428572 375 251.33928571428575 373.2142857142857 Q 251.7857142857143 371.42857142857144 252.67857142857144 369.19642857142856 Q 253.57142857142858 366.9642857142857 254.01785714285717 365.625 Q 254.46428571428575 364.2857142857143 254.46428571428575 362.5 Q 254.46428571428575 360.7142857142857 254.46428571428575 358.92857142857144 Q 254.46428571428575 357.1428571428571 254.9107142857143 355.80357142857144 Q 255.35714285714286 354.4642857142857 255.35714285714286 352.67857142857144 Q 255.35714285714286 350.8928571428571 255.35714285714286 349.10714285714283 Q 255.35714285714286 347.32142857142856 255.35714285714286 345.5357142857143 Q 255.35714285714286 343.75 255.35714285714286 342.4107142857143 Q 255.35714285714286 341.07142857142856 255.35714285714286 339.73214285714283 Q 255.35714285714286 338.3928571428571 254.9107142857143 337.05357142857144 Q 254.46428571428575 335.7142857142857 253.5714285714286 334.375 Q 252.67857142857147 333.0357142857143 252.2321428571429 332.1428571428571 Q 251.7857142857143 331.25 251.7857142857143 329.9107142857143 Q 251.7857142857143 328.57142857142856 251.33928571428575 327.23214285714283 Q 250.8928571428572 325.8928571428571 250.00000000000003 325 Q 249.10714285714286 324.10714285714283 248.6607142857143 323.21428571428567 Q 248.21428571428575 322.32142857142856 248.21428571428575 320.98214285714283 Q 248.21428571428575 319.6428571428571 247.76785714285717 318.75 Q 247.32142857142858 317.85714285714283 246.42857142857144 317.4107142857143 Q 245.5357142857143 316.9642857142857 245.5357142857143 316.07142857142856 Q 245.5357142857143 315.1785714285714 245.08928571428575 314.73214285714283 Q 244.6428571428572 314.2857142857143 244.6428571428572 313.3928571428571 Q 244.6428571428572 312.5 244.1964285714286 311.6071428571429 Q 243.75000000000003 310.7142857142857 242.8571428571429 308.92857142857144 Q 241.96428571428575 307.1428571428571 241.51785714285717 306.25 Q 241.07142857142858 305.35714285714283 241.07142857142858 304.46428571428567 Q 241.07142857142858 303.57142857142856 240.62500000000003 303.125 Q 240.17857142857147 302.6785714285714 239.7321428571429 302.23214285714283 Q 239.2857142857143 301.7857142857143 238.83928571428575 300.8928571428571 Q 238.3928571428572 300 237.9464285714286 299.55357142857144 Q 237.50000000000003 299.10714285714283 237.50000000000003 298.6607142857143 Q 237.50000000000003 298.2142857142857 236.6071428571429 297.32142857142856 Q 235.71428571428575 296.4285714285714 234.8214285714286 295.5357142857142 Q 233.92857142857147 294.6428571428571 233.4821428571429 294.19642857142856 Q 233.0357142857143 293.75 231.69642857142858 292.8571428571429 Q 230.35714285714286 291.9642857142857 229.9107142857143 291.5178571428571 Q 229.46428571428575 291.07142857142856 228.12500000000003 290.625 Q 226.7857142857143 290.1785714285714 225.44642857142858 289.73214285714283 Q 224.10714285714286 289.2857142857143 223.21428571428572 288.83928571428567 Q 222.32142857142858 288.3928571428571 220.5357142857143 288.3928571428571 Q 218.75000000000003 288.3928571428571 216.96428571428575 287.94642857142856 Q 215.17857142857147 287.5 212.9464285714286 287.5 Q 210.71428571428575 287.5 208.92857142857147 287.5 Q 207.1428571428572 287.5 205.80357142857147 287.5 Q 204.46428571428575 287.5 203.5714285714286 287.5 Q 202.67857142857147 287.5 201.7857142857143 287.5 Q 200.89285714285714 287.5 200.44642857142858 287.5 Q 200.00000000000003 287.5 199.55357142857144 287.5 Q 199.10714285714286 287.5 197.76785714285717 287.5 Q 196.42857142857147 287.5 195.9821428571429 287.5 Q 195.5357142857143 287.5 194.64285714285717 287.5 Q 193.75000000000003 287.5 193.30357142857144 287.5 Q 192.85714285714286 287.5 192.4107142857143 288.83928571428567 L 191.96328571428575 290.17957142857136" stroke-linecap="round" />
</g>
<g transform="matrix(1 0 0 1 295.98 409.38)" id="_I3BwhxR_2zhxn9Qzvmov"  >
<path style="stroke: rgb(0,0,0); stroke-width: 1; stroke-dasharray: none; stroke-linecap: round; stroke-dashoffset: 0; stroke-linejoin: round; stroke-miterlimit: 10; fill: none; fill-rule: nonzero; opacity: 1;" vector-effect="non-scaling-stroke"  transform=" translate(-295.98, -409.38)" d="M 244.6418571428572 389.2857142857143 Q 244.6428571428572 389.2857142857143 245.08928571428575 389.2857142857143 Q 245.5357142857143 389.2857142857143 245.9821428571429 389.2857142857143 Q 246.42857142857147 389.2857142857143 247.76785714285717 388.83928571428567 Q 249.10714285714286 388.3928571428571 250.44642857142858 388.3928571428571 Q 251.7857142857143 388.3928571428571 254.91071428571433 388.3928571428571 Q 258.03571428571433 388.3928571428571 258.4821428571429 388.3928571428571 Q 258.92857142857144 388.3928571428571 260.26785714285717 388.3928571428571 Q 261.6071428571429 388.3928571428571 262.05357142857144 388.3928571428571 Q 262.5 388.3928571428571 263.39285714285717 388.3928571428571 Q 264.28571428571433 388.3928571428571 265.17857142857144 388.83928571428567 Q 266.07142857142856 389.2857142857143 266.9642857142857 389.7321428571429 Q 267.8571428571429 390.17857142857144 268.75000000000006 390.625 Q 269.6428571428572 391.07142857142856 270.53571428571433 391.96428571428567 Q 271.42857142857144 392.85714285714283 271.875 393.30357142857144 Q 272.32142857142856 393.75 274.55357142857144 393.75 Q 276.78571428571433 393.75 278.5714285714286 394.19642857142856 Q 280.3571428571429 394.6428571428571 280.80357142857144 395.08928571428567 Q 281.25 395.5357142857143 282.14285714285717 395.9821428571429 Q 283.03571428571433 396.42857142857144 283.92857142857144 396.875 Q 284.82142857142856 397.32142857142856 286.1607142857143 397.7678571428571 Q 287.5 398.2142857142857 287.5 398.6607142857143 Q 287.5 399.10714285714283 288.8392857142857 400 Q 290.17857142857144 400.8928571428571 291.51785714285717 402.23214285714283 Q 292.8571428571429 403.57142857142856 293.30357142857144 404.0178571428571 Q 293.75 404.4642857142857 295.0892857142857 405.3571428571429 Q 296.42857142857144 406.25 298.2142857142857 407.1428571428571 Q 300 408.0357142857143 301.3392857142857 408.92857142857144 Q 302.67857142857144 409.82142857142856 304.01785714285717 410.2678571428571 Q 305.3571428571429 410.7142857142857 307.5892857142857 411.6071428571429 Q 309.82142857142856 412.5 311.6071428571429 413.3928571428571 Q 313.3928571428572 414.2857142857143 315.62500000000006 414.7321428571429 Q 317.8571428571429 415.17857142857144 318.75000000000006 415.625 Q 319.6428571428572 416.07142857142856 321.4285714285715 416.96428571428567 Q 323.2142857142858 417.85714285714283 324.5535714285715 418.30357142857144 Q 325.8928571428572 418.75 327.6785714285715 419.6428571428571 Q 329.4642857142858 420.5357142857143 330.8035714285715 421.42857142857144 Q 332.1428571428572 422.32142857142856 333.9285714285715 422.7678571428571 Q 335.7142857142858 423.2142857142857 336.60714285714295 424.1071428571429 Q 337.5000000000001 425 338.3928571428572 425.44642857142856 Q 339.28571428571433 425.8928571428571 341.0714285714286 426.7857142857143 Q 342.8571428571429 427.67857142857144 343.75000000000006 428.57142857142856 Q 344.6428571428572 429.4642857142857 345.0892857142858 429.4642857142857 Q 345.53571428571433 429.4642857142857 346.4285714285715 429.9107142857143 L 347.32242857142865 430.3581428571428" stroke-linecap="round" />
</g>
<g transform="matrix(1 0 0 1 304.91 404.02)" id="Xbukc3lYBYU4cOrMHZRBF"  >
<path style="stroke: rgb(0,0,0); stroke-width: 1; stroke-dasharray: none; stroke-linecap: round; stroke-dashoffset: 0; stroke-linejoin: round; stroke-miterlimit: 10; fill: none; fill-rule: nonzero; opacity: 1;" vector-effect="non-scaling-stroke"  transform=" translate(-304.91, -404.02)" d="M 254.46428571428575 369.64185714285713 Q 254.46428571428575 369.6428571428571 254.46428571428575 370.08928571428567 Q 254.46428571428575 370.5357142857143 254.46428571428575 370.9821428571429 Q 254.46428571428575 371.42857142857144 254.46428571428575 372.32142857142856 Q 254.46428571428575 373.2142857142857 254.9107142857143 373.6607142857143 Q 255.35714285714286 374.10714285714283 255.80357142857144 375.8928571428571 Q 256.25 377.67857142857144 257.14285714285717 378.57142857142856 Q 258.03571428571433 379.4642857142857 258.4821428571429 379.9107142857143 Q 258.92857142857144 380.35714285714283 260.26785714285717 381.25 Q 261.6071428571429 382.1428571428571 262.50000000000006 383.0357142857143 Q 263.3928571428572 383.92857142857144 263.8392857142858 384.375 Q 264.28571428571433 384.82142857142856 265.17857142857144 385.2678571428571 Q 266.07142857142856 385.7142857142857 266.9642857142857 385.7142857142857 Q 267.8571428571429 385.7142857142857 269.1964285714286 386.1607142857143 Q 270.53571428571433 386.60714285714283 270.9821428571429 387.05357142857144 Q 271.42857142857144 387.5 272.76785714285717 387.5 Q 274.1071428571429 387.5 274.55357142857144 387.94642857142856 Q 275 388.3928571428571 275.89285714285717 388.3928571428571 Q 276.78571428571433 388.3928571428571 277.2321428571429 388.83928571428567 Q 277.67857142857144 389.2857142857143 278.125 389.2857142857143 Q 278.57142857142856 389.2857142857143 279.01785714285717 389.2857142857143 Q 279.4642857142858 389.2857142857143 279.91071428571433 389.7321428571429 Q 280.3571428571429 390.17857142857144 281.25000000000006 390.17857142857144 Q 282.1428571428572 390.17857142857144 282.5892857142858 390.625 Q 283.03571428571433 391.07142857142856 283.92857142857144 391.5178571428571 Q 284.82142857142856 391.9642857142857 285.26785714285717 391.9642857142857 Q 285.7142857142858 391.9642857142857 286.6071428571429 392.4107142857143 Q 287.5 392.85714285714283 288.39285714285717 393.30357142857144 Q 289.28571428571433 393.75 290.62500000000006 394.19642857142856 Q 291.9642857142858 394.6428571428571 292.41071428571433 395.08928571428567 Q 292.8571428571429 395.5357142857143 293.30357142857144 395.9821428571429 Q 293.75 396.42857142857144 295.0892857142857 396.42857142857144 Q 296.42857142857144 396.42857142857144 296.875 396.875 Q 297.32142857142856 397.32142857142856 298.6607142857143 397.7678571428571 Q 300 398.2142857142857 300.89285714285717 398.6607142857143 Q 301.78571428571433 399.10714285714283 302.67857142857144 399.55357142857144 Q 303.57142857142856 400 304.4642857142857 400 Q 305.3571428571429 400 306.25000000000006 400.44642857142856 Q 307.1428571428572 400.8928571428571 307.5892857142858 400.8928571428571 Q 308.03571428571433 400.8928571428571 309.37500000000006 401.33928571428567 Q 310.7142857142858 401.7857142857143 311.6071428571429 402.2321428571429 Q 312.5 402.67857142857144 313.8392857142857 403.57142857142856 Q 315.17857142857144 404.4642857142857 316.51785714285717 404.4642857142857 Q 317.8571428571429 404.4642857142857 318.75000000000006 405.3571428571429 Q 319.6428571428572 406.25 320.9821428571429 406.69642857142856 Q 322.32142857142856 407.1428571428571 323.2142857142857 407.1428571428571 Q 324.1071428571429 407.1428571428571 325.4464285714286 407.58928571428567 Q 326.78571428571433 408.0357142857143 328.12500000000006 408.4821428571429 Q 329.4642857142858 408.92857142857144 330.8035714285715 409.375 Q 332.1428571428572 409.82142857142856 332.5892857142858 410.2678571428571 Q 333.03571428571433 410.7142857142857 333.92857142857144 411.1607142857143 Q 334.82142857142856 411.60714285714283 335.26785714285717 412.05357142857144 Q 335.7142857142858 412.5 336.60714285714295 412.94642857142856 Q 337.5000000000001 413.3928571428571 338.3928571428572 414.2857142857143 Q 339.28571428571433 415.17857142857144 340.1785714285715 415.17857142857144 Q 341.07142857142867 415.17857142857144 341.5178571428572 416.07142857142856 Q 341.9642857142858 416.9642857142857 342.85714285714295 417.4107142857143 Q 343.7500000000001 417.85714285714283 344.6428571428572 417.85714285714283 Q 345.53571428571433 417.85714285714283 345.9821428571429 418.30357142857144 Q 346.42857142857144 418.75 346.87500000000006 418.75 Q 347.32142857142867 418.75 347.7678571428572 419.19642857142856 Q 348.2142857142858 419.6428571428571 348.66071428571433 420.08928571428567 Q 349.1071428571429 420.5357142857143 349.1071428571429 420.9821428571429 Q 349.1071428571429 421.42857142857144 350.00000000000006 421.875 Q 350.8928571428572 422.32142857142856 351.3392857142858 422.7678571428571 Q 351.78571428571433 423.2142857142857 351.78571428571433 424.1071428571429 Q 351.78571428571433 425 352.2321428571429 425.44642857142856 Q 352.67857142857144 425.8928571428571 353.12500000000006 426.7857142857143 Q 353.57142857142867 427.67857142857144 354.0178571428572 428.125 Q 354.4642857142858 428.57142857142856 354.4642857142858 429.0178571428571 Q 354.4642857142858 429.4642857142857 354.91071428571433 429.9107142857143 Q 355.3571428571429 430.35714285714283 355.3571428571429 430.80357142857144 Q 355.3571428571429 431.25 355.3571428571429 432.1428571428571 Q 355.3571428571429 433.0357142857143 355.3571428571429 433.4821428571429 Q 355.3571428571429 433.92857142857144 355.3571428571429 434.82142857142856 Q 355.3571428571429 435.7142857142857 355.3571428571429 436.1607142857143 Q 355.3571428571429 436.60714285714283 354.91071428571433 436.60714285714283 Q 354.4642857142858 436.60714285714283 354.0178571428572 437.05357142857144 Q 353.57142857142867 437.5 352.6785714285715 437.94642857142856 L 351.78471428571436 438.3938571428571" stroke-linecap="round" />
</g>
<g transform="matrix(1 0 0 1 196.43 350)" id="N_vEZYKu5oMe1cMZunsPV"  >
<path style="stroke: rgb(0,0,0); stroke-width: 1; stroke-dasharray: none; stroke-linecap: round; stroke-dashoffset: 0; stroke-linejoin: round; stroke-miterlimit: 10; fill: none; fill-rule: nonzero; opacity: 1;" vector-effect="non-scaling-stroke"  transform=" translate(-196.43, -350)" d="M 178.5724285714286 304.46328571428575 Q 178.57142857142858 304.4642857142857 177.67857142857144 304.4642857142857 Q 176.7857142857143 304.4642857142857 176.33928571428572 304.9107142857143 Q 175.89285714285714 305.35714285714283 175 305.35714285714283 Q 174.10714285714286 305.35714285714283 173.21428571428572 305.80357142857144 Q 172.32142857142858 306.25 171.87500000000003 306.69642857142856 Q 171.42857142857147 307.1428571428571 170.08928571428575 307.58928571428567 Q 168.75000000000003 308.0357142857143 168.30357142857144 309.375 Q 167.85714285714286 310.7142857142857 166.51785714285717 311.1607142857143 Q 165.17857142857147 311.60714285714283 164.7321428571429 312.5 Q 164.2857142857143 313.3928571428571 162.94642857142858 314.2857142857142 Q 161.60714285714286 315.1785714285714 161.1607142857143 315.625 Q 160.71428571428575 316.07142857142856 159.8214285714286 316.96428571428567 Q 158.92857142857147 317.85714285714283 158.4821428571429 318.30357142857144 Q 158.0357142857143 318.75 157.14285714285717 320.08928571428567 Q 156.25000000000003 321.4285714285714 155.3571428571429 321.875 Q 154.46428571428575 322.32142857142856 153.5714285714286 323.6607142857143 Q 152.67857142857147 325 151.7857142857143 325.44642857142856 Q 150.89285714285714 325.8928571428571 150.44642857142858 326.7857142857142 Q 150.00000000000003 327.6785714285714 149.55357142857144 328.57142857142856 Q 149.10714285714286 329.4642857142857 149.10714285714286 330.80357142857144 Q 149.10714285714286 332.1428571428571 148.21428571428572 332.58928571428567 Q 147.32142857142858 333.0357142857143 147.32142857142858 333.92857142857144 Q 147.32142857142858 334.82142857142856 147.32142857142858 335.71428571428567 Q 147.32142857142858 336.60714285714283 147.32142857142858 338.3928571428571 Q 147.32142857142858 340.1785714285714 147.32142857142858 341.5178571428571 Q 147.32142857142858 342.85714285714283 147.32142857142858 343.75 Q 147.32142857142858 344.6428571428571 147.32142857142858 345.98214285714283 Q 147.32142857142858 347.32142857142856 147.32142857142858 348.21428571428567 Q 147.32142857142858 349.10714285714283 147.32142857142858 349.55357142857144 Q 147.32142857142858 350 147.32142857142858 350.8928571428571 Q 147.32142857142858 351.7857142857143 147.32142857142858 352.23214285714283 Q 147.32142857142858 352.6785714285714 147.76785714285717 354.0178571428571 Q 148.21428571428575 355.35714285714283 148.6607142857143 356.25 Q 149.10714285714286 357.1428571428571 149.55357142857144 358.0357142857142 Q 150.00000000000003 358.9285714285714 150.00000000000003 360.2678571428571 Q 150.00000000000003 361.60714285714283 150.44642857142858 362.05357142857144 Q 150.89285714285714 362.5 151.33928571428572 363.3928571428571 Q 151.7857142857143 364.2857142857143 151.7857142857143 364.7321428571429 Q 151.7857142857143 365.17857142857144 152.2321428571429 366.07142857142856 Q 152.67857142857147 366.9642857142857 153.12500000000003 367.4107142857143 Q 153.57142857142858 367.85714285714283 153.57142857142858 368.75 Q 153.57142857142858 369.6428571428571 154.46428571428572 370.5357142857143 Q 155.35714285714286 371.42857142857144 156.25 372.7678571428571 Q 157.14285714285714 374.10714285714283 157.58928571428572 374.55357142857144 Q 158.0357142857143 375 158.92857142857144 375.8928571428571 Q 159.82142857142858 376.7857142857143 160.71428571428572 378.125 Q 161.60714285714286 379.4642857142857 162.5 380.3571428571429 Q 163.39285714285714 381.25 164.2857142857143 381.69642857142856 Q 165.17857142857147 382.1428571428571 166.51785714285717 383.0357142857143 Q 167.85714285714286 383.92857142857144 168.30357142857144 384.82142857142856 Q 168.75000000000003 385.7142857142857 170.08928571428575 385.7142857142857 Q 171.42857142857147 385.7142857142857 171.87500000000003 386.6071428571429 Q 172.32142857142858 387.5 173.6607142857143 387.94642857142856 Q 175.00000000000003 388.3928571428571 176.33928571428575 388.83928571428567 Q 177.67857142857147 389.2857142857143 178.12500000000003 390.17857142857144 Q 178.57142857142858 391.07142857142856 179.9107142857143 391.5178571428571 Q 181.25000000000003 391.9642857142857 182.58928571428575 392.4107142857143 Q 183.92857142857147 392.85714285714283 185.26785714285717 392.85714285714283 Q 186.60714285714286 392.85714285714283 187.94642857142858 393.75 Q 189.2857142857143 394.6428571428571 191.07142857142858 394.6428571428571 Q 192.85714285714286 394.6428571428571 193.75 395.08928571428567 Q 194.64285714285714 395.5357142857143 195.5357142857143 395.5357142857143 Q 196.42857142857147 395.5357142857143 197.3214285714286 395.9821428571429 Q 198.21428571428575 396.42857142857144 199.1071428571429 396.42857142857144 Q 200.00000000000003 396.42857142857144 200.89285714285717 396.42857142857144 Q 201.7857142857143 396.42857142857144 202.67857142857144 396.42857142857144 Q 203.57142857142858 396.42857142857144 205.3571428571429 396.42857142857144 Q 207.1428571428572 396.42857142857144 208.92857142857147 396.875 Q 210.71428571428575 397.32142857142856 212.50000000000003 397.32142857142856 Q 214.2857142857143 397.32142857142856 215.17857142857144 397.32142857142856 Q 216.07142857142858 397.32142857142856 217.4107142857143 397.32142857142856 Q 218.75000000000003 397.32142857142856 219.64285714285717 397.32142857142856 Q 220.5357142857143 397.32142857142856 221.42857142857144 397.32142857142856 Q 222.32142857142858 397.32142857142856 223.6607142857143 397.32142857142856 Q 225.00000000000003 397.32142857142856 225.89285714285717 397.32142857142856 Q 226.7857142857143 397.32142857142856 227.2321428571429 397.32142857142856 Q 227.67857142857147 397.32142857142856 228.5714285714286 396.875 Q 229.46428571428575 396.42857142857144 229.9107142857143 395.9821428571429 Q 230.35714285714286 395.5357142857143 231.25000000000003 394.6428571428571 Q 232.1428571428572 393.75 233.03571428571433 393.30357142857144 Q 233.92857142857147 392.85714285714283 234.37500000000003 392.4107142857143 Q 234.82142857142858 391.9642857142857 235.26785714285717 391.07142857142856 Q 235.71428571428575 390.17857142857144 236.6071428571429 389.7321428571429 Q 237.50000000000003 389.2857142857143 237.9464285714286 388.83928571428567 Q 238.3928571428572 388.3928571428571 239.7321428571429 387.5 Q 241.07142857142858 386.60714285714283 241.51785714285717 385.71428571428567 Q 241.96428571428575 384.82142857142856 242.4107142857143 383.92857142857144 Q 242.85714285714286 383.0357142857143 243.30357142857144 382.1428571428571 Q 243.75000000000003 381.25 244.1964285714286 379.9107142857143 Q 244.6428571428572 378.57142857142856 245.08928571428575 377.67857142857144 Q 245.5357142857143 376.7857142857143 245.5357142857143 375.8928571428571 Q 245.5357142857143 375 245.5357142857143 373.6607142857143 Q 245.5357142857143 372.32142857142856 245.5357142857143 371.875 Q 245.5357142857143 371.42857142857144 245.5357142857143 370.5357142857143 Q 245.5357142857143 369.6428571428571 245.5357142857143 368.30357142857144 Q 245.5357142857143 366.9642857142857 245.5357142857143 366.07142857142856 Q 245.5357142857143 365.17857142857144 245.5357142857143 364.2857142857143 Q 245.5357142857143 363.3928571428571 245.5357142857143 362.05357142857144 Q 245.5357142857143 360.7142857142857 245.5357142857143 359.82142857142856 Q 245.5357142857143 358.9285714285714 245.5357142857143 358.48214285714283 Q 245.5357142857143 358.0357142857143 245.5357142857143 357.1428571428571 Q 245.5357142857143 356.25 245.5357142857143 355.3571428571429 Q 245.5357142857143 354.4642857142857 245.5357142857143 353.125 Q 245.5357142857143 351.7857142857143 245.5357142857143 350.44642857142856 Q 245.5357142857143 349.10714285714283 245.08928571428575 347.7678571428571 Q 244.6428571428572 346.4285714285714 244.6428571428572 345.5357142857142 Q 244.6428571428572 344.6428571428571 244.1964285714286 343.30357142857144 Q 243.75000000000003 341.9642857142857 243.30357142857144 340.625 Q 242.85714285714286 339.2857142857143 242.4107142857143 337.94642857142856 Q 241.96428571428575 336.60714285714283 241.51785714285717 335.71428571428567 Q 241.07142857142858 334.82142857142856 241.07142857142858 333.92857142857144 Q 241.07142857142858 333.0357142857143 240.17857142857144 332.1428571428571 Q 239.2857142857143 331.25 239.2857142857143 330.3571428571429 Q 239.2857142857143 329.4642857142857 238.83928571428575 329.4642857142857 Q 238.3928571428572 329.4642857142857 238.3928571428572 328.57142857142856 Q 238.3928571428572 327.6785714285714 237.9464285714286 327.6785714285714 Q 237.50000000000003 327.6785714285714 236.6071428571429 326.7857142857142 Q 235.71428571428575 325.8928571428571 235.71428571428575 325.44642857142856 Q 235.71428571428575 325 234.8214285714286 324.1071428571429 Q 233.92857142857147 323.2142857142857 233.03571428571433 322.32142857142856 Q 232.1428571428572 321.4285714285714 230.3571428571429 320.5357142857142 Q 228.57142857142858 319.6428571428571 227.67857142857144 319.19642857142856 Q 226.7857142857143 318.75 225.89285714285717 317.4107142857143 Q 225.00000000000003 316.07142857142856 224.1071428571429 315.625 Q 223.21428571428575 315.1785714285714 222.3214285714286 314.2857142857142 Q 221.42857142857147 313.3928571428571 220.53571428571433 312.94642857142856 Q 219.6428571428572 312.5 218.75000000000003 312.05357142857144 Q 217.85714285714286 311.60714285714283 216.96428571428572 311.60714285714283 Q 216.07142857142858 311.60714285714283 215.62500000000003 311.1607142857143 Q 215.17857142857147 310.7142857142857 214.28571428571433 310.2678571428571 Q 213.3928571428572 309.82142857142856 212.50000000000003 309.375 Q 211.60714285714286 308.9285714285714 210.26785714285717 308.48214285714283 Q 208.92857142857147 308.0357142857143 207.58928571428575 307.58928571428567 Q 206.25000000000003 307.1428571428571 205.3571428571429 307.1428571428571 Q 204.46428571428575 307.1428571428571 202.67857142857144 306.69642857142856 Q 200.89285714285714 306.25 200 305.80357142857144 Q 199.10714285714286 305.35714285714283 198.21428571428572 305.35714285714283 Q 197.32142857142858 305.35714285714283 195.5357142857143 304.9107142857143 Q 193.75000000000003 304.4642857142857 192.4107142857143 304.4642857142857 Q 191.07142857142858 304.4642857142857 190.17857142857144 304.0178571428571 Q 189.2857142857143 303.57142857142856 187.94642857142858 303.57142857142856 Q 186.60714285714286 303.57142857142856 185.26785714285717 303.125 Q 183.92857142857147 302.6785714285714 183.0357142857143 302.6785714285714 Q 182.14285714285714 302.6785714285714 181.25 302.6785714285714 Q 180.35714285714286 302.6785714285714 179.9107142857143 302.6785714285714 Q 179.46428571428575 302.6785714285714 179.01785714285717 302.6785714285714 Q 178.57142857142858 302.6785714285714 178.12500000000003 302.6785714285714 Q 177.67857142857147 302.6785714285714 176.7857142857143 302.6785714285714 Q 175.89285714285714 302.6785714285714 174.55357142857144 302.6785714285714 Q 173.21428571428575 302.6785714285714 172.76785714285717 303.125 Q 172.32142857142858 303.57142857142856 171.87500000000003 303.57142857142856 Q 171.42857142857147 303.57142857142856 170.9821428571429 303.57142857142856 Q 170.5357142857143 303.57142857142856 170.5357142857143 304.0178571428571 Q 170.5357142857143 304.4642857142857 170.08928571428572 304.9107142857143 Q 169.64285714285714 305.35714285714283 169.19642857142858 305.35714285714283 Q 168.75000000000003 305.35714285714283 168.75000000000003 305.80357142857144 Q 168.75000000000003 306.25 168.75000000000003 306.69642857142856 Q 168.75000000000003 307.1428571428571 168.30357142857144 307.1428571428571 Q 167.85714285714286 307.1428571428571 166.96428571428572 307.58928571428567 Q 166.07142857142858 308.0357142857143 165.62500000000003 308.92857142857144 L 165.17757142857147 309.82242857142853" stroke-linecap="round" />
</g>
</svg>