<?xml version="1.0" encoding="UTF-8" standalone="no" ?>
<!DOCTYPE svg PUBLIC "-//W3C//DTD SVG 1.1//EN" "http://www.w3.org/Graphics/SVG/1.1/DTD/svg11.dtd">
<svg xmlns="http://www.w3.org/2000/svg" xmlns:xlink="http://www.w3.org/1999/xlink" version="1.1" width="500" height="500" viewBox="0 0 500 500" xml:space="preserve">
<desc>Created with Fabric.js 4.6.0</desc>
<defs>
</defs>
<g transform="matrix(1 0 0 1 -47.32 341.96)" id="Vrsb1J2TBxJcYQZFR7Pc0"  >
<path style="stroke: rgb(0,0,0); stroke-width: 1; stroke-dasharray: none; stroke-linecap: round; stroke-dashoffset: 0; stroke-linejoin: round; stroke-miterlimit: 10; fill: none; fill-rule: nonzero; opacity: 1;" vector-effect="non-scaling-stroke"  transform=" translate(47.32, -341.96)" d="M -47.32242857142855 341.9642857142857 L -47.32042857142856 341.9642857142857" stroke-linecap="round" />
</g>
<g transform="matrix(1 0 0 1 -89.29 97.32)" id="Vb1__8aXjPMBDDhne10iO"  >
<path style="stroke: rgb(0,0,0); stroke-width: 1; stroke-dasharray: none; stroke-linecap: round; stroke-dashoffset: 0; stroke-linejoin: round; stroke-miterlimit: 10; fill: none; fill-rule: nonzero; opacity: 1;" vector-effect="non-scaling-stroke"  transform=" translate(89.29, -97.32)" d="M -89.28671428571425 97.32142857142858 L -89.28471428571424 97.32142857142858" stroke-linecap="round" />
</g>
<g transform="matrix(1 0 0 1 178.13 500.74)" id="Ds72vCIBsEYKWUOL7_mGt"  >
<path style="stroke: rgb(0,0,0); stroke-width: 1; stroke-dasharray: none; stroke-linecap: round; stroke-dashoffset: 0; stroke-linejoin: round; stroke-miterlimit: 10; fill: none; fill-rule: nonzero; opacity: 1;" vector-effect="non-scaling-stroke"  transform=" translate(-178.13, -500.74)" d="M 173.21328571428575 495.5347142857144 Q 173.21428571428575 495.5357142857144 175.00000000000003 499.10714285714295 Q 176.7857142857143 502.6785714285715 177.2321428571429 503.5714285714286 Q 177.67857142857147 504.4642857142857 178.5714285714286 505.3571428571429 Q 179.46428571428575 506.25000000000006 181.25000000000003 504.4642857142858 L 183.0367142857143 502.6775714285715" stroke-linecap="round" />
</g>
<g transform="matrix(1 0 0 1 212.05 505.8)" id="NYhQ-B90u_ly6OGZrve3g"  >
<path style="stroke: rgb(0,0,0); stroke-width: 1; stroke-dasharray: none; stroke-linecap: round; stroke-dashoffset: 0; stroke-linejoin: round; stroke-miterlimit: 10; fill: none; fill-rule: nonzero; opacity: 1;" vector-effect="non-scaling-stroke"  transform=" translate(-212.05, -505.8)" d="M 205.35614285714286 501.7847142857144 Q 205.35714285714286 501.7857142857144 207.14285714285717 503.12500000000006 Q 208.92857142857147 504.4642857142857 210.26785714285717 505.80357142857144 Q 211.60714285714286 507.14285714285717 212.50000000000003 508.4821428571429 Q 213.3928571428572 509.8214285714286 214.28571428571433 509.8214285714286 Q 215.17857142857147 509.8214285714286 216.96428571428575 509.37500000000006 L 218.75100000000003 508.9275714285715" stroke-linecap="round" />
</g>
<g transform="matrix(1 0 0 1 223.21 253.94)" id="DBRMSYVWfFghjUjNYiGsQ"  >
<path style="stroke: rgb(0,0,0); stroke-width: 1; stroke-dasharray: none; stroke-linecap: round; stroke-dashoffset: 0; stroke-linejoin: round; stroke-miterlimit: 10; fill: none; fill-rule: nonzero; opacity: 1;" vector-effect="non-scaling-stroke"  transform=" translate(-223.21, -253.94)" d="M 147.32142857142858 62.49899999999999 Q 147.32142857142858 62.499999999999986 147.32142857142858 62.946428571428555 Q 147.32142857142858 63.392857142857125 147.32142857142858 64.28571428571428 Q 147.32142857142858 65.17857142857142 146.87500000000003 66.51785714285714 Q 146.42857142857147 67.85714285714285 146.42857142857147 69.19642857142856 Q 146.42857142857147 70.53571428571428 146.42857142857147 71.42857142857142 Q 146.42857142857147 72.32142857142856 146.42857142857147 73.66071428571428 Q 146.42857142857147 74.99999999999999 145.9821428571429 76.3392857142857 Q 145.5357142857143 77.67857142857142 145.08928571428572 78.57142857142856 Q 144.64285714285714 79.46428571428571 144.64285714285714 80.80357142857142 Q 144.64285714285714 82.14285714285712 144.64285714285714 83.03571428571428 Q 144.64285714285714 83.92857142857142 144.64285714285714 85.7142857142857 Q 144.64285714285714 87.49999999999999 144.64285714285714 88.8392857142857 Q 144.64285714285714 90.17857142857142 144.64285714285714 91.9642857142857 Q 144.64285714285714 93.74999999999999 144.64285714285714 95.98214285714285 Q 144.64285714285714 98.21428571428571 144.64285714285714 100 Q 144.64285714285714 101.78571428571428 145.5357142857143 104.01785714285714 Q 146.42857142857147 106.24999999999999 146.87500000000003 108.48214285714285 Q 147.32142857142858 110.71428571428571 148.21428571428572 112.94642857142857 Q 149.10714285714286 115.17857142857143 150.44642857142858 117.41071428571428 Q 151.7857142857143 119.64285714285712 153.12500000000003 122.32142857142856 Q 154.46428571428575 124.99999999999999 155.80357142857144 127.23214285714286 Q 157.14285714285714 129.46428571428572 158.48214285714286 131.69642857142858 Q 159.82142857142858 133.92857142857144 162.05357142857144 136.16071428571428 Q 164.2857142857143 138.3928571428571 166.07142857142858 140.17857142857142 Q 167.85714285714286 141.96428571428572 170.08928571428572 143.75 Q 172.32142857142858 145.53571428571428 174.55357142857144 146.42857142857142 Q 176.7857142857143 147.32142857142856 179.01785714285717 148.66071428571428 Q 181.25000000000003 150 183.92857142857144 150.89285714285714 Q 186.60714285714286 151.78571428571428 189.73214285714286 152.23214285714286 Q 192.85714285714286 152.67857142857144 195.08928571428572 153.57142857142858 Q 197.32142857142858 154.46428571428572 200.00000000000003 154.46428571428572 Q 202.67857142857147 154.46428571428572 204.46428571428575 154.91071428571428 Q 206.25000000000003 155.35714285714283 207.58928571428575 155.80357142857142 Q 208.92857142857147 156.25 209.8214285714286 156.25 Q 210.71428571428575 156.25 212.05357142857147 156.69642857142856 Q 213.3928571428572 157.1428571428571 215.17857142857147 158.03571428571428 Q 216.96428571428575 158.92857142857144 218.75000000000003 159.375 Q 220.5357142857143 159.82142857142856 222.32142857142858 161.16071428571428 Q 224.10714285714286 162.5 226.33928571428572 162.94642857142856 Q 228.57142857142858 163.3928571428571 230.3571428571429 164.73214285714283 Q 232.1428571428572 166.07142857142856 234.37500000000003 166.9642857142857 Q 236.60714285714286 167.85714285714283 237.94642857142858 169.19642857142856 Q 239.2857142857143 170.53571428571428 241.07142857142858 171.42857142857142 Q 242.85714285714286 172.32142857142856 244.64285714285717 173.66071428571428 Q 246.42857142857147 175 248.21428571428575 176.33928571428572 Q 250.00000000000003 177.67857142857144 251.7857142857143 179.46428571428572 Q 253.57142857142858 181.25 254.91071428571428 182.14285714285714 Q 256.25 183.03571428571428 257.14285714285717 183.92857142857142 Q 258.03571428571433 184.82142857142856 259.37500000000006 186.60714285714283 Q 260.7142857142858 188.3928571428571 262.50000000000006 189.73214285714283 Q 264.28571428571433 191.07142857142856 266.0714285714286 192.85714285714283 Q 267.8571428571429 194.6428571428571 269.1964285714286 196.42857142857142 Q 270.53571428571433 198.21428571428572 272.76785714285717 200.44642857142858 Q 275 202.67857142857144 276.3392857142857 204.46428571428572 Q 277.67857142857144 206.25 279.01785714285717 208.03571428571428 Q 280.3571428571429 209.82142857142856 281.6964285714286 211.60714285714283 Q 283.03571428571433 213.3928571428571 283.92857142857144 215.17857142857142 Q 284.82142857142856 216.96428571428572 286.6071428571429 219.19642857142858 Q 288.3928571428572 221.42857142857144 289.7321428571429 223.66071428571428 Q 291.07142857142856 225.8928571428571 292.4107142857143 227.67857142857142 Q 293.75 229.46428571428572 294.64285714285717 231.69642857142858 Q 295.53571428571433 233.92857142857144 296.42857142857144 236.60714285714286 Q 297.32142857142856 239.28571428571428 297.76785714285717 241.51785714285714 Q 298.2142857142858 243.75 299.1071428571429 245.53571428571428 Q 300 247.32142857142856 300.4464285714286 249.55357142857142 Q 300.8928571428572 251.78571428571428 301.3392857142858 254.01785714285714 Q 301.78571428571433 256.25 301.78571428571433 258.4821428571429 Q 301.78571428571433 260.7142857142857 301.78571428571433 262.94642857142856 Q 301.78571428571433 265.1785714285714 301.78571428571433 266.96428571428567 Q 301.78571428571433 268.75 301.78571428571433 270.5357142857143 Q 301.78571428571433 272.32142857142856 301.78571428571433 274.10714285714283 Q 301.78571428571433 275.8928571428571 300.89285714285717 277.67857142857144 Q 300 279.4642857142857 299.55357142857144 280.3571428571429 Q 299.1071428571429 281.25 298.2142857142857 283.0357142857143 Q 297.32142857142856 284.82142857142856 296.42857142857144 286.1607142857143 Q 295.53571428571433 287.5 295.0892857142858 288.3928571428571 Q 294.6428571428572 289.2857142857143 293.3035714285715 290.625 Q 291.9642857142858 291.9642857142857 290.62500000000006 293.30357142857144 Q 289.28571428571433 294.6428571428571 287.9464285714286 295.08928571428567 Q 286.6071428571429 295.5357142857143 285.26785714285717 296.875 Q 283.92857142857144 298.2142857142857 283.03571428571433 298.6607142857143 Q 282.1428571428572 299.10714285714283 281.25000000000006 299.10714285714283 Q 280.3571428571429 299.10714285714283 279.4642857142857 300 Q 278.57142857142856 300.8928571428571 277.67857142857144 301.33928571428567 Q 276.78571428571433 301.7857142857143 276.3392857142858 301.7857142857143 Q 275.8928571428572 301.7857142857143 274.5535714285715 302.23214285714283 Q 273.2142857142858 302.6785714285714 271.4285714285715 303.125 Q 269.6428571428572 303.57142857142856 268.3035714285715 304.46428571428567 Q 266.9642857142858 305.35714285714283 266.0714285714286 305.80357142857144 Q 265.17857142857144 306.25 263.39285714285717 306.25 Q 261.6071428571429 306.25 260.26785714285717 306.69642857142856 Q 258.92857142857144 307.1428571428571 257.14285714285717 308.0357142857142 Q 255.35714285714286 308.9285714285714 253.12500000000003 309.82142857142856 Q 250.8928571428572 310.7142857142857 248.21428571428575 312.05357142857144 Q 245.5357142857143 313.3928571428571 242.4107142857143 314.73214285714283 Q 239.2857142857143 316.07142857142856 235.71428571428575 317.4107142857143 Q 232.1428571428572 318.75 229.91071428571433 319.6428571428571 Q 227.67857142857147 320.5357142857143 225.00000000000003 321.875 Q 222.32142857142858 323.2142857142857 220.9821428571429 324.1071428571429 Q 219.6428571428572 325 218.30357142857147 325.44642857142856 Q 216.96428571428575 325.8928571428571 216.51785714285717 326.7857142857142 Q 216.07142857142858 327.6785714285714 215.62500000000003 328.125 Q 215.17857142857147 328.57142857142856 214.28571428571433 329.9107142857143 Q 213.3928571428572 331.25 212.9464285714286 332.1428571428571 Q 212.50000000000003 333.0357142857143 210.71428571428575 334.82142857142856 Q 208.92857142857147 336.60714285714283 207.14285714285717 338.3928571428571 Q 205.35714285714286 340.1785714285714 204.01785714285717 342.4107142857142 Q 202.67857142857147 344.6428571428571 201.33928571428575 345.98214285714283 Q 200.00000000000003 347.32142857142856 199.1071428571429 349.10714285714283 Q 198.21428571428575 350.8928571428571 197.76785714285717 352.67857142857144 Q 197.32142857142858 354.4642857142857 196.87500000000003 356.25 Q 196.42857142857147 358.0357142857143 195.5357142857143 359.82142857142856 Q 194.64285714285714 361.60714285714283 194.19642857142858 362.94642857142856 Q 193.75000000000003 364.2857142857143 193.30357142857144 366.5178571428571 Q 192.85714285714286 368.75 192.85714285714286 370.0892857142857 Q 192.85714285714286 371.42857142857144 192.85714285714286 373.2142857142857 Q 192.85714285714286 375 192.85714285714286 376.3392857142857 Q 192.85714285714286 377.67857142857144 192.85714285714286 379.9107142857143 Q 192.85714285714286 382.1428571428571 192.85714285714286 384.375 Q 192.85714285714286 386.60714285714283 192.85714285714286 388.83928571428567 Q 192.85714285714286 391.07142857142856 192.85714285714286 392.85714285714283 Q 192.85714285714286 394.6428571428571 192.85714285714286 396.875 Q 192.85714285714286 399.10714285714283 192.85714285714286 401.7857142857143 Q 192.85714285714286 404.4642857142857 192.85714285714286 406.25 Q 192.85714285714286 408.0357142857143 192.85714285714286 410.2678571428571 Q 192.85714285714286 412.5 192.85714285714286 414.7321428571429 Q 192.85714285714286 416.9642857142857 192.85714285714286 419.19642857142856 Q 192.85714285714286 421.42857142857144 192.85714285714286 423.6607142857143 Q 192.85714285714286 425.8928571428571 193.30357142857144 427.67857142857144 Q 193.75000000000003 429.4642857142857 193.75000000000003 430.80357142857144 Q 193.75000000000003 432.1428571428571 193.75000000000003 433.92857142857144 Q 193.75000000000003 435.7142857142857 193.75000000000003 437.05357142857144 Q 193.75000000000003 438.3928571428571 194.19642857142858 440.17857142857144 Q 194.64285714285714 441.9642857142857 195.08928571428572 442.4107142857143 Q 195.5357142857143 442.85714285714283 195.5357142857143 443.75 Q 195.5357142857143 444.6428571428571 195.5357142857143 445.08928571428567 Q 195.5357142857143 445.5357142857143 195.5357142857143 444.6428571428571 Q 195.5357142857143 443.75 195.08928571428572 438.8392857142857 L 194.64185714285713 433.92757142857147" stroke-linecap="round" />
</g>
<g transform="matrix(1 0 0 1 267.86 252.68)" id="bGAM9-2zZACG-nTAi7mOS"  >
<path style="stroke: rgb(0,0,0); stroke-width: 1; stroke-dasharray: none; stroke-linecap: round; stroke-dashoffset: 0; stroke-linejoin: round; stroke-miterlimit: 10; fill: none; fill-rule: nonzero; opacity: 1;" vector-effect="non-scaling-stroke"  transform=" translate(-267.86, -252.68)" d="M 337.5000000000001 57.14185714285713 Q 337.5000000000001 57.142857142857125 338.3928571428572 57.142857142857125 Q 339.28571428571433 57.142857142857125 339.28571428571433 57.5892857142857 Q 339.28571428571433 58.03571428571428 340.1785714285715 60.26785714285713 Q 341.07142857142867 62.499999999999986 341.5178571428572 64.28571428571428 Q 341.9642857142858 66.07142857142856 342.41071428571433 67.85714285714283 Q 342.8571428571429 69.64285714285712 342.8571428571429 72.32142857142856 Q 342.8571428571429 74.99999999999999 342.8571428571429 77.23214285714285 Q 342.8571428571429 79.46428571428571 343.3035714285715 81.69642857142856 Q 343.7500000000001 83.92857142857142 343.7500000000001 86.16071428571428 Q 343.7500000000001 88.39285714285712 343.7500000000001 90.17857142857142 Q 343.7500000000001 91.96428571428571 343.7500000000001 94.64285714285714 Q 343.7500000000001 97.32142857142856 343.3035714285715 99.55357142857142 Q 342.8571428571429 101.78571428571428 341.9642857142858 103.57142857142856 Q 341.07142857142867 105.35714285714285 340.62500000000006 107.5892857142857 Q 340.17857142857144 109.82142857142856 339.28571428571433 111.16071428571428 Q 338.3928571428572 112.49999999999999 337.0535714285715 114.28571428571428 Q 335.7142857142858 116.07142857142857 333.9285714285715 118.30357142857142 Q 332.1428571428572 120.53571428571426 330.8035714285715 121.87499999999999 Q 329.4642857142858 123.21428571428571 327.6785714285715 124.10714285714285 Q 325.8928571428572 124.99999999999999 325.00000000000006 125.89285714285712 Q 324.1071428571429 126.78571428571426 322.3214285714286 127.67857142857142 Q 320.53571428571433 128.57142857142856 318.30357142857144 129.4642857142857 Q 316.07142857142856 130.35714285714283 314.2857142857143 130.80357142857142 Q 312.5 131.25 310.7142857142857 131.69642857142856 Q 308.92857142857144 132.1428571428571 306.25 133.48214285714283 Q 303.57142857142856 134.82142857142856 301.3392857142857 135.26785714285714 Q 299.1071428571429 135.71428571428572 297.3214285714286 136.60714285714286 Q 295.53571428571433 137.5 293.75000000000006 137.94642857142856 Q 291.9642857142858 138.3928571428571 290.62500000000006 138.8392857142857 Q 289.28571428571433 139.28571428571428 287.50000000000006 140.625 Q 285.7142857142858 141.96428571428572 283.9285714285715 142.41071428571428 Q 282.1428571428572 142.85714285714283 279.91071428571433 144.19642857142856 Q 277.67857142857144 145.53571428571428 275.89285714285717 145.98214285714286 Q 274.1071428571429 146.42857142857144 271.87500000000006 147.76785714285714 Q 269.6428571428572 149.10714285714283 267.41071428571433 149.99999999999997 Q 265.17857142857144 150.8928571428571 262.5 151.78571428571428 Q 259.82142857142856 152.67857142857144 258.0357142857143 152.67857142857144 Q 256.25 152.67857142857144 254.01785714285717 153.125 Q 251.7857142857143 153.57142857142856 250.44642857142858 154.01785714285714 Q 249.10714285714286 154.46428571428572 248.21428571428572 154.91071428571428 Q 247.32142857142858 155.35714285714283 245.9821428571429 155.80357142857142 Q 244.6428571428572 156.25 243.75000000000003 156.25 Q 242.85714285714286 156.25 241.51785714285717 157.14285714285714 Q 240.17857142857147 158.03571428571428 238.39285714285717 158.92857142857142 Q 236.60714285714286 159.82142857142856 235.26785714285717 160.26785714285714 Q 233.92857142857147 160.71428571428572 232.14285714285717 162.05357142857142 Q 230.35714285714286 163.3928571428571 228.57142857142858 163.8392857142857 Q 226.7857142857143 164.28571428571428 225.00000000000003 165.17857142857142 Q 223.21428571428575 166.07142857142856 221.42857142857147 167.41071428571428 Q 219.6428571428572 168.75 217.8571428571429 169.64285714285714 Q 216.07142857142858 170.53571428571428 214.2857142857143 172.32142857142856 Q 212.50000000000003 174.10714285714283 211.1607142857143 174.55357142857142 Q 209.82142857142858 175 208.92857142857144 176.33928571428572 Q 208.0357142857143 177.67857142857144 206.69642857142858 178.57142857142858 Q 205.35714285714286 179.46428571428572 204.9107142857143 180.80357142857142 Q 204.46428571428575 182.1428571428571 203.5714285714286 183.03571428571428 Q 202.67857142857147 183.92857142857144 201.7857142857143 184.82142857142858 Q 200.89285714285714 185.71428571428572 200 187.5 Q 199.10714285714286 189.28571428571428 198.6607142857143 190.17857142857142 Q 198.21428571428575 191.07142857142856 197.76785714285717 192.41071428571428 Q 197.32142857142858 193.75 197.32142857142858 194.64285714285714 Q 197.32142857142858 195.53571428571428 196.87500000000003 196.875 Q 196.42857142857147 198.21428571428572 195.9821428571429 200 Q 195.5357142857143 201.78571428571428 194.64285714285717 204.4642857142857 Q 193.75000000000003 207.1428571428571 193.75000000000003 208.92857142857142 Q 193.75000000000003 210.71428571428572 193.30357142857144 212.94642857142858 Q 192.85714285714286 215.17857142857144 192.85714285714286 216.96428571428572 Q 192.85714285714286 218.75 192.85714285714286 220.98214285714286 Q 192.85714285714286 223.21428571428572 192.4107142857143 224.10714285714286 Q 191.96428571428575 225 191.96428571428575 226.33928571428572 Q 191.96428571428575 227.67857142857144 191.96428571428575 229.01785714285714 Q 191.96428571428575 230.35714285714283 191.96428571428575 232.14285714285714 Q 191.96428571428575 233.92857142857144 191.96428571428575 235.71428571428572 Q 191.96428571428575 237.5 192.4107142857143 239.73214285714286 Q 192.85714285714286 241.96428571428572 193.75 243.75 Q 194.64285714285714 245.53571428571428 195.5357142857143 247.76785714285714 Q 196.42857142857147 250 197.3214285714286 252.23214285714286 Q 198.21428571428575 254.46428571428572 198.6607142857143 256.69642857142856 Q 199.10714285714286 258.9285714285714 199.55357142857144 260.71428571428567 Q 200.00000000000003 262.5 201.33928571428575 264.7321428571429 Q 202.67857142857147 266.9642857142857 203.12500000000003 268.75 Q 203.57142857142858 270.5357142857143 204.9107142857143 272.7678571428571 Q 206.25000000000003 275 207.14285714285717 277.2321428571429 Q 208.0357142857143 279.4642857142857 209.37500000000003 280.80357142857144 Q 210.71428571428575 282.1428571428571 211.1607142857143 283.0357142857142 Q 211.60714285714286 283.9285714285714 212.94642857142858 285.71428571428567 Q 214.2857142857143 287.5 215.62500000000003 288.83928571428567 Q 216.96428571428575 290.1785714285714 218.75000000000003 291.96428571428567 Q 220.5357142857143 293.75 222.32142857142858 295.08928571428567 Q 224.10714285714286 296.4285714285714 225.89285714285717 297.32142857142856 Q 227.67857142857147 298.2142857142857 229.46428571428575 299.1071428571429 Q 231.25000000000003 300 232.58928571428575 300.8928571428571 Q 233.92857142857147 301.7857142857143 235.71428571428575 302.23214285714283 Q 237.50000000000003 302.6785714285714 239.2857142857143 303.57142857142856 Q 241.07142857142858 304.4642857142857 242.8571428571429 304.9107142857143 Q 244.6428571428572 305.35714285714283 247.3214285714286 305.80357142857144 Q 250.00000000000003 306.25 251.7857142857143 306.69642857142856 Q 253.57142857142858 307.1428571428571 255.80357142857144 308.0357142857142 Q 258.03571428571433 308.9285714285714 260.26785714285717 309.82142857142856 Q 262.5 310.7142857142857 264.7321428571429 311.6071428571429 Q 266.9642857142858 312.5 268.75000000000006 312.94642857142856 Q 270.53571428571433 313.3928571428571 272.3214285714286 314.2857142857142 Q 274.1071428571429 315.1785714285714 276.78571428571433 316.5178571428571 Q 279.4642857142858 317.85714285714283 281.25000000000006 318.75 Q 283.03571428571433 319.6428571428571 285.26785714285717 320.98214285714283 Q 287.5 322.32142857142856 289.2857142857143 323.21428571428567 Q 291.07142857142856 324.10714285714283 292.4107142857143 325.44642857142856 Q 293.75 326.7857142857143 295.0892857142857 327.23214285714283 Q 296.42857142857144 327.6785714285714 297.76785714285717 329.0178571428571 Q 299.1071428571429 330.35714285714283 300.00000000000006 331.25 Q 300.8928571428572 332.1428571428571 302.2321428571429 333.48214285714283 Q 303.57142857142856 334.82142857142856 304.9107142857143 336.1607142857143 Q 306.25 337.5 307.5892857142857 339.2857142857143 Q 308.92857142857144 341.07142857142856 309.8214285714286 342.4107142857143 Q 310.7142857142858 343.75 312.0535714285715 345.08928571428567 Q 313.3928571428572 346.4285714285714 314.28571428571433 348.21428571428567 Q 315.17857142857144 350 316.0714285714286 351.7857142857143 Q 316.9642857142858 353.57142857142856 317.8571428571429 355.35714285714283 Q 318.75 357.1428571428571 319.64285714285717 358.92857142857144 Q 320.53571428571433 360.7142857142857 320.9821428571429 362.94642857142856 Q 321.42857142857144 365.17857142857144 322.76785714285717 367.4107142857143 Q 324.1071428571429 369.6428571428571 324.55357142857144 371.42857142857144 Q 325 373.2142857142857 325.4464285714286 375.44642857142856 Q 325.8928571428572 377.67857142857144 326.78571428571433 379.9107142857143 Q 327.67857142857144 382.1428571428571 327.67857142857144 383.92857142857144 Q 327.67857142857144 385.7142857142857 328.125 387.94642857142856 Q 328.57142857142856 390.17857142857144 328.57142857142856 392.4107142857143 Q 328.57142857142856 394.6428571428571 328.57142857142856 396.42857142857144 Q 328.57142857142856 398.2142857142857 328.57142857142856 400 Q 328.57142857142856 401.7857142857143 328.57142857142856 403.125 Q 328.57142857142856 404.4642857142857 328.57142857142856 406.25 Q 328.57142857142856 408.0357142857143 328.57142857142856 409.82142857142856 Q 328.57142857142856 411.60714285714283 328.57142857142856 413.3928571428571 Q 328.57142857142856 415.17857142857144 328.57142857142856 416.9642857142857 Q 328.57142857142856 418.75 328.125 420.0892857142857 Q 327.67857142857144 421.42857142857144 326.78571428571433 423.2142857142857 Q 325.8928571428572 425 325.8928571428572 425.44642857142856 Q 325.8928571428572 425.8928571428571 325.4464285714286 427.67857142857144 Q 325 429.4642857142857 325 430.3571428571429 Q 325 431.25 324.55357142857144 432.1428571428571 Q 324.1071428571429 433.0357142857143 324.1071428571429 433.4821428571429 Q 324.1071428571429 433.92857142857144 324.1071428571429 434.82142857142856 Q 324.1071428571429 435.7142857142857 323.66071428571433 436.1607142857143 Q 323.2142857142858 436.60714285714283 322.76785714285717 437.05357142857144 Q 322.32142857142856 437.5 322.32142857142856 437.94642857142856 Q 322.32142857142856 438.3928571428571 322.32142857142856 439.2857142857143 Q 322.32142857142856 440.17857142857144 321.875 440.625 Q 321.42857142857144 441.07142857142856 320.9821428571429 442.4107142857143 Q 320.53571428571433 443.75 320.53571428571433 444.19642857142856 Q 320.53571428571433 444.6428571428571 319.64285714285717 445.5357142857143 Q 318.75 446.42857142857144 318.75 446.875 Q 318.75 447.32142857142856 316.9642857142857 447.7678571428571 L 315.17757142857147 448.2152857142857" stroke-linecap="round" />
</g>
<g transform="matrix(1 0 0 1 257.14 246.58)" id="XMTANdAKFjWfm3A8c2UW7"  >
<path style="stroke: rgb(0,0,0); stroke-width: 1; stroke-dasharray: none; stroke-linecap: round; stroke-dashoffset: 0; stroke-linejoin: round; stroke-miterlimit: 10; fill: none; fill-rule: nonzero; opacity: 1;" vector-effect="non-scaling-stroke"  transform=" translate(-257.14, -246.58)" d="M 234.8224285714286 286.60714285714283 Q 234.82142857142858 286.60714285714283 233.92857142857144 286.60714285714283 Q 233.0357142857143 286.60714285714283 232.58928571428575 286.60714285714283 Q 232.1428571428572 286.60714285714283 231.25000000000003 286.60714285714283 Q 230.35714285714286 286.60714285714283 229.46428571428572 286.60714285714283 Q 228.57142857142858 286.60714285714283 227.67857142857144 286.1607142857143 Q 226.7857142857143 285.7142857142857 225.89285714285717 284.375 Q 225.00000000000003 283.0357142857143 224.1071428571429 282.58928571428567 Q 223.21428571428575 282.1428571428571 222.3214285714286 280.80357142857144 Q 221.42857142857147 279.4642857142857 220.53571428571433 279.0178571428571 Q 219.6428571428572 278.57142857142856 218.75000000000003 277.23214285714283 Q 217.85714285714286 275.8928571428571 217.4107142857143 275.44642857142856 Q 216.96428571428575 275 216.96428571428575 273.21428571428567 Q 216.96428571428575 271.4285714285714 216.96428571428575 270.08928571428567 Q 216.96428571428575 268.75 216.96428571428575 267.4107142857143 Q 216.96428571428575 266.07142857142856 216.96428571428575 264.73214285714283 Q 216.96428571428575 263.3928571428571 216.96428571428575 261.60714285714283 Q 216.96428571428575 259.82142857142856 216.96428571428575 258.0357142857143 Q 216.96428571428575 256.25 216.96428571428575 254.4642857142857 Q 216.96428571428575 252.6785714285714 216.96428571428575 251.78571428571425 Q 216.96428571428575 250.8928571428571 216.96428571428575 250.44642857142856 Q 216.96428571428575 250 216.96428571428575 250.89285714285714 Q 216.96428571428575 251.78571428571428 217.4107142857143 254.01785714285714 Q 217.85714285714286 256.25 218.75000000000003 257.58928571428567 Q 219.6428571428572 258.9285714285714 220.53571428571433 260.71428571428567 Q 221.42857142857147 262.5 222.3214285714286 263.3928571428571 Q 223.21428571428575 264.2857142857143 223.6607142857143 265.17857142857144 Q 224.10714285714286 266.07142857142856 224.55357142857144 266.5178571428571 Q 225.00000000000003 266.9642857142857 225.4464285714286 267.4107142857143 Q 225.8928571428572 267.85714285714283 226.33928571428575 267.85714285714283 Q 226.7857142857143 267.85714285714283 227.2321428571429 268.75 Q 227.67857142857147 269.6428571428571 228.12500000000003 270.08928571428567 Q 228.57142857142858 270.5357142857143 229.01785714285717 270.98214285714283 Q 229.46428571428575 271.4285714285714 229.9107142857143 271.875 Q 230.35714285714286 272.32142857142856 230.80357142857144 272.32142857142856 Q 231.25000000000003 272.32142857142856 231.25000000000003 272.7678571428571 Q 231.25000000000003 273.2142857142857 231.6964285714286 273.6607142857143 Q 232.1428571428572 274.10714285714283 232.1428571428572 273.6607142857143 Q 232.1428571428572 273.2142857142857 232.1428571428572 271.42857142857144 Q 232.1428571428572 269.6428571428571 231.6964285714286 267.4107142857142 Q 231.25000000000003 265.1785714285714 231.25000000000003 262.94642857142856 Q 231.25000000000003 260.7142857142857 231.25000000000003 258.0357142857143 Q 231.25000000000003 255.35714285714283 231.25000000000003 252.23214285714283 Q 231.25000000000003 249.10714285714283 231.25000000000003 246.87499999999997 Q 231.25000000000003 244.6428571428571 231.25000000000003 242.85714285714283 Q 231.25000000000003 241.07142857142856 230.80357142857144 239.28571428571428 Q 230.35714285714286 237.5 229.9107142857143 236.16071428571428 Q 229.46428571428575 234.82142857142856 229.46428571428575 233.92857142857142 Q 229.46428571428575 233.03571428571428 229.01785714285717 231.69642857142856 Q 228.57142857142858 230.35714285714283 228.12500000000003 229.4642857142857 Q 227.67857142857147 228.57142857142856 227.67857142857147 227.23214285714283 Q 227.67857142857147 225.8928571428571 226.78571428571433 224.10714285714283 Q 225.8928571428572 222.32142857142856 225.4464285714286 220.53571428571428 Q 225.00000000000003 218.75 225.00000000000003 217.41071428571428 Q 225.00000000000003 216.07142857142856 224.55357142857144 214.28571428571428 Q 224.10714285714286 212.5 224.10714285714286 211.60714285714286 Q 224.10714285714286 210.71428571428572 224.10714285714286 209.375 Q 224.10714285714286 208.03571428571428 224.10714285714286 206.69642857142856 Q 224.10714285714286 205.35714285714283 224.10714285714286 204.91071428571428 Q 224.10714285714286 204.46428571428572 224.10714285714286 203.125 Q 224.10714285714286 201.78571428571428 224.10714285714286 201.3392857142857 Q 224.10714285714286 200.8928571428571 225.00000000000003 201.3392857142857 Q 225.8928571428572 201.78571428571428 227.2321428571429 202.67857142857142 Q 228.57142857142858 203.57142857142856 230.3571428571429 204.91071428571428 Q 232.1428571428572 206.25 233.4821428571429 206.69642857142856 Q 234.82142857142858 207.1428571428571 235.71428571428572 208.03571428571428 Q 236.60714285714286 208.92857142857144 237.05357142857144 209.82142857142858 Q 237.50000000000003 210.71428571428572 237.9464285714286 211.60714285714286 Q 238.3928571428572 212.5 238.83928571428575 213.83928571428572 Q 239.2857142857143 215.17857142857144 239.7321428571429 217.41071428571428 Q 240.17857142857147 219.6428571428571 240.62500000000003 222.32142857142856 Q 241.07142857142858 225 241.51785714285717 228.125 Q 241.96428571428575 231.25 242.4107142857143 234.375 Q 242.85714285714286 237.5 243.30357142857144 240.17857142857142 Q 243.75000000000003 242.85714285714283 244.1964285714286 244.6428571428571 Q 244.6428571428572 246.4285714285714 244.6428571428572 249.10714285714283 Q 244.6428571428572 251.78571428571428 245.08928571428575 253.57142857142856 Q 245.5357142857143 255.35714285714283 245.5357142857143 257.1428571428571 Q 245.5357142857143 258.9285714285714 245.5357142857143 260.71428571428567 Q 245.5357142857143 262.5 245.5357142857143 264.2857142857143 Q 245.5357142857143 266.07142857142856 245.5357142857143 267.85714285714283 Q 245.5357142857143 269.6428571428571 245.5357142857143 270.5357142857142 Q 245.5357142857143 271.4285714285714 245.5357142857143 272.32142857142856 Q 245.5357142857143 273.2142857142857 245.08928571428575 272.7678571428571 Q 244.6428571428572 272.32142857142856 244.6428571428572 270.5357142857143 Q 244.6428571428572 268.75 244.6428571428572 266.5178571428571 Q 244.6428571428572 264.2857142857143 244.6428571428572 262.05357142857144 Q 244.6428571428572 259.82142857142856 244.6428571428572 257.58928571428567 Q 244.6428571428572 255.35714285714283 244.6428571428572 253.12499999999997 Q 244.6428571428572 250.8928571428571 244.6428571428572 249.10714285714283 Q 244.6428571428572 247.32142857142856 244.6428571428572 245.0892857142857 Q 244.6428571428572 242.85714285714283 245.08928571428575 240.62499999999997 Q 245.5357142857143 238.3928571428571 245.5357142857143 236.16071428571428 Q 245.5357142857143 233.92857142857144 245.9821428571429 232.14285714285714 Q 246.42857142857147 230.35714285714283 247.3214285714286 228.57142857142856 Q 248.21428571428575 226.78571428571428 248.6607142857143 225 Q 249.10714285714286 223.21428571428572 249.55357142857144 221.42857142857142 Q 250.00000000000003 219.6428571428571 250.4464285714286 218.30357142857142 Q 250.8928571428572 216.96428571428572 251.33928571428575 215.625 Q 251.7857142857143 214.28571428571428 252.2321428571429 212.94642857142856 Q 252.67857142857147 211.60714285714283 252.67857142857147 210.26785714285714 Q 252.67857142857147 208.92857142857144 253.5714285714286 207.58928571428572 Q 254.46428571428575 206.25 254.9107142857143 205.35714285714286 Q 255.35714285714286 204.46428571428572 255.35714285714286 203.125 Q 255.35714285714286 201.78571428571428 255.80357142857144 200.44642857142856 Q 256.25 199.10714285714283 256.6964285714286 198.2142857142857 Q 257.1428571428572 197.32142857142856 257.5892857142858 196.42857142857142 Q 258.03571428571433 195.53571428571428 258.4821428571429 197.32142857142856 Q 258.92857142857144 199.10714285714283 258.92857142857144 201.3392857142857 Q 258.92857142857144 203.57142857142856 259.8214285714286 206.69642857142856 Q 260.7142857142858 209.82142857142856 261.6071428571429 212.05357142857142 Q 262.5 214.28571428571428 262.5 216.07142857142856 Q 262.5 217.85714285714283 262.9464285714286 220.0892857142857 Q 263.3928571428572 222.32142857142856 263.8392857142858 224.10714285714283 Q 264.28571428571433 225.8928571428571 264.28571428571433 226.78571428571428 Q 264.28571428571433 227.67857142857144 265.17857142857144 228.57142857142858 Q 266.07142857142856 229.46428571428572 266.07142857142856 231.25 Q 266.07142857142856 233.03571428571428 266.07142857142856 234.375 Q 266.07142857142856 235.71428571428572 266.07142857142856 237.94642857142856 Q 266.07142857142856 240.1785714285714 266.07142857142856 241.9642857142857 Q 266.07142857142856 243.75 265.17857142857144 246.875 Q 264.28571428571433 250 262.9464285714286 253.57142857142856 Q 261.6071428571429 257.1428571428571 260.7142857142857 258.92857142857144 Q 259.82142857142856 260.7142857142857 258.92857142857144 262.94642857142856 Q 258.03571428571433 265.1785714285714 257.14285714285717 266.96428571428567 Q 256.25 268.75 255.80357142857144 270.08928571428567 Q 255.35714285714286 271.4285714285714 254.46428571428572 271.875 Q 253.57142857142858 272.32142857142856 252.67857142857144 273.6607142857143 Q 251.7857142857143 275 250.89285714285717 275.8928571428571 Q 250.00000000000003 276.7857142857143 249.1071428571429 278.125 Q 248.21428571428575 279.4642857142857 246.87500000000003 280.3571428571429 Q 245.5357142857143 281.25 244.64285714285717 282.1428571428571 Q 243.75000000000003 283.0357142857143 243.30357142857144 283.48214285714283 Q 242.85714285714286 283.9285714285714 243.75000000000003 282.1428571428571 Q 244.6428571428572 280.35714285714283 246.42857142857147 278.57142857142856 Q 248.21428571428575 276.7857142857143 250.4464285714286 275 Q 252.67857142857147 273.2142857142857 254.91071428571433 271.42857142857144 Q 257.1428571428572 269.6428571428571 259.37500000000006 267.85714285714283 Q 261.6071428571429 266.07142857142856 263.39285714285717 263.83928571428567 Q 265.17857142857144 261.60714285714283 266.9642857142857 259.82142857142856 Q 268.75 258.0357142857143 269.64285714285717 256.69642857142856 Q 270.53571428571433 255.35714285714283 271.42857142857144 254.0178571428571 Q 272.32142857142856 252.6785714285714 272.76785714285717 252.23214285714283 Q 273.2142857142858 251.78571428571428 273.66071428571433 251.3392857142857 Q 274.1071428571429 250.8928571428571 274.55357142857144 250.44642857142856 Q 275 250 275.4464285714286 249.10714285714286 Q 275.8928571428572 248.21428571428572 276.3392857142858 247.76785714285714 Q 276.78571428571433 247.32142857142856 277.67857142857144 247.32142857142856 Q 278.57142857142856 247.32142857142856 279.4642857142857 246.87499999999997 Q 280.3571428571429 246.4285714285714 281.6964285714286 246.4285714285714 Q 283.03571428571433 246.4285714285714 284.8214285714286 246.4285714285714 Q 286.6071428571429 246.4285714285714 288.39285714285717 246.4285714285714 Q 290.17857142857144 246.4285714285714 291.0714285714286 246.4285714285714 Q 291.9642857142858 246.4285714285714 293.3035714285715 246.4285714285714 Q 294.6428571428572 246.4285714285714 295.0892857142858 246.4285714285714 Q 295.53571428571433 246.4285714285714 295.9821428571429 246.4285714285714 Q 296.42857142857144 246.4285714285714 296.875 246.4285714285714 Q 297.32142857142856 246.4285714285714 297.32142857142856 246.87499999999997 Q 297.32142857142856 247.32142857142856 296.42857142857144 248.66071428571428 Q 295.53571428571433 250 295.0892857142858 251.78571428571428 Q 294.6428571428572 253.57142857142856 293.3035714285715 255.35714285714283 Q 291.9642857142858 257.1428571428571 291.0714285714286 258.92857142857144 Q 290.17857142857144 260.7142857142857 289.28571428571433 262.5 Q 288.3928571428572 264.2857142857143 287.9464285714286 265.625 Q 287.5 266.9642857142857 287.05357142857144 267.8571428571429 Q 286.6071428571429 268.75 285.7142857142857 269.19642857142856 Q 284.82142857142856 269.6428571428571 284.82142857142856 270.5357142857142 Q 284.82142857142856 271.4285714285714 283.92857142857144 271.875 Q 283.03571428571433 272.32142857142856 282.14285714285717 272.32142857142856 Q 281.25 272.32142857142856 280.3571428571429 273.6607142857143 Q 279.4642857142858 275 277.6785714285715 276.7857142857143 Q 275.8928571428572 278.57142857142856 273.2142857142858 279.46428571428567 Q 270.53571428571433 280.35714285714283 268.75000000000006 281.69642857142856 Q 266.9642857142858 283.0357142857143 264.7321428571429 284.375 Q 262.5 285.7142857142857 260.7142857142857 286.6071428571429 Q 258.92857142857144 287.5 257.5892857142857 287.94642857142856 Q 256.25 288.3928571428571 255.80357142857144 288.3928571428571 Q 255.35714285714286 288.3928571428571 256.6964285714286 288.3928571428571 Q 258.03571428571433 288.3928571428571 259.8214285714286 288.3928571428571 Q 261.6071428571429 288.3928571428571 263.39285714285717 287.94642857142856 Q 265.17857142857144 287.5 267.41071428571433 286.6071428571429 Q 269.6428571428572 285.7142857142857 272.3214285714286 285.2678571428571 Q 275 284.82142857142856 277.2321428571429 284.375 Q 279.4642857142858 283.9285714285714 280.8035714285715 283.9285714285714 Q 282.1428571428572 283.9285714285714 283.03571428571433 283.48214285714283 Q 283.92857142857144 283.0357142857143 284.8214285714286 283.0357142857143 Q 285.7142857142858 283.0357142857143 286.16071428571433 283.0357142857143 Q 286.6071428571429 283.0357142857143 287.05357142857144 283.0357142857143 Q 287.5 283.0357142857143 287.9464285714286 283.0357142857143 Q 288.3928571428572 283.0357142857143 288.8392857142858 283.0357142857143 Q 289.28571428571433 283.0357142857143 289.28571428571433 283.48214285714283 Q 289.28571428571433 283.9285714285714 289.28571428571433 284.82142857142856 Q 289.28571428571433 285.7142857142857 289.28571428571433 286.6071428571429 Q 289.28571428571433 287.5 289.28571428571433 288.83928571428567 Q 289.28571428571433 290.1785714285714 288.8392857142858 291.5178571428571 Q 288.3928571428572 292.85714285714283 287.9464285714286 293.75 Q 287.5 294.6428571428571 286.1607142857143 295.08928571428567 Q 284.82142857142856 295.5357142857143 284.375 295.98214285714283 Q 283.92857142857144 296.4285714285714 282.5892857142857 296.875 Q 281.25 297.32142857142856 280.3571428571429 297.32142857142856 Q 279.4642857142858 297.32142857142856 278.12500000000006 297.32142857142856 Q 276.78571428571433 297.32142857142856 275.4464285714286 297.32142857142856 Q 274.1071428571429 297.32142857142856 273.2142857142857 297.32142857142856 Q 272.32142857142856 297.32142857142856 270.9821428571429 297.32142857142856 Q 269.6428571428572 297.32142857142856 267.8571428571429 296.42857142857144 Q 266.07142857142856 295.5357142857143 265.17857142857144 295.08928571428567 Q 264.28571428571433 294.6428571428571 263.39285714285717 294.6428571428571 Q 262.5 294.6428571428571 261.1607142857143 293.75 Q 259.82142857142856 292.85714285714283 258.92857142857144 292.85714285714283 Q 258.03571428571433 292.85714285714283 257.14285714285717 292.85714285714283 Q 256.25 292.85714285714283 255.3571428571429 292.85714285714283 Q 254.46428571428575 292.85714285714283 254.01785714285717 292.85714285714283 Q 253.57142857142858 292.85714285714283 253.12500000000003 292.4107142857143 Q 252.67857142857147 291.9642857142857 252.2321428571429 291.9642857142857 Q 251.7857142857143 291.9642857142857 250.89285714285717 291.5178571428571 Q 250.00000000000003 291.07142857142856 249.55357142857144 291.07142857142856 Q 249.10714285714286 291.07142857142856 248.6607142857143 290.625 Q 248.21428571428575 290.1785714285714 247.3214285714286 289.73214285714283 Q 246.42857142857147 289.2857142857143 245.9821428571429 289.2857142857143 Q 245.5357142857143 289.2857142857143 245.08928571428575 289.2857142857143 Q 244.6428571428572 289.2857142857143 243.75000000000003 288.83928571428567 Q 242.85714285714286 288.3928571428571 242.4107142857143 288.3928571428571 Q 241.96428571428575 288.3928571428571 241.0714285714286 288.3928571428571 Q 240.17857142857147 288.3928571428571 239.7321428571429 288.3928571428571 Q 239.2857142857143 288.3928571428571 238.83928571428575 288.3928571428571 Q 238.3928571428572 288.3928571428571 237.05357142857147 288.3928571428571 Q 235.71428571428575 288.3928571428571 234.8214285714286 289.2857142857142 Q 233.92857142857147 290.1785714285714 232.58928571428575 290.625 Q 231.25000000000003 291.07142857142856 230.3571428571429 291.5178571428571 Q 229.46428571428575 291.9642857142857 228.5714285714286 292.8571428571429 L 227.67757142857147 293.751" stroke-linecap="round" />
</g>
<g transform="matrix(1 0 0 1 241.07 264.29)" id="IqNQtrB_klWmJy4O8ASyz"  >
<path style="stroke: rgb(0,0,0); stroke-width: 1; stroke-dasharray: none; stroke-linecap: round; stroke-dashoffset: 0; stroke-linejoin: round; stroke-miterlimit: 10; fill: none; fill-rule: nonzero; opacity: 1;" vector-effect="non-scaling-stroke"  transform=" translate(-241.07, -264.29)" d="M 158.0357142857143 66.96328571428569 Q 158.0357142857143 66.9642857142857 158.0357142857143 67.41071428571428 Q 158.0357142857143 67.85714285714285 158.0357142857143 68.74999999999999 Q 158.0357142857143 69.64285714285712 158.0357142857143 71.42857142857142 Q 158.0357142857143 73.2142857142857 157.58928571428572 74.99999999999999 Q 157.14285714285714 76.78571428571428 156.69642857142858 78.57142857142856 Q 156.25000000000003 80.35714285714285 155.80357142857144 82.14285714285714 Q 155.35714285714286 83.92857142857142 154.9107142857143 85.7142857142857 Q 154.46428571428575 87.49999999999999 154.46428571428575 89.28571428571428 Q 154.46428571428575 91.07142857142856 154.46428571428575 92.41071428571428 Q 154.46428571428575 93.74999999999999 154.46428571428575 94.64285714285714 Q 154.46428571428575 95.53571428571428 154.46428571428575 96.875 Q 154.46428571428575 98.21428571428571 154.46428571428575 98.66071428571428 Q 154.46428571428575 99.10714285714285 154.46428571428575 100.44642857142856 Q 154.46428571428575 101.78571428571428 154.46428571428575 102.23214285714285 Q 154.46428571428575 102.67857142857142 154.9107142857143 104.01785714285714 Q 155.35714285714286 105.35714285714285 156.25 106.69642857142856 Q 157.14285714285714 108.03571428571428 158.0357142857143 108.92857142857142 Q 158.92857142857147 109.82142857142856 159.37500000000003 111.16071428571428 Q 159.82142857142858 112.49999999999999 160.71428571428572 113.39285714285712 Q 161.60714285714286 114.28571428571426 162.05357142857144 115.17857142857142 Q 162.50000000000003 116.07142857142857 163.39285714285717 117.41071428571428 Q 164.2857142857143 118.74999999999999 165.17857142857144 119.64285714285712 Q 166.07142857142858 120.53571428571426 166.96428571428572 121.87499999999999 Q 167.85714285714286 123.21428571428571 169.19642857142858 124.55357142857142 Q 170.5357142857143 125.89285714285712 171.87500000000003 126.3392857142857 Q 173.21428571428575 126.78571428571426 175.00000000000003 128.125 Q 176.7857142857143 129.46428571428572 177.67857142857144 130.35714285714286 Q 178.57142857142858 131.25 180.35714285714286 132.58928571428572 Q 182.14285714285714 133.92857142857144 183.48214285714286 134.375 Q 184.82142857142858 134.82142857142856 186.1607142857143 135.7142857142857 Q 187.50000000000003 136.60714285714283 188.39285714285717 137.05357142857142 Q 189.2857142857143 137.5 190.62500000000003 137.94642857142856 Q 191.96428571428575 138.3928571428571 192.8571428571429 139.28571428571428 Q 193.75000000000003 140.17857142857144 195.08928571428575 140.625 Q 196.42857142857147 141.07142857142856 197.3214285714286 141.51785714285714 Q 198.21428571428575 141.96428571428572 199.1071428571429 142.41071428571428 Q 200.00000000000003 142.85714285714283 200.89285714285717 143.74999999999997 Q 201.7857142857143 144.6428571428571 202.67857142857144 144.6428571428571 Q 203.57142857142858 144.6428571428571 204.9107142857143 145.53571428571428 Q 206.25000000000003 146.42857142857144 207.14285714285717 147.32142857142858 Q 208.0357142857143 148.21428571428572 209.37500000000003 148.21428571428572 Q 210.71428571428575 148.21428571428572 211.6071428571429 148.66071428571428 Q 212.50000000000003 149.10714285714283 213.83928571428575 150.44642857142856 Q 215.17857142857147 151.78571428571428 216.51785714285717 152.23214285714286 Q 217.85714285714286 152.67857142857144 219.19642857142858 153.125 Q 220.5357142857143 153.57142857142856 221.42857142857144 154.01785714285714 Q 222.32142857142858 154.46428571428572 223.6607142857143 154.91071428571428 Q 225.00000000000003 155.35714285714283 226.33928571428575 155.80357142857142 Q 227.67857142857147 156.25 228.12500000000003 156.25 Q 228.57142857142858 156.25 230.3571428571429 156.69642857142856 Q 232.1428571428572 157.1428571428571 233.4821428571429 157.1428571428571 Q 234.82142857142858 157.1428571428571 235.71428571428572 157.1428571428571 Q 236.60714285714286 157.1428571428571 238.39285714285717 157.1428571428571 Q 240.17857142857147 157.1428571428571 241.51785714285717 157.5892857142857 Q 242.85714285714286 158.03571428571428 243.75000000000003 158.48214285714286 Q 244.6428571428572 158.92857142857144 245.9821428571429 159.375 Q 247.32142857142858 159.82142857142856 248.6607142857143 160.7142857142857 Q 250.00000000000003 161.60714285714283 250.89285714285717 161.60714285714283 Q 251.7857142857143 161.60714285714283 253.12500000000003 162.49999999999997 Q 254.46428571428575 163.3928571428571 255.8035714285715 163.8392857142857 Q 257.1428571428572 164.28571428571428 258.9285714285715 164.73214285714286 Q 260.7142857142858 165.17857142857144 261.6071428571429 166.07142857142858 Q 262.5 166.96428571428572 263.39285714285717 167.41071428571428 Q 264.28571428571433 167.85714285714283 265.62500000000006 168.30357142857142 Q 266.9642857142858 168.75 268.3035714285715 169.64285714285714 Q 269.6428571428572 170.53571428571428 270.53571428571433 170.98214285714286 Q 271.42857142857144 171.42857142857144 272.76785714285717 171.875 Q 274.1071428571429 172.32142857142856 275.4464285714286 173.66071428571428 Q 276.78571428571433 175 277.67857142857144 175.44642857142856 Q 278.57142857142856 175.8928571428571 279.9107142857143 176.78571428571428 Q 281.25 177.67857142857144 282.5892857142857 178.57142857142858 Q 283.92857142857144 179.46428571428572 285.26785714285717 180.80357142857142 Q 286.6071428571429 182.1428571428571 287.50000000000006 182.5892857142857 Q 288.3928571428572 183.03571428571428 290.1785714285715 184.375 Q 291.9642857142858 185.71428571428572 293.3035714285715 186.16071428571428 Q 294.6428571428572 186.60714285714283 295.53571428571433 187.94642857142856 Q 296.42857142857144 189.28571428571428 297.76785714285717 189.73214285714286 Q 299.1071428571429 190.17857142857144 300.4464285714286 191.07142857142858 Q 301.78571428571433 191.96428571428572 302.67857142857144 192.85714285714286 Q 303.57142857142856 193.75 304.9107142857143 195.08928571428572 Q 306.25 196.42857142857144 306.6964285714286 196.875 Q 307.1428571428572 197.32142857142856 308.03571428571433 198.2142857142857 Q 308.92857142857144 199.10714285714283 309.375 200.44642857142856 Q 309.82142857142856 201.78571428571428 310.7142857142857 203.57142857142856 Q 311.6071428571429 205.35714285714283 312.50000000000006 206.69642857142856 Q 313.3928571428572 208.03571428571428 313.8392857142858 210.26785714285714 Q 314.28571428571433 212.5 315.17857142857144 214.28571428571428 Q 316.07142857142856 216.07142857142856 316.51785714285717 217.41071428571428 Q 316.9642857142858 218.75 317.41071428571433 220.53571428571428 Q 317.8571428571429 222.32142857142856 318.30357142857144 224.10714285714283 Q 318.75 225.8928571428571 319.64285714285717 227.67857142857142 Q 320.53571428571433 229.46428571428572 320.53571428571433 231.25 Q 320.53571428571433 233.03571428571428 320.9821428571429 235.26785714285714 Q 321.42857142857144 237.5 322.3214285714286 238.8392857142857 Q 323.2142857142858 240.1785714285714 323.66071428571433 241.5178571428571 Q 324.1071428571429 242.85714285714283 324.55357142857144 244.19642857142856 Q 325 245.53571428571428 325 246.875 Q 325 248.21428571428572 325.4464285714286 249.55357142857142 Q 325.8928571428572 250.8928571428571 326.3392857142858 251.78571428571425 Q 326.78571428571433 252.6785714285714 327.2321428571429 253.57142857142856 Q 327.67857142857144 254.46428571428572 327.67857142857144 255.80357142857142 Q 327.67857142857144 257.1428571428571 327.67857142857144 258.0357142857142 Q 327.67857142857144 258.9285714285714 327.67857142857144 260.71428571428567 Q 327.67857142857144 262.5 327.67857142857144 263.83928571428567 Q 327.67857142857144 265.1785714285714 327.67857142857144 266.5178571428571 Q 327.67857142857144 267.85714285714283 327.67857142857144 269.19642857142856 Q 327.67857142857144 270.5357142857143 327.67857142857144 271.42857142857144 Q 327.67857142857144 272.32142857142856 327.67857142857144 274.10714285714283 Q 327.67857142857144 275.8928571428571 327.67857142857144 277.23214285714283 Q 327.67857142857144 278.57142857142856 327.2321428571429 279.46428571428567 Q 326.78571428571433 280.35714285714283 326.3392857142858 281.69642857142856 Q 325.8928571428572 283.0357142857143 325.4464285714286 284.375 Q 325 285.7142857142857 324.1071428571429 287.5 Q 323.2142857142858 289.2857142857143 322.3214285714286 290.625 Q 321.42857142857144 291.9642857142857 320.0892857142857 293.30357142857144 Q 318.75 294.6428571428571 318.30357142857144 295.98214285714283 Q 317.8571428571429 297.32142857142856 316.51785714285717 298.6607142857143 Q 315.17857142857144 300 314.7321428571429 300.44642857142856 Q 314.28571428571433 300.8928571428571 313.39285714285717 301.33928571428567 Q 312.5 301.7857142857143 311.6071428571429 302.23214285714283 Q 310.7142857142858 302.6785714285714 310.26785714285717 303.125 Q 309.82142857142856 303.57142857142856 308.4821428571429 304.0178571428571 Q 307.1428571428572 304.4642857142857 305.8035714285715 305.3571428571429 Q 304.4642857142858 306.25 303.5714285714286 306.69642857142856 Q 302.67857142857144 307.1428571428571 301.3392857142857 307.58928571428567 Q 300 308.0357142857143 298.6607142857143 308.92857142857144 Q 297.32142857142856 309.82142857142856 295.5357142857143 310.71428571428567 Q 293.75 311.60714285714283 292.8571428571429 312.5 Q 291.9642857142858 313.3928571428571 289.7321428571429 314.2857142857142 Q 287.5 315.1785714285714 285.26785714285717 316.5178571428571 Q 283.03571428571433 317.85714285714283 281.6964285714286 318.30357142857144 Q 280.3571428571429 318.75 278.12500000000006 320.08928571428567 Q 275.8928571428572 321.4285714285714 274.5535714285715 321.875 Q 273.2142857142858 322.32142857142856 272.3214285714286 322.7678571428571 Q 271.42857142857144 323.2142857142857 270.9821428571429 324.1071428571429 Q 270.53571428571433 325 270.0892857142858 325.44642857142856 Q 269.6428571428572 325.8928571428571 268.75000000000006 325.8928571428571 Q 267.8571428571429 325.8928571428571 267.41071428571433 326.33928571428567 Q 266.9642857142858 326.7857142857143 266.0714285714286 327.67857142857144 Q 265.17857142857144 328.57142857142856 264.7321428571429 329.0178571428571 Q 264.28571428571433 329.4642857142857 263.8392857142858 329.4642857142857 Q 263.3928571428572 329.4642857142857 262.50000000000006 329.9107142857143 Q 261.6071428571429 330.35714285714283 261.6071428571429 330.80357142857144 Q 261.6071428571429 331.25 261.16071428571433 331.25 Q 260.7142857142858 331.25 260.26785714285717 331.69642857142856 Q 259.82142857142856 332.1428571428571 259.375 332.58928571428567 Q 258.92857142857144 333.0357142857143 258.4821428571429 333.0357142857143 Q 258.03571428571433 333.0357142857143 257.14285714285717 333.48214285714283 Q 256.25 333.9285714285714 255.80357142857144 334.375 Q 255.35714285714286 334.82142857142856 254.9107142857143 335.71428571428567 Q 254.46428571428575 336.60714285714283 253.5714285714286 337.05357142857144 Q 252.67857142857147 337.5 252.2321428571429 338.3928571428571 Q 251.7857142857143 339.2857142857143 251.33928571428575 340.17857142857144 Q 250.8928571428572 341.07142857142856 250.00000000000003 341.5178571428571 Q 249.10714285714286 341.9642857142857 248.6607142857143 342.8571428571429 Q 248.21428571428575 343.75 247.76785714285717 344.19642857142856 Q 247.32142857142858 344.6428571428571 247.32142857142858 345.08928571428567 Q 247.32142857142858 345.5357142857143 246.87500000000003 345.98214285714283 Q 246.42857142857147 346.4285714285714 245.9821428571429 346.875 Q 245.5357142857143 347.32142857142856 245.08928571428575 347.7678571428571 Q 244.6428571428572 348.2142857142857 244.1964285714286 348.6607142857143 Q 243.75000000000003 349.10714285714283 243.30357142857144 350 Q 242.85714285714286 350.8928571428571 242.4107142857143 350.8928571428571 Q 241.96428571428575 350.8928571428571 241.51785714285717 351.7857142857142 Q 241.07142857142858 352.6785714285714 240.62500000000003 353.125 Q 240.17857142857147 353.57142857142856 240.17857142857147 354.9107142857143 Q 240.17857142857147 356.25 239.28571428571433 356.69642857142856 Q 238.3928571428572 357.1428571428571 237.50000000000003 358.0357142857142 Q 236.60714285714286 358.9285714285714 236.1607142857143 360.2678571428571 Q 235.71428571428575 361.60714285714283 234.8214285714286 362.94642857142856 Q 233.92857142857147 364.2857142857143 233.4821428571429 365.625 Q 233.0357142857143 366.9642857142857 232.14285714285717 368.75 Q 231.25000000000003 370.5357142857143 230.80357142857144 370.9821428571429 Q 230.35714285714286 371.42857142857144 229.9107142857143 372.7678571428571 Q 229.46428571428575 374.10714285714283 229.01785714285717 375.44642857142856 Q 228.57142857142858 376.7857142857143 227.67857142857144 377.67857142857144 Q 226.7857142857143 378.57142857142856 226.33928571428575 379.9107142857143 Q 225.8928571428572 381.25 225.4464285714286 382.1428571428571 Q 225.00000000000003 383.0357142857143 225.00000000000003 384.375 Q 225.00000000000003 385.7142857142857 224.1071428571429 387.5 Q 223.21428571428575 389.2857142857143 222.76785714285717 391.07142857142856 Q 222.32142857142858 392.85714285714283 221.87500000000003 395.08928571428567 Q 221.42857142857147 397.32142857142856 220.53571428571433 399.10714285714283 Q 219.6428571428572 400.8928571428571 219.1964285714286 402.67857142857144 Q 218.75000000000003 404.4642857142857 218.30357142857144 406.25 Q 217.85714285714286 408.0357142857143 217.4107142857143 409.82142857142856 Q 216.96428571428575 411.60714285714283 216.51785714285717 412.94642857142856 Q 216.07142857142858 414.2857142857143 215.62500000000003 416.07142857142856 Q 215.17857142857147 417.85714285714283 215.17857142857147 418.75 Q 215.17857142857147 419.6428571428571 215.17857142857147 420.98214285714283 Q 215.17857142857147 422.32142857142856 215.17857142857147 423.21428571428567 Q 215.17857142857147 424.10714285714283 215.17857142857147 425 Q 215.17857142857147 425.8928571428571 215.17857142857147 427.23214285714283 Q 215.17857142857147 428.57142857142856 215.17857142857147 429.46428571428567 Q 215.17857142857147 430.35714285714283 215.17857142857147 432.1428571428571 Q 215.17857142857147 433.92857142857144 215.17857142857147 434.82142857142856 Q 215.17857142857147 435.7142857142857 215.17857142857147 437.05357142857144 Q 215.17857142857147 438.3928571428571 215.17857142857147 439.73214285714283 Q 215.17857142857147 441.07142857142856 215.17857142857147 442.4107142857143 Q 215.17857142857147 443.75 215.17857142857147 445.5357142857143 Q 215.17857142857147 447.32142857142856 215.17857142857147 448.6607142857143 Q 215.17857142857147 450 215.17857142857147 451.3392857142857 Q 215.17857142857147 452.67857142857144 215.17857142857147 454.0178571428571 Q 215.17857142857147 455.35714285714283 215.17857142857147 456.69642857142856 Q 215.17857142857147 458.0357142857143 215.17857142857147 458.92857142857144 Q 215.17857142857147 459.82142857142856 215.17857142857147 460.71428571428567 L 215.17857142857147 461.6081428571428" stroke-linecap="round" />
</g>
<g transform="matrix(1 0 0 1 292.41 111.16)" id="RCd4bh0coHN_cimafHb0l"  >
<path style="stroke: rgb(0,0,0); stroke-width: 1; stroke-dasharray: none; stroke-linecap: round; stroke-dashoffset: 0; stroke-linejoin: round; stroke-miterlimit: 10; fill: none; fill-rule: nonzero; opacity: 1;" vector-effect="non-scaling-stroke"  transform=" translate(-292.41, -111.16)" d="M 331.25 67.85614285714284 Q 331.25 67.85714285714285 331.6964285714286 68.30357142857142 Q 332.1428571428572 68.74999999999999 332.1428571428572 69.64285714285714 Q 332.1428571428572 70.53571428571428 332.5892857142858 72.32142857142856 Q 333.03571428571433 74.10714285714285 333.03571428571433 76.3392857142857 Q 333.03571428571433 78.57142857142856 333.4821428571429 80.35714285714283 Q 333.92857142857144 82.14285714285712 333.92857142857144 84.82142857142856 Q 333.92857142857144 87.49999999999999 334.375 89.73214285714285 Q 334.82142857142856 91.96428571428571 334.82142857142856 93.75 Q 334.82142857142856 95.53571428571428 335.26785714285717 96.42857142857142 Q 335.7142857142858 97.32142857142856 335.7142857142858 98.2142857142857 Q 335.7142857142858 99.10714285714285 335.7142857142858 99.55357142857142 Q 335.7142857142858 99.99999999999999 335.7142857142858 100.44642857142856 Q 335.7142857142858 100.89285714285712 335.26785714285717 101.3392857142857 Q 334.82142857142856 101.78571428571428 334.375 102.23214285714285 Q 333.92857142857144 102.67857142857142 333.92857142857144 103.12499999999999 Q 333.92857142857144 103.57142857142856 333.4821428571429 104.4642857142857 Q 333.03571428571433 105.35714285714285 332.14285714285717 105.35714285714285 Q 331.25 105.35714285714285 330.80357142857144 106.24999999999999 Q 330.3571428571429 107.14285714285712 329.91071428571433 108.03571428571428 Q 329.4642857142858 108.92857142857142 328.5714285714286 109.37499999999999 Q 327.67857142857144 109.82142857142856 326.78571428571433 110.7142857142857 Q 325.8928571428572 111.60714285714285 325.00000000000006 112.49999999999999 Q 324.1071428571429 113.39285714285712 322.76785714285717 114.73214285714285 Q 321.42857142857144 116.07142857142857 320.53571428571433 116.51785714285714 Q 319.6428571428572 116.96428571428571 318.75000000000006 118.30357142857142 Q 317.8571428571429 119.64285714285712 316.9642857142857 120.0892857142857 Q 316.07142857142856 120.53571428571426 315.17857142857144 120.98214285714285 Q 314.28571428571433 121.42857142857143 313.8392857142858 121.875 Q 313.3928571428572 122.32142857142857 312.9464285714286 122.32142857142857 Q 312.5 122.32142857142857 311.6071428571429 122.76785714285714 Q 310.7142857142858 123.21428571428571 309.8214285714286 123.21428571428571 Q 308.92857142857144 123.21428571428571 308.03571428571433 123.21428571428571 Q 307.1428571428572 123.21428571428571 306.25000000000006 123.21428571428571 Q 305.3571428571429 123.21428571428571 304.91071428571433 123.21428571428571 Q 304.4642857142858 123.21428571428571 303.12500000000006 123.21428571428571 Q 301.78571428571433 123.21428571428571 301.3392857142858 123.21428571428571 Q 300.8928571428572 123.21428571428571 299.5535714285715 123.21428571428571 Q 298.2142857142858 123.21428571428571 296.4285714285715 123.21428571428571 Q 294.6428571428572 123.21428571428571 293.3035714285715 123.66071428571428 Q 291.9642857142858 124.10714285714285 290.62500000000006 124.55357142857142 Q 289.28571428571433 124.99999999999999 287.9464285714286 125.89285714285712 Q 286.6071428571429 126.78571428571426 284.8214285714286 127.23214285714285 Q 283.03571428571433 127.67857142857143 282.14285714285717 128.125 Q 281.25 128.57142857142856 279.9107142857143 129.4642857142857 Q 278.57142857142856 130.35714285714283 277.2321428571429 131.24999999999997 Q 275.8928571428572 132.1428571428571 274.5535714285715 133.03571428571428 Q 273.2142857142858 133.92857142857144 271.87500000000006 134.82142857142858 Q 270.53571428571433 135.71428571428572 269.1964285714286 137.05357142857142 Q 267.8571428571429 138.3928571428571 266.51785714285717 139.28571428571428 Q 265.17857142857144 140.17857142857144 264.28571428571433 141.51785714285714 Q 263.3928571428572 142.85714285714283 262.9464285714286 143.30357142857142 Q 262.5 143.75 261.6071428571429 144.64285714285714 Q 260.7142857142858 145.53571428571428 260.26785714285717 145.98214285714286 Q 259.82142857142856 146.42857142857144 258.92857142857144 146.875 Q 258.03571428571433 147.32142857142856 257.5892857142858 147.76785714285714 Q 257.1428571428572 148.21428571428572 256.6964285714286 148.66071428571428 Q 256.25 149.10714285714283 255.3571428571429 149.55357142857142 Q 254.46428571428575 150 253.5714285714286 150.89285714285714 Q 252.67857142857147 151.78571428571428 251.78571428571433 152.67857142857142 Q 250.8928571428572 153.57142857142856 250.4464285714286 153.57142857142856 Q 250.00000000000003 153.57142857142856 249.55357142857144 154.01785714285714 L 249.10614285714286 154.46528571428573" stroke-linecap="round" />
</g>
<g transform="matrix(1 0 0 1 214.73 233.93)" id="Jra91LwIoFlUbHz3EDB1p"  >
<path style="stroke: rgb(0,0,0); stroke-width: 1; stroke-dasharray: none; stroke-linecap: round; stroke-dashoffset: 0; stroke-linejoin: round; stroke-miterlimit: 10; fill: none; fill-rule: nonzero; opacity: 1;" vector-effect="non-scaling-stroke"  transform=" translate(-214.73, -233.93)" d="M 226.7867142857143 181.249 Q 226.7857142857143 181.25 226.7857142857143 181.69642857142856 Q 226.7857142857143 182.1428571428571 226.33928571428575 183.03571428571428 Q 225.8928571428572 183.92857142857144 224.55357142857147 185.26785714285714 Q 223.21428571428575 186.60714285714283 222.3214285714286 187.49999999999997 Q 221.42857142857147 188.3928571428571 219.64285714285717 189.73214285714283 Q 217.85714285714286 191.07142857142856 216.51785714285717 193.30357142857142 Q 215.17857142857147 195.53571428571428 213.83928571428575 197.32142857142856 Q 212.50000000000003 199.10714285714283 211.6071428571429 200.44642857142856 Q 210.71428571428575 201.78571428571428 209.37500000000003 203.57142857142856 Q 208.0357142857143 205.35714285714283 207.14285714285717 207.14285714285714 Q 206.25000000000003 208.92857142857144 205.3571428571429 210.26785714285714 Q 204.46428571428575 211.60714285714283 204.01785714285717 212.05357142857142 Q 203.57142857142858 212.5 203.57142857142858 213.83928571428572 Q 203.57142857142858 215.17857142857144 203.12500000000003 216.96428571428572 Q 202.67857142857147 218.75 202.67857142857147 219.64285714285714 Q 202.67857142857147 220.53571428571428 202.67857142857147 221.875 Q 202.67857142857147 223.21428571428572 202.67857142857147 224.55357142857142 Q 202.67857142857147 225.8928571428571 202.67857142857147 226.78571428571428 Q 202.67857142857147 227.67857142857144 203.12500000000003 229.01785714285714 Q 203.57142857142858 230.35714285714283 203.57142857142858 231.24999999999997 Q 203.57142857142858 232.1428571428571 204.46428571428572 233.48214285714283 Q 205.35714285714286 234.82142857142856 206.25000000000003 236.16071428571428 Q 207.1428571428572 237.5 208.03571428571433 239.28571428571428 Q 208.92857142857147 241.07142857142856 209.37500000000003 242.85714285714283 Q 209.82142857142858 244.6428571428571 210.26785714285717 245.53571428571425 Q 210.71428571428575 246.4285714285714 211.1607142857143 247.7678571428571 Q 211.60714285714286 249.10714285714283 212.50000000000003 250.44642857142856 Q 213.3928571428572 251.78571428571428 213.3928571428572 252.67857142857142 Q 213.3928571428572 253.57142857142856 213.83928571428575 254.91071428571428 Q 214.2857142857143 256.25 214.2857142857143 257.1428571428571 Q 214.2857142857143 258.0357142857143 215.17857142857144 259.82142857142856 Q 216.07142857142858 261.60714285714283 216.51785714285717 263.3928571428571 Q 216.96428571428575 265.1785714285714 217.4107142857143 266.96428571428567 Q 217.85714285714286 268.75 218.75000000000003 270.08928571428567 Q 219.6428571428572 271.4285714285714 220.08928571428575 273.21428571428567 Q 220.5357142857143 275 220.9821428571429 276.7857142857143 Q 221.42857142857147 278.57142857142856 221.42857142857147 279.46428571428567 Q 221.42857142857147 280.35714285714283 222.3214285714286 281.69642857142856 Q 223.21428571428575 283.0357142857143 223.6607142857143 283.48214285714283 Q 224.10714285714286 283.9285714285714 224.55357142857144 285.2678571428571 L 225.00100000000003 286.6081428571428" stroke-linecap="round" />
</g>
<g transform="matrix(1 0 0 1 290.18 408.48)" id="WzdrnkUNEawDuzkqdn3Ni"  >
<path style="stroke: rgb(0,0,0); stroke-width: 1; stroke-dasharray: none; stroke-linecap: round; stroke-dashoffset: 0; stroke-linejoin: round; stroke-miterlimit: 10; fill: none; fill-rule: nonzero; opacity: 1;" vector-effect="non-scaling-stroke"  transform=" translate(-290.18, -408.48)" d="M 274.999 336.60714285714283 Q 275 336.60714285714283 275.4464285714286 336.60714285714283 Q 275.8928571428572 336.60714285714283 276.3392857142858 336.60714285714283 Q 276.78571428571433 336.60714285714283 277.2321428571429 337.5 Q 277.67857142857144 338.3928571428571 279.4642857142857 339.2857142857142 Q 281.25 340.1785714285714 282.5892857142857 341.5178571428571 Q 283.92857142857144 342.85714285714283 285.7142857142857 344.6428571428571 Q 287.5 346.4285714285714 289.7321428571429 348.6607142857142 Q 291.9642857142858 350.8928571428571 293.75000000000006 352.67857142857144 Q 295.53571428571433 354.4642857142857 296.87500000000006 357.1428571428571 Q 298.2142857142858 359.82142857142856 299.5535714285715 361.60714285714283 Q 300.8928571428572 363.3928571428571 301.78571428571433 365.625 Q 302.67857142857144 367.85714285714283 303.125 369.6428571428571 Q 303.57142857142856 371.42857142857144 304.01785714285717 374.1071428571429 Q 304.4642857142858 376.7857142857143 304.91071428571433 379.0178571428571 Q 305.3571428571429 381.25 305.3571428571429 383.4821428571429 Q 305.3571428571429 385.7142857142857 305.3571428571429 387.5 Q 305.3571428571429 389.2857142857143 305.3571428571429 391.5178571428571 Q 305.3571428571429 393.75 304.91071428571433 396.42857142857144 Q 304.4642857142858 399.10714285714283 304.4642857142858 400.8928571428571 Q 304.4642857142858 402.67857142857144 304.01785714285717 404.9107142857143 Q 303.57142857142856 407.1428571428571 303.57142857142856 409.375 Q 303.57142857142856 411.60714285714283 303.57142857142856 412.5 Q 303.57142857142856 413.3928571428571 303.57142857142856 414.2857142857143 Q 303.57142857142856 415.17857142857144 303.125 416.07142857142856 Q 302.67857142857144 416.9642857142857 302.67857142857144 417.4107142857143 Q 302.67857142857144 417.85714285714283 302.67857142857144 418.30357142857144 Q 302.67857142857144 418.75 302.2321428571429 418.75 Q 301.78571428571433 418.75 301.3392857142858 420.0892857142857 Q 300.8928571428572 421.42857142857144 300.8928571428572 421.875 Q 300.8928571428572 422.32142857142856 300.8928571428572 424.10714285714283 Q 300.8928571428572 425.8928571428571 300.4464285714286 427.23214285714283 Q 300 428.57142857142856 300 430.80357142857144 Q 300 433.0357142857143 299.55357142857144 433.92857142857144 Q 299.1071428571429 434.82142857142856 299.1071428571429 435.2678571428571 Q 299.1071428571429 435.7142857142857 298.66071428571433 436.1607142857143 Q 298.2142857142858 436.60714285714283 298.2142857142858 437.94642857142856 Q 298.2142857142858 439.2857142857143 297.76785714285717 439.7321428571429 Q 297.32142857142856 440.17857142857144 296.875 441.5178571428571 Q 296.42857142857144 442.85714285714283 295.9821428571429 443.75 Q 295.53571428571433 444.6428571428571 295.0892857142858 445.98214285714283 Q 294.6428571428572 447.32142857142856 293.75000000000006 448.21428571428567 Q 292.8571428571429 449.10714285714283 292.41071428571433 450.44642857142856 Q 291.9642857142858 451.7857142857143 291.0714285714286 453.57142857142856 Q 290.17857142857144 455.35714285714283 289.7321428571429 457.1428571428571 Q 289.28571428571433 458.92857142857144 288.8392857142858 460.2678571428571 Q 288.3928571428572 461.60714285714283 287.50000000000006 462.5 Q 286.6071428571429 463.3928571428571 286.16071428571433 464.73214285714283 Q 285.7142857142858 466.07142857142856 285.26785714285717 467.85714285714283 Q 284.82142857142856 469.6428571428571 284.82142857142856 470.98214285714283 Q 284.82142857142856 472.32142857142856 284.82142857142856 473.21428571428567 Q 284.82142857142856 474.10714285714283 284.375 475 Q 283.92857142857144 475.8928571428571 283.92857142857144 477.23214285714283 Q 283.92857142857144 478.57142857142856 283.92857142857144 479.46428571428567 L 283.92857142857144 480.3581428571428" stroke-linecap="round" />
</g>
<g transform="matrix(1 0 0 1 278.75 379.56)" id="x66w1pLFDXHCSxP5vQUQF"  >
<path style="stroke: rgb(0,0,0); stroke-width: 1; stroke-dasharray: none; stroke-linecap: round; stroke-dashoffset: 0; stroke-linejoin: round; stroke-miterlimit: 10; fill: none; fill-rule: nonzero; opacity: 1;" vector-effect="non-scaling-stroke"  transform=" translate(-278.75, -379.56)" d="M 253.57042857142858 386.6081428571428 Q 253.57142857142858 386.60714285714283 253.57142857142858 385.71428571428567 Q 253.57142857142858 384.82142857142856 254.91071428571428 383.92857142857144 Q 256.25 383.0357142857143 258.92857142857144 381.69642857142856 Q 261.6071428571429 380.35714285714283 266.0714285714286 379.0178571428571 Q 270.53571428571433 377.67857142857144 277.67857142857144 376.3392857142857 Q 284.82142857142856 375 290.625 374.1071428571429 Q 296.42857142857144 373.2142857142857 300.4464285714286 372.7678571428571 Q 304.4642857142858 372.32142857142856 303.12500000000006 374.10714285714283 L 301.78471428571436 375.8938571428571" stroke-linecap="round" />
</g>
<g transform="matrix(1 0 0 1 265.18 404.91)" id="JKwQ319J9MdgxLLmWUKqK"  >
<path style="stroke: rgb(0,0,0); stroke-width: 1; stroke-dasharray: none; stroke-linecap: round; stroke-dashoffset: 0; stroke-linejoin: round; stroke-miterlimit: 10; fill: none; fill-rule: nonzero; opacity: 1;" vector-effect="non-scaling-stroke"  transform=" translate(-265.18, -404.91)" d="M 230.35614285714286 411.6081428571428 Q 230.35714285714286 411.60714285714283 231.69642857142858 410.71428571428567 Q 233.0357142857143 409.82142857142856 233.92857142857144 409.375 Q 234.82142857142858 408.92857142857144 237.05357142857144 408.0357142857143 Q 239.2857142857143 407.1428571428571 243.75000000000003 405.80357142857144 Q 248.21428571428575 404.4642857142857 259.8214285714286 403.125 Q 271.42857142857144 401.7857142857143 275.89285714285717 400.8928571428571 Q 280.3571428571429 400 285.7142857142857 399.55357142857144 Q 291.07142857142856 399.10714285714283 294.64285714285717 398.6607142857143 Q 298.2142857142858 398.2142857142857 299.1071428571429 398.2142857142857 Q 300 398.2142857142857 300 398.6607142857143 Q 300 399.10714285714283 300 400.44642857142856 Q 300 401.7857142857143 299.55357142857144 402.67857142857144 Q 299.1071428571429 403.57142857142856 298.2142857142857 404.46428571428567 Q 297.32142857142856 405.35714285714283 292.4107142857143 407.1428571428571 L 287.499 408.9295714285714" stroke-linecap="round" />
</g>
<g transform="matrix(1 0 0 1 258.93 432.59)" id="KmsYKv5hB4EVwL7Wo1pjP"  >
<path style="stroke: rgb(0,0,0); stroke-width: 1; stroke-dasharray: none; stroke-linecap: round; stroke-dashoffset: 0; stroke-linejoin: round; stroke-miterlimit: 10; fill: none; fill-rule: nonzero; opacity: 1;" vector-effect="non-scaling-stroke"  transform=" translate(-258.93, -432.59)" d="M 225.8918571428572 437.501 Q 225.8928571428572 437.5 227.67857142857147 437.5 Q 229.46428571428575 437.5 230.80357142857147 437.05357142857144 Q 232.1428571428572 436.60714285714283 241.0714285714286 433.48214285714283 Q 250.00000000000003 430.35714285714283 253.125 429.9107142857143 Q 256.25 429.4642857142857 260.7142857142857 429.0178571428571 Q 265.17857142857144 428.57142857142856 274.1071428571429 427.67857142857144 Q 283.03571428571433 426.7857142857143 286.6071428571429 426.33928571428567 Q 290.17857142857144 425.8928571428571 291.0714285714286 425.8928571428571 Q 291.9642857142858 425.8928571428571 291.9642857142858 426.7857142857143 Q 291.9642857142858 427.67857142857144 291.9642857142858 428.125 Q 291.9642857142858 428.57142857142856 291.9642857142858 429.9107142857143 Q 291.9642857142858 431.25 291.51785714285717 432.5892857142857 Q 291.07142857142856 433.92857142857144 288.8392857142857 436.6071428571429 L 286.6061428571429 439.28671428571425" stroke-linecap="round" />
</g>
<g transform="matrix(1 0 0 1 244.64 75.97)" id="JsoeQGeTxRy-LEPvR0Fdv"  >
<path style="stroke: rgb(0,0,0); stroke-width: 1; stroke-dasharray: none; stroke-linecap: round; stroke-dashoffset: 0; stroke-linejoin: round; stroke-miterlimit: 10; fill: none; fill-rule: nonzero; opacity: 1;" vector-effect="non-scaling-stroke"  transform=" translate(-244.64, -75.97)" d="M 182.14185714285713 86.60814285714285 Q 182.14285714285714 86.60714285714285 182.58928571428572 86.60714285714285 Q 183.0357142857143 86.60714285714285 185.71428571428572 84.82142857142856 Q 188.39285714285714 83.03571428571428 193.30357142857144 81.69642857142856 Q 198.21428571428575 80.35714285714285 204.46428571428575 78.57142857142856 Q 210.71428571428575 76.78571428571428 216.96428571428575 75.44642857142856 Q 223.21428571428575 74.10714285714285 229.01785714285717 72.76785714285714 Q 234.82142857142858 71.42857142857142 240.17857142857144 70.98214285714285 Q 245.5357142857143 70.53571428571428 247.76785714285717 70.0892857142857 Q 250.00000000000003 69.64285714285712 251.7857142857143 69.64285714285712 Q 253.57142857142858 69.64285714285712 255.3571428571429 69.64285714285712 Q 257.1428571428572 69.64285714285712 259.8214285714286 69.64285714285712 Q 262.5 69.64285714285712 267.4107142857143 68.74999999999999 Q 272.32142857142856 67.85714285714285 279.01785714285717 66.9642857142857 Q 285.7142857142858 66.07142857142856 291.0714285714286 66.07142857142856 Q 296.42857142857144 66.07142857142856 300 65.62499999999999 Q 303.57142857142856 65.17857142857142 305.3571428571429 66.07142857142856 L 307.1438571428572 66.9652857142857" stroke-linecap="round" />
</g>
<g transform="matrix(1 0 0 1 249.55 101.79)" id="4POtgDzAYDw64v3yPbj4G"  >
<path style="stroke: rgb(0,0,0); stroke-width: 1; stroke-dasharray: none; stroke-linecap: round; stroke-dashoffset: 0; stroke-linejoin: round; stroke-miterlimit: 10; fill: none; fill-rule: nonzero; opacity: 1;" vector-effect="non-scaling-stroke"  transform=" translate(-249.55, -101.79)" d="M 199.10614285714286 113.39285714285712 Q 199.10714285714286 113.39285714285712 199.10714285714286 113.8392857142857 Q 199.10714285714286 114.28571428571426 200.89285714285717 114.28571428571426 Q 202.67857142857147 114.28571428571426 207.14285714285717 112.49999999999999 Q 211.60714285714286 110.71428571428571 220.5357142857143 108.03571428571428 Q 229.46428571428575 105.35714285714285 238.83928571428575 102.67857142857142 Q 248.21428571428575 99.99999999999999 256.25000000000006 97.32142857142856 Q 264.28571428571433 94.64285714285712 269.64285714285717 92.85714285714283 Q 275 91.07142857142856 278.125 90.62499999999999 Q 281.25 90.17857142857142 283.0357142857143 90.17857142857142 Q 284.82142857142856 90.17857142857142 285.26785714285717 90.17857142857142 Q 285.7142857142858 90.17857142857142 286.6071428571429 90.17857142857142 Q 287.5 90.17857142857142 288.39285714285717 90.17857142857142 Q 289.28571428571433 90.17857142857142 291.0714285714286 90.17857142857142 Q 292.8571428571429 90.17857142857142 294.1964285714286 90.17857142857142 Q 295.53571428571433 90.17857142857142 296.42857142857144 90.17857142857142 Q 297.32142857142856 90.17857142857142 298.6607142857143 89.73214285714285 L 300.001 89.28471428571427" stroke-linecap="round" />
</g>
<g transform="matrix(1 0 0 1 250.89 133.48)" id="u1593RDgjKy9NmjrbWxqW"  >
<path style="stroke: rgb(0,0,0); stroke-width: 1; stroke-dasharray: none; stroke-linecap: round; stroke-dashoffset: 0; stroke-linejoin: round; stroke-miterlimit: 10; fill: none; fill-rule: nonzero; opacity: 1;" vector-effect="non-scaling-stroke"  transform=" translate(-250.89, -133.48)" d="M 225.00000000000003 134.82042857142855 Q 225.00000000000003 134.82142857142856 225.00000000000003 135.26785714285714 Q 225.00000000000003 135.71428571428572 225.00000000000003 136.16071428571428 Q 225.00000000000003 136.60714285714283 225.00000000000003 137.05357142857142 Q 225.00000000000003 137.5 226.33928571428575 137.5 Q 227.67857142857147 137.5 230.80357142857147 137.5 Q 233.92857142857147 137.5 238.39285714285717 136.60714285714286 Q 242.85714285714286 135.71428571428572 250.00000000000006 133.92857142857142 Q 257.1428571428572 132.1428571428571 261.6071428571429 131.24999999999997 Q 266.07142857142856 130.35714285714283 269.19642857142856 129.91071428571428 Q 272.32142857142856 129.46428571428572 272.76785714285717 129.46428571428572 Q 273.2142857142858 129.46428571428572 273.66071428571433 129.46428571428572 Q 274.1071428571429 129.46428571428572 274.55357142857144 129.46428571428572 Q 275 129.46428571428572 275.89285714285717 129.46428571428572 L 276.7867142857143 129.46428571428572" stroke-linecap="round" />
</g>
</svg>