<?xml version="1.0" encoding="UTF-8" standalone="no" ?>
<!DOCTYPE svg PUBLIC "-//W3C//DTD SVG 1.1//EN" "http://www.w3.org/Graphics/SVG/1.1/DTD/svg11.dtd">
<svg xmlns="http://www.w3.org/2000/svg" xmlns:xlink="http://www.w3.org/1999/xlink" version="1.1" width="500" height="500" viewBox="0 0 500 500" xml:space="preserve">
<desc>Created with Fabric.js 4.6.0</desc>
<defs>
</defs>
<g transform="matrix(1 0 0 1 -47.32 341.96)" id="Vrsb1J2TBxJcYQZFR7Pc0"  >
<path style="stroke: rgb(0,0,0); stroke-width: 1; stroke-dasharray: none; stroke-linecap: round; stroke-dashoffset: 0; stroke-linejoin: round; stroke-miterlimit: 10; fill: none; fill-rule: nonzero; opacity: 1;" vector-effect="non-scaling-stroke"  transform=" translate(47.32, -341.96)" d="M -47.32242857142855 341.9642857142857 L -47.32042857142856 341.9642857142857" stroke-linecap="round" />
</g>
<g transform="matrix(1 0 0 1 -89.29 97.32)" id="Vb1__8aXjPMBDDhne10iO"  >
<path style="stroke: rgb(0,0,0); stroke-width: 1; stroke-dasharray: none; stroke-linecap: round; stroke-dashoffset: 0; stroke-linejoin: round; stroke-miterlimit: 10; fill: none; fill-rule: nonzero; opacity: 1;" vector-effect="non-scaling-stroke"  transform=" translate(89.29, -97.32)" d="M -89.28671428571425 97.32142857142858 L -89.28471428571424 97.32142857142858" stroke-linecap="round" />
</g>
<g transform="matrix(1 0 0 1 178.13 500.74)" id="Ds72vCIBsEYKWUOL7_mGt"  >
<path style="stroke: rgb(0,0,0); stroke-width: 1; stroke-dasharray: none; stroke-linecap: round; stroke-dashoffset: 0; stroke-linejoin: round; stroke-miterlimit: 10; fill: none; fill-rule: nonzero; opacity: 1;" vector-effect="non-scaling-stroke"  transform=" translate(-178.13, -500.74)" d="M 173.21328571428575 495.5347142857144 Q 173.21428571428575 495.5357142857144 175.00000000000003 499.10714285714295 Q 176.7857142857143 502.6785714285715 177.2321428571429 503.5714285714286 Q 177.67857142857147 504.4642857142857 178.5714285714286 505.3571428571429 Q 179.46428571428575 506.25000000000006 181.25000000000003 504.4642857142858 L 183.0367142857143 502.6775714285715" stroke-linecap="round" />
</g>
<g transform="matrix(1 0 0 1 212.05 505.8)" id="NYhQ-B90u_ly6OGZrve3g"  >
<path style="stroke: rgb(0,0,0); stroke-width: 1; stroke-dasharray: none; stroke-linecap: round; stroke-dashoffset: 0; stroke-linejoin: round; stroke-miterlimit: 10; fill: none; fill-rule: nonzero; opacity: 1;" vector-effect="non-scaling-stroke"  transform=" translate(-212.05, -505.8)" d="M 205.35614285714286 501.7847142857144 Q 205.35714285714286 501.7857142857144 207.14285714285717 503.12500000000006 Q 208.92857142857147 504.4642857142857 210.26785714285717 505.80357142857144 Q 211.60714285714286 507.14285714285717 212.50000000000003 508.4821428571429 Q 213.3928571428572 509.8214285714286 214.28571428571433 509.8214285714286 Q 215.17857142857147 509.8214285714286 216.96428571428575 509.37500000000006 L 218.75100000000003 508.9275714285715" stroke-linecap="round" />
</g>
<g transform="matrix(1 0 0 1 205.8 187.5)" id="dRzg0uuqc2X_ABg8djuP8"  >
<path style="stroke: rgb(0,0,0); stroke-width: 1; stroke-dasharray: none; stroke-linecap: round; stroke-dashoffset: 0; stroke-linejoin: round; stroke-miterlimit: 10; fill: none; fill-rule: nonzero; opacity: 1;" vector-effect="non-scaling-stroke"  transform=" translate(-205.8, -187.5)" d="M 84.82042857142858 100.89285714285712 Q 84.82142857142858 100.89285714285712 84.82142857142858 101.3392857142857 Q 84.82142857142858 101.78571428571428 85.26785714285717 101.78571428571428 Q 85.71428571428575 101.78571428571428 85.71428571428575 102.23214285714285 Q 85.71428571428575 102.67857142857142 86.1607142857143 103.12499999999999 Q 86.60714285714286 103.57142857142856 87.05357142857144 104.01785714285714 Q 87.50000000000003 104.46428571428571 88.39285714285717 104.91071428571428 Q 89.2857142857143 105.35714285714285 90.17857142857144 106.24999999999999 Q 91.07142857142858 107.14285714285712 92.85714285714286 108.92857142857142 Q 94.64285714285714 110.71428571428571 96.875 112.49999999999999 Q 99.10714285714286 114.28571428571426 101.33928571428572 116.07142857142856 Q 103.57142857142858 117.85714285714285 105.80357142857144 119.19642857142856 Q 108.0357142857143 120.53571428571426 110.71428571428572 122.32142857142856 Q 113.39285714285714 124.10714285714285 115.625 125.44642857142856 Q 117.85714285714286 126.78571428571426 120.08928571428572 128.57142857142856 Q 122.32142857142858 130.35714285714283 124.10714285714286 131.69642857142856 Q 125.89285714285714 133.03571428571428 128.125 134.375 Q 130.35714285714286 135.71428571428572 132.14285714285717 137.05357142857142 Q 133.92857142857147 138.3928571428571 135.26785714285717 139.28571428571428 Q 136.60714285714286 140.17857142857144 138.39285714285717 141.51785714285714 Q 140.17857142857147 142.85714285714283 142.4107142857143 144.64285714285714 Q 144.64285714285714 146.42857142857144 146.42857142857144 147.32142857142858 Q 148.21428571428575 148.21428571428572 150.4464285714286 149.10714285714286 Q 152.67857142857147 150 154.46428571428575 150.89285714285714 Q 156.25000000000003 151.78571428571428 157.58928571428575 153.125 Q 158.92857142857147 154.46428571428572 159.8214285714286 154.91071428571428 Q 160.71428571428575 155.35714285714283 162.05357142857144 156.24999999999997 Q 163.39285714285714 157.1428571428571 164.73214285714286 157.5892857142857 Q 166.07142857142858 158.03571428571428 167.4107142857143 159.375 Q 168.75000000000003 160.71428571428572 170.08928571428575 162.05357142857142 Q 171.42857142857147 163.3928571428571 173.21428571428575 164.28571428571428 Q 175.00000000000003 165.17857142857144 176.7857142857143 166.51785714285714 Q 178.57142857142858 167.85714285714283 179.9107142857143 168.74999999999997 Q 181.25000000000003 169.6428571428571 183.0357142857143 170.98214285714283 Q 184.82142857142858 172.32142857142856 187.05357142857144 173.66071428571428 Q 189.2857142857143 175 191.51785714285717 176.78571428571428 Q 193.75000000000003 178.57142857142856 195.9821428571429 179.4642857142857 Q 198.21428571428575 180.35714285714283 200.00000000000003 181.69642857142856 Q 201.7857142857143 183.03571428571428 204.01785714285717 184.375 Q 206.25000000000003 185.71428571428572 208.4821428571429 187.05357142857142 Q 210.71428571428575 188.3928571428571 212.05357142857147 189.28571428571428 Q 213.3928571428572 190.17857142857144 215.62500000000003 191.51785714285714 Q 217.85714285714286 192.85714285714283 219.64285714285717 194.19642857142856 Q 221.42857142857147 195.53571428571428 223.21428571428575 196.875 Q 225.00000000000003 198.21428571428572 227.2321428571429 200 Q 229.46428571428575 201.78571428571428 231.6964285714286 203.57142857142856 Q 233.92857142857147 205.35714285714283 236.16071428571433 207.14285714285714 Q 238.3928571428572 208.92857142857144 241.0714285714286 211.16071428571428 Q 243.75000000000003 213.3928571428571 245.9821428571429 214.73214285714283 Q 248.21428571428575 216.07142857142856 250.00000000000003 217.41071428571428 Q 251.7857142857143 218.75 254.01785714285717 220.08928571428572 Q 256.25 221.42857142857144 258.0357142857143 222.76785714285714 Q 259.82142857142856 224.10714285714283 261.1607142857143 225.89285714285714 Q 262.5 227.67857142857144 264.7321428571429 229.01785714285714 Q 266.9642857142858 230.35714285714283 268.75000000000006 231.69642857142856 Q 270.53571428571433 233.03571428571428 272.76785714285717 235.7142857142857 Q 275 238.3928571428571 277.67857142857144 240.17857142857142 Q 280.3571428571429 241.96428571428572 282.14285714285717 243.30357142857142 Q 283.92857142857144 244.6428571428571 286.6071428571429 246.42857142857142 Q 289.28571428571433 248.21428571428572 291.51785714285717 249.55357142857142 Q 293.75 250.8928571428571 295.5357142857143 252.23214285714283 Q 297.32142857142856 253.57142857142856 299.1071428571429 254.91071428571428 Q 300.8928571428572 256.25 303.12500000000006 258.0357142857143 Q 305.3571428571429 259.82142857142856 307.5892857142857 260.2678571428571 Q 309.82142857142856 260.7142857142857 311.6071428571429 262.5 Q 313.3928571428572 264.2857142857143 315.1785714285715 265.625 Q 316.9642857142858 266.9642857142857 318.3035714285715 267.4107142857143 Q 319.6428571428572 267.85714285714283 320.9821428571429 268.75 Q 322.32142857142856 269.6428571428571 323.2142857142857 270.5357142857142 Q 324.1071428571429 271.4285714285714 325.00000000000006 271.875 Q 325.8928571428572 272.32142857142856 326.3392857142858 273.21428571428567 L 326.7867142857143 274.1081428571428" stroke-linecap="round" />
</g>
<g transform="matrix(1 0 0 1 232.14 311.61)" id="KCcS_5ys5eaYrQFNK4mxh"  >
<path style="stroke: rgb(0,0,0); stroke-width: 1; stroke-dasharray: none; stroke-linecap: round; stroke-dashoffset: 0; stroke-linejoin: round; stroke-miterlimit: 10; fill: none; fill-rule: nonzero; opacity: 1;" vector-effect="non-scaling-stroke"  transform=" translate(-232.14, -311.61)" d="M 41.963285714285725 205.35614285714283 Q 41.96428571428572 205.35714285714283 41.96428571428572 206.24999999999997 Q 41.96428571428572 207.1428571428571 42.857142857142875 208.03571428571428 Q 43.75000000000003 208.92857142857144 45.08928571428574 210.71428571428572 Q 46.428571428571445 212.5 48.660714285714306 214.28571428571428 Q 50.89285714285717 216.07142857142856 52.678571428571445 218.30357142857142 Q 54.46428571428572 220.53571428571428 56.696428571428584 222.76785714285714 Q 58.928571428571445 225 61.160714285714306 226.78571428571428 Q 63.39285714285717 228.57142857142856 65.17857142857144 229.91071428571428 Q 66.96428571428572 231.25 68.75000000000001 233.48214285714286 Q 70.5357142857143 235.71428571428572 72.32142857142858 237.05357142857142 Q 74.10714285714286 238.3928571428571 76.33928571428572 240.17857142857142 Q 78.57142857142858 241.96428571428572 80.80357142857144 243.75 Q 83.0357142857143 245.53571428571428 85.26785714285717 247.32142857142856 Q 87.50000000000003 249.10714285714283 89.73214285714289 250.8928571428571 Q 91.96428571428575 252.6785714285714 93.75000000000003 254.0178571428571 Q 95.5357142857143 255.35714285714283 98.21428571428572 256.25 Q 100.89285714285714 257.1428571428571 102.67857142857144 258.48214285714283 Q 104.46428571428575 259.82142857142856 106.25000000000003 261.60714285714283 Q 108.0357142857143 263.3928571428571 110.26785714285717 265.17857142857144 Q 112.50000000000003 266.9642857142857 114.73214285714289 269.19642857142856 Q 116.96428571428575 271.4285714285714 119.19642857142861 272.7678571428571 Q 121.42857142857147 274.10714285714283 125.00000000000003 276.7857142857143 Q 128.57142857142858 279.4642857142857 131.25000000000003 281.25 Q 133.92857142857147 283.0357142857143 137.05357142857147 285.2678571428571 Q 140.17857142857147 287.5 142.4107142857143 288.83928571428567 Q 144.64285714285714 290.1785714285714 146.42857142857144 291.5178571428571 Q 148.21428571428575 292.85714285714283 150.89285714285717 294.6428571428571 Q 153.57142857142858 296.4285714285714 155.35714285714286 297.7678571428571 Q 157.14285714285714 299.10714285714283 158.92857142857144 300.8928571428571 Q 160.71428571428575 302.6785714285714 162.9464285714286 304.46428571428567 Q 165.17857142857147 306.25 166.96428571428575 307.58928571428567 Q 168.75000000000003 308.9285714285714 170.9821428571429 310.2678571428571 Q 173.21428571428575 311.60714285714283 175.4464285714286 312.94642857142856 Q 177.67857142857147 314.2857142857143 179.46428571428575 316.07142857142856 Q 181.25000000000003 317.85714285714283 183.92857142857144 319.19642857142856 Q 186.60714285714286 320.5357142857143 187.94642857142858 321.42857142857144 Q 189.2857142857143 322.32142857142856 190.62500000000003 323.21428571428567 Q 191.96428571428575 324.10714285714283 193.30357142857144 325 Q 194.64285714285714 325.8928571428571 196.42857142857144 327.23214285714283 Q 198.21428571428575 328.57142857142856 200.4464285714286 329.9107142857143 Q 202.67857142857147 331.25 204.01785714285717 331.69642857142856 Q 205.35714285714286 332.1428571428571 207.14285714285717 333.48214285714283 Q 208.92857142857147 334.82142857142856 210.71428571428575 335.71428571428567 Q 212.50000000000003 336.60714285714283 214.2857142857143 337.94642857142856 Q 216.07142857142858 339.2857142857143 217.8571428571429 340.17857142857144 Q 219.6428571428572 341.07142857142856 221.42857142857147 341.96428571428567 Q 223.21428571428575 342.85714285714283 225.4464285714286 344.6428571428571 Q 227.67857142857147 346.4285714285714 229.46428571428575 347.32142857142856 Q 231.25000000000003 348.2142857142857 233.0357142857143 349.55357142857144 Q 234.82142857142858 350.8928571428571 237.05357142857144 352.23214285714283 Q 239.2857142857143 353.57142857142856 241.07142857142858 355.35714285714283 Q 242.85714285714286 357.1428571428571 245.08928571428572 358.92857142857144 Q 247.32142857142858 360.7142857142857 250.44642857142858 362.5 Q 253.57142857142858 364.2857142857143 256.69642857142856 366.07142857142856 Q 259.82142857142856 367.85714285714283 263.8392857142857 369.6428571428571 Q 267.8571428571429 371.42857142857144 271.42857142857144 373.6607142857143 Q 275 375.8928571428571 279.4642857142857 379.0178571428571 Q 283.92857142857144 382.1428571428571 288.8392857142857 384.375 Q 293.75 386.60714285714283 297.3214285714286 388.83928571428567 Q 300.8928571428572 391.07142857142856 303.5714285714286 392.4107142857143 Q 306.25 393.75 308.4821428571429 394.6428571428571 Q 310.7142857142858 395.5357142857143 314.7321428571429 396.875 Q 318.75 398.2142857142857 324.1071428571429 400 Q 329.4642857142858 401.7857142857143 334.37500000000006 403.125 Q 339.28571428571433 404.4642857142857 347.3214285714286 406.69642857142856 Q 355.3571428571429 408.92857142857144 360.26785714285717 410.7142857142857 Q 365.17857142857144 412.5 370.0892857142858 413.8392857142857 Q 375.0000000000001 415.17857142857144 379.0178571428572 416.07142857142856 Q 383.03571428571433 416.9642857142857 385.7142857142858 416.9642857142857 Q 388.3928571428572 416.9642857142857 390.62500000000006 417.4107142857143 Q 392.8571428571429 417.85714285714283 395.0892857142858 417.85714285714283 Q 397.32142857142867 417.85714285714283 400.00000000000006 417.85714285714283 Q 402.67857142857144 417.85714285714283 403.5714285714286 417.85714285714283 Q 404.4642857142858 417.85714285714283 405.8035714285715 417.85714285714283 Q 407.1428571428572 417.85714285714283 408.48214285714295 417.4107142857143 Q 409.82142857142867 416.9642857142857 410.7142857142858 416.07142857142856 Q 411.6071428571429 415.17857142857144 412.50000000000006 413.8392857142857 Q 413.3928571428572 412.5 414.28571428571433 411.6071428571429 Q 415.17857142857144 410.7142857142857 416.51785714285717 408.92857142857144 Q 417.8571428571429 407.1428571428571 418.3035714285715 405.80357142857144 Q 418.7500000000001 404.4642857142857 419.6428571428572 402.2321428571429 Q 420.53571428571433 400 420.9821428571429 398.6607142857143 Q 421.42857142857144 397.32142857142856 421.87500000000006 395.08928571428567 Q 422.32142857142867 392.85714285714283 422.32142857142867 390.625 Q 422.32142857142867 388.3928571428571 422.32142857142867 386.60714285714283 Q 422.32142857142867 384.82142857142856 422.32142857142867 382.58928571428567 Q 422.32142857142867 380.35714285714283 422.32142857142867 377.67857142857144 Q 422.32142857142867 375 422.32142857142867 373.2142857142857 Q 422.32142857142867 371.42857142857144 422.32142857142867 369.6428571428571 Q 422.32142857142867 367.85714285714283 421.87500000000006 366.07142857142856 Q 421.42857142857144 364.2857142857143 420.53571428571433 362.5 Q 419.6428571428572 360.7142857142857 418.3035714285715 358.92857142857144 Q 416.9642857142858 357.1428571428571 416.0714285714286 354.9107142857142 Q 415.17857142857144 352.6785714285714 413.8392857142858 351.33928571428567 Q 412.5000000000001 350 410.7142857142858 347.7678571428571 Q 408.92857142857144 345.5357142857143 407.14285714285717 343.75 Q 405.3571428571429 341.9642857142857 403.5714285714286 339.7321428571429 Q 401.78571428571433 337.5 400.00000000000006 335.71428571428567 Q 398.2142857142858 333.9285714285714 396.4285714285715 332.58928571428567 Q 394.6428571428572 331.25 392.41071428571433 329.46428571428567 Q 390.17857142857144 327.6785714285714 387.9464285714286 326.33928571428567 Q 385.7142857142858 325 382.5892857142858 322.7678571428571 Q 379.4642857142858 320.5357142857143 377.23214285714295 318.75 Q 375.0000000000001 316.9642857142857 372.32142857142867 315.17857142857144 Q 369.6428571428572 313.3928571428571 367.41071428571433 311.60714285714283 Q 365.17857142857144 309.82142857142856 363.39285714285717 308.48214285714283 Q 361.6071428571429 307.1428571428571 359.8214285714286 305.80357142857144 Q 358.03571428571433 304.4642857142857 356.25000000000006 303.57142857142856 Q 354.4642857142858 302.6785714285714 353.12500000000006 301.33928571428567 Q 351.78571428571433 300 350.4464285714286 298.6607142857143 Q 349.1071428571429 297.32142857142856 347.76785714285717 296.42857142857144 Q 346.42857142857144 295.5357142857143 345.0892857142858 294.6428571428571 Q 343.7500000000001 293.75 341.9642857142858 292.8571428571429 Q 340.17857142857144 291.9642857142857 338.39285714285717 290.625 Q 336.6071428571429 289.2857142857143 335.26785714285717 288.3928571428571 Q 333.92857142857144 287.5 332.5892857142857 286.6071428571429 Q 331.25 285.7142857142857 330.3571428571429 284.82142857142856 Q 329.4642857142858 283.9285714285714 328.5714285714286 283.0357142857142 Q 327.67857142857144 282.1428571428571 326.78571428571433 281.25 Q 325.8928571428572 280.35714285714283 325.00000000000006 279.46428571428567 Q 324.1071428571429 278.57142857142856 323.2142857142857 277.67857142857144 Q 322.32142857142856 276.7857142857143 321.875 275.8928571428571 Q 321.42857142857144 275 320.9821428571429 274.1071428571429 Q 320.53571428571433 273.2142857142857 320.53571428571433 272.7678571428571 Q 320.53571428571433 272.32142857142856 319.64285714285717 271.875 Q 318.75 271.4285714285714 318.75 270.98214285714283 Q 318.75 270.5357142857143 317.8571428571429 270.08928571428567 L 316.9632857142858 269.64185714285713" stroke-linecap="round" />
</g>
<g transform="matrix(1 0 0 1 61.61 139.29)" id="xZgs2pUCxVG44Pi7UubKo"  >
<path style="stroke: rgb(0,0,0); stroke-width: 1; stroke-dasharray: none; stroke-linecap: round; stroke-dashoffset: 0; stroke-linejoin: round; stroke-miterlimit: 10; fill: none; fill-rule: nonzero; opacity: 1;" vector-effect="non-scaling-stroke"  transform=" translate(-61.61, -139.29)" d="M 86.60814285714287 100.89185714285712 Q 86.60714285714286 100.89285714285712 86.1607142857143 100.89285714285712 Q 85.71428571428575 100.89285714285712 85.26785714285717 102.67857142857142 Q 84.82142857142858 104.46428571428571 83.48214285714286 106.69642857142856 Q 82.14285714285714 108.92857142857142 81.25 110.7142857142857 Q 80.35714285714286 112.49999999999999 79.01785714285715 114.73214285714285 Q 77.67857142857144 116.96428571428571 76.7857142857143 118.74999999999999 Q 75.89285714285717 120.53571428571426 74.10714285714288 122.76785714285712 Q 72.32142857142858 124.99999999999999 70.5357142857143 128.125 Q 68.75000000000003 131.25 67.4107142857143 133.03571428571428 Q 66.07142857142858 134.82142857142856 64.2857142857143 137.5 Q 62.50000000000003 140.17857142857144 60.26785714285717 142.85714285714286 Q 58.035714285714306 145.53571428571428 56.250000000000014 147.32142857142856 Q 54.46428571428572 149.10714285714283 53.125000000000014 151.78571428571428 Q 51.785714285714306 154.46428571428572 50.000000000000014 156.69642857142858 Q 48.21428571428572 158.92857142857144 47.321428571428584 160.71428571428572 Q 46.428571428571445 162.5 44.64285714285715 164.73214285714286 Q 42.85714285714286 166.96428571428572 41.96428571428572 168.75 Q 41.071428571428584 170.53571428571428 40.625000000000014 171.42857142857142 Q 40.178571428571445 172.32142857142856 39.732142857142875 173.2142857142857 Q 39.285714285714306 174.10714285714283 38.39285714285717 174.99999999999997 Q 37.50000000000003 175.8928571428571 37.50000000000003 176.3392857142857 Q 37.50000000000003 176.78571428571428 37.053571428571445 177.23214285714286 L 36.60614285714286 177.67957142857145" stroke-linecap="round" />
</g>
<g transform="matrix(1 0 0 1 241.52 278.57)" id="KuBXzFcswKjoHyMI9Qc5N"  >
<path style="stroke: rgb(0,0,0); stroke-width: 1; stroke-dasharray: none; stroke-linecap: round; stroke-dashoffset: 0; stroke-linejoin: round; stroke-miterlimit: 10; fill: none; fill-rule: nonzero; opacity: 1;" vector-effect="non-scaling-stroke"  transform=" translate(-241.52, -278.57)" d="M 136.60614285714286 177.67757142857144 Q 136.60714285714286 177.67857142857144 136.60714285714286 178.125 Q 136.60714285714286 178.57142857142856 137.05357142857144 179.4642857142857 Q 137.50000000000003 180.35714285714283 137.50000000000003 181.69642857142856 Q 137.50000000000003 183.03571428571428 138.39285714285717 184.82142857142856 Q 139.2857142857143 186.60714285714283 139.7321428571429 188.8392857142857 Q 140.17857142857147 191.07142857142856 140.62500000000003 192.85714285714283 Q 141.07142857142858 194.6428571428571 141.96428571428572 196.42857142857142 Q 142.85714285714286 198.21428571428572 143.30357142857144 200 Q 143.75000000000003 201.78571428571428 144.19642857142858 203.57142857142856 Q 144.64285714285714 205.35714285714283 145.98214285714286 207.5892857142857 Q 147.32142857142858 209.82142857142856 148.6607142857143 212.5 Q 150.00000000000003 215.17857142857144 150.89285714285717 216.96428571428572 Q 151.7857142857143 218.75 152.67857142857144 220.98214285714286 Q 153.57142857142858 223.21428571428572 154.46428571428572 224.55357142857142 Q 155.35714285714286 225.8928571428571 156.69642857142858 228.12499999999997 Q 158.0357142857143 230.35714285714283 159.37500000000003 232.5892857142857 Q 160.71428571428575 234.82142857142856 162.05357142857144 237.05357142857142 Q 163.39285714285714 239.28571428571428 164.73214285714286 241.51785714285714 Q 166.07142857142858 243.75 167.4107142857143 245.0892857142857 Q 168.75000000000003 246.4285714285714 170.08928571428575 248.66071428571425 Q 171.42857142857147 250.8928571428571 172.3214285714286 252.23214285714283 Q 173.21428571428575 253.57142857142856 175.00000000000003 254.91071428571428 Q 176.7857142857143 256.25 178.12500000000003 257.58928571428567 Q 179.46428571428575 258.9285714285714 180.3571428571429 260.2678571428571 Q 181.25000000000003 261.60714285714283 183.0357142857143 262.94642857142856 Q 184.82142857142858 264.2857142857143 186.1607142857143 266.07142857142856 Q 187.50000000000003 267.85714285714283 189.7321428571429 269.6428571428571 Q 191.96428571428575 271.4285714285714 193.75000000000003 273.6607142857142 Q 195.5357142857143 275.8928571428571 196.87500000000003 276.33928571428567 Q 198.21428571428575 276.7857142857143 200.00000000000003 279.0178571428571 Q 201.7857142857143 281.25 204.01785714285717 282.58928571428567 Q 206.25000000000003 283.9285714285714 208.0357142857143 285.2678571428571 Q 209.82142857142858 286.60714285714283 211.6071428571429 288.3928571428571 Q 213.3928571428572 290.1785714285714 215.17857142857147 291.5178571428571 Q 216.96428571428575 292.85714285714283 218.30357142857147 293.75 Q 219.6428571428572 294.6428571428571 221.42857142857147 295.98214285714283 Q 223.21428571428575 297.32142857142856 224.55357142857147 298.21428571428567 Q 225.8928571428572 299.10714285714283 226.78571428571433 300 Q 227.67857142857147 300.8928571428571 229.01785714285717 302.23214285714283 Q 230.35714285714286 303.57142857142856 231.69642857142858 304.46428571428567 Q 233.0357142857143 305.35714285714283 234.37500000000003 307.1428571428571 Q 235.71428571428575 308.9285714285714 237.9464285714286 310.2678571428571 Q 240.17857142857147 311.60714285714283 241.96428571428575 313.3928571428571 Q 243.75000000000003 315.1785714285714 245.9821428571429 316.5178571428571 Q 248.21428571428575 317.85714285714283 250.00000000000003 319.6428571428571 Q 251.7857142857143 321.4285714285714 254.01785714285717 322.7678571428571 Q 256.25 324.10714285714283 258.4821428571429 325.44642857142856 Q 260.7142857142858 326.7857142857143 262.50000000000006 328.125 Q 264.28571428571433 329.4642857142857 266.51785714285717 330.3571428571429 Q 268.75 331.25 270.0892857142857 332.1428571428571 Q 271.42857142857144 333.0357142857143 272.3214285714286 333.48214285714283 Q 273.2142857142858 333.9285714285714 274.1071428571429 334.82142857142856 Q 275 335.7142857142857 275.89285714285717 336.1607142857143 Q 276.78571428571433 336.60714285714283 278.12500000000006 337.5 Q 279.4642857142858 338.3928571428571 280.3571428571429 339.2857142857142 Q 281.25 340.1785714285714 282.14285714285717 341.07142857142856 Q 283.03571428571433 341.9642857142857 284.8214285714286 342.8571428571429 Q 286.6071428571429 343.75 287.9464285714286 344.6428571428571 Q 289.28571428571433 345.5357142857143 290.62500000000006 346.42857142857144 Q 291.9642857142858 347.32142857142856 293.75000000000006 348.21428571428567 Q 295.53571428571433 349.10714285714283 296.87500000000006 350 Q 298.2142857142858 350.8928571428571 299.5535714285715 351.7857142857142 Q 300.8928571428572 352.6785714285714 302.6785714285715 354.0178571428571 Q 304.4642857142858 355.35714285714283 306.25000000000006 355.80357142857144 Q 308.03571428571433 356.25 308.92857142857144 356.69642857142856 Q 309.82142857142856 357.1428571428571 311.6071428571429 358.48214285714283 Q 313.3928571428572 359.82142857142856 315.62500000000006 360.71428571428567 Q 317.8571428571429 361.60714285714283 319.64285714285717 362.94642857142856 Q 321.42857142857144 364.2857142857143 323.66071428571433 365.625 Q 325.8928571428572 366.9642857142857 327.2321428571429 367.8571428571429 Q 328.57142857142856 368.75 329.9107142857143 369.6428571428571 Q 331.25 370.5357142857143 332.5892857142857 371.42857142857144 Q 333.92857142857144 372.32142857142856 336.16071428571433 373.6607142857143 Q 338.3928571428572 375 339.28571428571433 375.44642857142856 Q 340.17857142857144 375.8928571428571 341.51785714285717 376.7857142857143 Q 342.8571428571429 377.67857142857144 343.75000000000006 378.125 Q 344.6428571428572 378.57142857142856 345.53571428571433 379.0178571428571 L 346.4295714285714 379.4652857142857" stroke-linecap="round" />
</g>
<g transform="matrix(1 0 0 1 260.71 299.11)" id="gmfEKZZl3KO5OIlT5aDAB"  >
<path style="stroke: rgb(0,0,0); stroke-width: 1; stroke-dasharray: none; stroke-linecap: round; stroke-dashoffset: 0; stroke-linejoin: round; stroke-miterlimit: 10; fill: none; fill-rule: nonzero; opacity: 1;" vector-effect="non-scaling-stroke"  transform=" translate(-260.71, -299.11)" d="M 128.57042857142858 179.46428571428572 Q 128.57142857142858 179.46428571428572 129.01785714285717 179.46428571428572 Q 129.46428571428575 179.46428571428572 130.3571428571429 179.46428571428572 Q 131.25000000000003 179.46428571428572 132.14285714285717 179.46428571428572 Q 133.0357142857143 179.46428571428572 134.82142857142858 179.46428571428572 Q 136.60714285714286 179.46428571428572 138.39285714285717 179.46428571428572 Q 140.17857142857147 179.46428571428572 141.51785714285717 179.46428571428572 Q 142.85714285714286 179.46428571428572 144.19642857142858 179.46428571428572 Q 145.5357142857143 179.46428571428572 146.87500000000003 179.46428571428572 Q 148.21428571428575 179.46428571428572 149.1071428571429 179.46428571428572 Q 150.00000000000003 179.46428571428572 151.33928571428575 179.91071428571428 Q 152.67857142857147 180.35714285714283 154.01785714285717 181.69642857142856 Q 155.35714285714286 183.03571428571428 156.69642857142858 183.03571428571428 Q 158.0357142857143 183.03571428571428 159.82142857142858 183.92857142857142 Q 161.60714285714286 184.82142857142856 162.5 185.7142857142857 Q 163.39285714285714 186.60714285714283 165.17857142857144 187.94642857142856 Q 166.96428571428575 189.28571428571428 168.75000000000003 190.17857142857142 Q 170.5357142857143 191.07142857142856 171.87500000000003 192.41071428571428 Q 173.21428571428575 193.75 174.55357142857144 194.64285714285714 Q 175.89285714285714 195.53571428571428 177.67857142857144 196.875 Q 179.46428571428575 198.21428571428572 181.25000000000003 199.10714285714286 Q 183.0357142857143 200 184.82142857142858 201.33928571428572 Q 186.60714285714286 202.67857142857144 187.94642857142858 203.57142857142858 Q 189.2857142857143 204.46428571428572 191.07142857142858 205.35714285714286 Q 192.85714285714286 206.25 194.19642857142858 207.58928571428572 Q 195.5357142857143 208.92857142857144 197.76785714285717 209.82142857142858 Q 200.00000000000003 210.71428571428572 200.89285714285717 211.60714285714286 Q 201.7857142857143 212.5 203.12500000000003 213.39285714285714 Q 204.46428571428575 214.28571428571428 206.25000000000003 215.625 Q 208.0357142857143 216.96428571428572 208.92857142857144 217.41071428571428 Q 209.82142857142858 217.85714285714283 211.6071428571429 219.19642857142856 Q 213.3928571428572 220.53571428571428 214.7321428571429 221.42857142857142 Q 216.07142857142858 222.32142857142856 217.4107142857143 223.2142857142857 Q 218.75000000000003 224.10714285714283 219.64285714285717 224.55357142857142 Q 220.5357142857143 225 221.42857142857144 225.44642857142856 Q 222.32142857142858 225.8928571428571 223.21428571428572 227.23214285714283 Q 224.10714285714286 228.57142857142856 225.89285714285717 229.01785714285714 Q 227.67857142857147 229.46428571428572 229.01785714285717 230.80357142857142 Q 230.35714285714286 232.1428571428571 231.69642857142858 233.03571428571428 Q 233.0357142857143 233.92857142857144 233.92857142857144 234.82142857142858 Q 234.82142857142858 235.71428571428572 236.1607142857143 236.16071428571428 Q 237.50000000000003 236.60714285714283 238.39285714285717 237.94642857142856 Q 239.2857142857143 239.28571428571428 240.62500000000003 239.73214285714283 Q 241.96428571428575 240.1785714285714 243.30357142857147 241.5178571428571 Q 244.6428571428572 242.85714285714283 245.53571428571433 243.30357142857142 Q 246.42857142857147 243.75 248.21428571428575 245.0892857142857 Q 250.00000000000003 246.4285714285714 251.7857142857143 247.7678571428571 Q 253.57142857142858 249.10714285714283 254.91071428571428 249.55357142857142 Q 256.25 250 257.5892857142857 250.44642857142856 Q 258.92857142857144 250.8928571428571 259.8214285714286 252.23214285714283 Q 260.7142857142858 253.57142857142856 262.50000000000006 254.01785714285714 Q 264.28571428571433 254.46428571428572 265.62500000000006 255.35714285714286 Q 266.9642857142858 256.25 268.3035714285715 257.1428571428571 Q 269.6428571428572 258.0357142857143 270.9821428571429 258.48214285714283 Q 272.32142857142856 258.9285714285714 273.6607142857143 259.82142857142856 Q 275 260.7142857142857 275.4464285714286 261.1607142857143 Q 275.8928571428572 261.60714285714283 276.78571428571433 262.94642857142856 Q 277.67857142857144 264.2857142857143 278.5714285714286 264.73214285714283 Q 279.4642857142858 265.1785714285714 280.3571428571429 266.07142857142856 Q 281.25 266.9642857142857 281.6964285714286 267.4107142857143 Q 282.1428571428572 267.85714285714283 283.4821428571429 269.6428571428571 Q 284.82142857142856 271.4285714285714 286.1607142857143 272.32142857142856 Q 287.5 273.2142857142857 288.39285714285717 274.1071428571429 Q 289.28571428571433 275 291.0714285714286 276.7857142857143 Q 292.8571428571429 278.57142857142856 293.75000000000006 279.46428571428567 Q 294.6428571428572 280.35714285714283 295.9821428571429 281.69642857142856 Q 297.32142857142856 283.0357142857143 298.6607142857143 283.92857142857144 Q 300 284.82142857142856 301.3392857142857 286.1607142857143 Q 302.67857142857144 287.5 304.01785714285717 288.83928571428567 Q 305.3571428571429 290.1785714285714 306.6964285714286 291.5178571428571 Q 308.03571428571433 292.85714285714283 308.92857142857144 293.75 Q 309.82142857142856 294.6428571428571 310.7142857142857 295.98214285714283 Q 311.6071428571429 297.32142857142856 312.9464285714286 298.6607142857143 Q 314.28571428571433 300 315.17857142857144 300.8928571428571 Q 316.07142857142856 301.7857142857143 316.9642857142857 303.57142857142856 Q 317.8571428571429 305.35714285714283 319.64285714285717 306.69642857142856 Q 321.42857142857144 308.0357142857143 321.875 309.375 Q 322.32142857142856 310.7142857142857 323.2142857142857 312.05357142857144 Q 324.1071428571429 313.3928571428571 325.4464285714286 314.73214285714283 Q 326.78571428571433 316.07142857142856 327.67857142857144 317.85714285714283 Q 328.57142857142856 319.6428571428571 329.9107142857143 321.42857142857144 Q 331.25 323.2142857142857 332.14285714285717 324.1071428571429 Q 333.03571428571433 325 334.37500000000006 326.7857142857143 Q 335.7142857142858 328.57142857142856 336.60714285714295 330.35714285714283 Q 337.5000000000001 332.1428571428571 337.94642857142867 333.48214285714283 Q 338.3928571428572 334.82142857142856 339.73214285714295 336.1607142857143 Q 341.07142857142867 337.5 341.9642857142858 338.83928571428567 Q 342.8571428571429 340.1785714285714 343.3035714285715 341.07142857142856 Q 343.7500000000001 341.9642857142857 344.19642857142867 342.8571428571429 Q 344.6428571428572 343.75 345.53571428571433 345.08928571428567 Q 346.42857142857144 346.4285714285714 346.87500000000006 347.32142857142856 Q 347.32142857142867 348.2142857142857 347.7678571428572 349.55357142857144 Q 348.2142857142858 350.8928571428571 349.10714285714295 352.23214285714283 Q 350.0000000000001 353.57142857142856 350.44642857142867 354.9107142857143 Q 350.8928571428572 356.25 351.3392857142858 356.69642857142856 Q 351.78571428571433 357.1428571428571 352.2321428571429 358.48214285714283 Q 352.67857142857144 359.82142857142856 353.12500000000006 361.60714285714283 Q 353.57142857142867 363.3928571428571 354.4642857142858 364.2857142857143 Q 355.3571428571429 365.17857142857144 355.8035714285715 366.5178571428571 Q 356.2500000000001 367.85714285714283 356.69642857142867 368.75 Q 357.1428571428572 369.6428571428571 358.03571428571433 370.98214285714283 Q 358.92857142857144 372.32142857142856 359.8214285714286 373.6607142857143 Q 360.7142857142858 375 361.16071428571433 376.7857142857143 Q 361.6071428571429 378.57142857142856 362.50000000000006 379.46428571428567 Q 363.3928571428572 380.35714285714283 363.8392857142858 381.69642857142856 Q 364.28571428571433 383.0357142857143 365.62500000000006 384.82142857142856 Q 366.9642857142858 386.60714285714283 367.85714285714295 387.94642857142856 Q 368.7500000000001 389.2857142857143 369.6428571428572 390.17857142857144 Q 370.53571428571433 391.07142857142856 370.9821428571429 391.96428571428567 Q 371.42857142857144 392.85714285714283 372.3214285714286 394.19642857142856 Q 373.2142857142858 395.5357142857143 373.66071428571433 396.42857142857144 Q 374.1071428571429 397.32142857142856 374.5535714285715 398.21428571428567 Q 375.0000000000001 399.10714285714283 375.8928571428572 400 Q 376.78571428571433 400.8928571428571 377.6785714285715 401.7857142857143 Q 378.57142857142867 402.67857142857144 379.0178571428572 403.57142857142856 Q 379.4642857142858 404.4642857142857 379.91071428571433 404.9107142857143 Q 380.3571428571429 405.35714285714283 381.25000000000006 406.25 Q 382.1428571428572 407.1428571428571 382.5892857142858 408.0357142857143 Q 383.03571428571433 408.92857142857144 383.9285714285715 409.82142857142856 Q 384.82142857142867 410.7142857142857 385.2678571428572 411.6071428571429 Q 385.7142857142858 412.5 386.60714285714295 412.94642857142856 Q 387.5000000000001 413.3928571428571 388.3928571428572 414.2857142857143 Q 389.28571428571433 415.17857142857144 389.28571428571433 415.625 Q 389.28571428571433 416.07142857142856 389.7321428571429 416.07142857142856 Q 390.17857142857144 416.07142857142856 391.0714285714286 416.5178571428571 Q 391.9642857142858 416.9642857142857 392.41071428571433 417.8571428571429 L 392.85814285714287 418.751" stroke-linecap="round" />
</g>
<g transform="matrix(1 0 0 1 370.98 399.55)" id="zMtFludVd39pIvRFlipbx"  >
<path style="stroke: rgb(0,0,0); stroke-width: 1; stroke-dasharray: none; stroke-linecap: round; stroke-dashoffset: 0; stroke-linejoin: round; stroke-miterlimit: 10; fill: none; fill-rule: nonzero; opacity: 1;" vector-effect="non-scaling-stroke"  transform=" translate(-370.98, -399.55)" d="M 344.64185714285725 379.46328571428575 Q 344.6428571428572 379.4642857142857 345.53571428571433 379.4642857142857 Q 346.42857142857144 379.4642857142857 346.87500000000006 380.80357142857144 Q 347.32142857142867 382.1428571428571 348.6607142857144 383.0357142857143 Q 350.0000000000001 383.92857142857144 350.8928571428572 385.2678571428571 Q 351.78571428571433 386.60714285714283 353.12500000000006 387.94642857142856 Q 354.4642857142858 389.2857142857143 355.8035714285715 391.07142857142856 Q 357.1428571428572 392.85714285714283 358.48214285714295 393.30357142857144 Q 359.82142857142867 393.75 360.7142857142858 395.0892857142857 Q 361.6071428571429 396.42857142857144 362.9464285714286 397.32142857142856 Q 364.28571428571433 398.2142857142857 365.1785714285715 399.1071428571429 Q 366.07142857142867 400 366.9642857142858 400.8928571428571 Q 367.8571428571429 401.7857142857143 368.75000000000006 402.2321428571429 Q 369.6428571428572 402.67857142857144 370.53571428571433 403.57142857142856 Q 371.42857142857144 404.4642857142857 372.76785714285717 405.3571428571429 Q 374.1071428571429 406.25 375.00000000000006 407.1428571428571 Q 375.8928571428572 408.0357142857143 376.78571428571433 408.4821428571429 Q 377.67857142857144 408.92857142857144 378.5714285714286 409.375 Q 379.4642857142858 409.82142857142856 380.35714285714295 410.71428571428567 Q 381.2500000000001 411.60714285714283 381.69642857142867 412.05357142857144 Q 382.1428571428572 412.5 383.48214285714295 412.94642857142856 Q 384.82142857142867 413.3928571428571 385.2678571428572 413.83928571428567 Q 385.7142857142858 414.2857142857143 386.60714285714295 414.7321428571429 Q 387.5000000000001 415.17857142857144 388.3928571428572 415.625 Q 389.28571428571433 416.07142857142856 389.7321428571429 416.5178571428571 Q 390.17857142857144 416.9642857142857 391.0714285714286 416.9642857142857 Q 391.9642857142858 416.9642857142857 392.41071428571433 417.4107142857143 Q 392.8571428571429 417.85714285714283 393.75000000000006 418.30357142857144 Q 394.6428571428572 418.75 395.0892857142858 418.75 Q 395.53571428571433 418.75 396.4285714285715 419.19642857142856 L 397.32242857142865 419.6438571428571" stroke-linecap="round" />
</g>
<g transform="matrix(1 0 0 1 252.23 292.86)" id="1fCNImCw7McDl-jlZc1RY"  >
<path style="stroke: rgb(0,0,0); stroke-width: 1; stroke-dasharray: none; stroke-linecap: round; stroke-dashoffset: 0; stroke-linejoin: round; stroke-miterlimit: 10; fill: none; fill-rule: nonzero; opacity: 1;" vector-effect="non-scaling-stroke"  transform=" translate(-252.23, -292.86)" d="M 140.17757142857147 183.03471428571427 Q 140.17857142857147 183.03571428571428 141.0714285714286 183.92857142857142 Q 141.96428571428575 184.82142857142856 142.4107142857143 185.26785714285714 Q 142.85714285714286 185.71428571428572 144.64285714285717 187.05357142857142 Q 146.42857142857147 188.3928571428571 147.76785714285717 190.62499999999997 Q 149.10714285714286 192.85714285714283 151.33928571428572 195.0892857142857 Q 153.57142857142858 197.32142857142856 155.80357142857144 200 Q 158.0357142857143 202.67857142857144 159.37500000000003 204.46428571428572 Q 160.71428571428575 206.25 162.50000000000003 207.58928571428572 Q 164.2857142857143 208.92857142857144 165.62500000000003 210.71428571428572 Q 166.96428571428575 212.5 169.1964285714286 215.17857142857142 Q 171.42857142857147 217.85714285714283 173.21428571428575 219.64285714285714 Q 175.00000000000003 221.42857142857144 176.7857142857143 223.21428571428572 Q 178.57142857142858 225 179.9107142857143 225.89285714285714 Q 181.25000000000003 226.78571428571428 183.0357142857143 228.125 Q 184.82142857142858 229.46428571428572 186.1607142857143 229.91071428571428 Q 187.50000000000003 230.35714285714283 188.83928571428575 231.69642857142856 Q 190.17857142857147 233.03571428571428 191.51785714285717 233.92857142857142 Q 192.85714285714286 234.82142857142856 195.5357142857143 237.05357142857142 Q 198.21428571428575 239.28571428571428 198.6607142857143 239.28571428571428 Q 199.10714285714286 239.28571428571428 200 240.17857142857142 Q 200.89285714285714 241.07142857142856 202.23214285714286 242.41071428571428 Q 203.57142857142858 243.75 204.9107142857143 244.64285714285714 Q 206.25000000000003 245.53571428571428 207.58928571428575 246.875 Q 208.92857142857147 248.21428571428572 210.26785714285717 249.10714285714286 Q 211.60714285714286 250 212.50000000000003 250.89285714285714 Q 213.3928571428572 251.78571428571428 214.7321428571429 253.125 Q 216.07142857142858 254.46428571428572 216.96428571428572 254.91071428571428 Q 217.85714285714286 255.35714285714283 219.19642857142858 257.1428571428571 Q 220.5357142857143 258.9285714285714 221.87500000000003 259.375 Q 223.21428571428575 259.82142857142856 224.55357142857147 261.1607142857143 Q 225.8928571428572 262.5 227.67857142857147 264.2857142857143 Q 229.46428571428575 266.07142857142856 230.80357142857147 266.96428571428567 Q 232.1428571428572 267.85714285714283 233.92857142857147 269.19642857142856 Q 235.71428571428575 270.5357142857143 237.05357142857147 271.875 Q 238.3928571428572 273.2142857142857 239.7321428571429 274.1071428571429 Q 241.07142857142858 275 241.96428571428572 276.33928571428567 Q 242.85714285714286 277.6785714285714 244.64285714285717 279.0178571428571 Q 246.42857142857147 280.35714285714283 247.76785714285717 281.25 Q 249.10714285714286 282.1428571428571 250.44642857142858 283.48214285714283 Q 251.7857142857143 284.82142857142856 252.67857142857144 286.1607142857143 Q 253.57142857142858 287.5 254.91071428571428 287.94642857142856 Q 256.25 288.3928571428571 258.0357142857143 290.17857142857144 Q 259.82142857142856 291.9642857142857 261.6071428571429 293.75 Q 263.3928571428572 295.5357142857143 264.7321428571429 296.875 Q 266.07142857142856 298.2142857142857 267.4107142857143 299.55357142857144 Q 268.75 300.8928571428571 270.0892857142857 302.23214285714283 Q 271.42857142857144 303.57142857142856 272.3214285714286 304.46428571428567 Q 273.2142857142858 305.35714285714283 274.1071428571429 305.80357142857144 Q 275 306.25 275.89285714285717 307.1428571428571 Q 276.78571428571433 308.0357142857143 277.67857142857144 308.92857142857144 Q 278.57142857142856 309.82142857142856 279.9107142857143 311.1607142857143 Q 281.25 312.5 281.6964285714286 313.3928571428571 Q 282.1428571428572 314.2857142857143 283.03571428571433 314.73214285714283 Q 283.92857142857144 315.1785714285714 284.8214285714286 316.07142857142856 Q 285.7142857142858 316.9642857142857 286.6071428571429 317.8571428571429 Q 287.5 318.75 288.39285714285717 319.19642857142856 Q 289.28571428571433 319.6428571428571 290.17857142857144 320.5357142857142 Q 291.07142857142856 321.4285714285714 292.4107142857143 322.32142857142856 Q 293.75 323.2142857142857 294.64285714285717 324.1071428571429 Q 295.53571428571433 325 296.42857142857144 325.44642857142856 Q 297.32142857142856 325.8928571428571 298.2142857142857 326.7857142857142 Q 299.1071428571429 327.6785714285714 300.00000000000006 328.57142857142856 Q 300.8928571428572 329.4642857142857 301.78571428571433 330.3571428571429 Q 302.67857142857144 331.25 304.01785714285717 332.58928571428567 Q 305.3571428571429 333.9285714285714 306.6964285714286 334.375 Q 308.03571428571433 334.82142857142856 308.92857142857144 335.71428571428567 Q 309.82142857142856 336.60714285714283 310.7142857142857 337.05357142857144 Q 311.6071428571429 337.5 313.39285714285717 339.2857142857143 Q 315.17857142857144 341.07142857142856 316.0714285714286 342.4107142857143 Q 316.9642857142858 343.75 318.75000000000006 345.5357142857143 Q 320.53571428571433 347.32142857142856 321.87500000000006 348.21428571428567 Q 323.2142857142858 349.10714285714283 324.5535714285715 350.44642857142856 Q 325.8928571428572 351.7857142857143 326.78571428571433 353.125 Q 327.67857142857144 354.4642857142857 329.01785714285717 355.3571428571429 Q 330.3571428571429 356.25 331.25000000000006 357.1428571428571 Q 332.1428571428572 358.0357142857143 333.4821428571429 358.92857142857144 Q 334.82142857142856 359.82142857142856 335.26785714285717 360.71428571428567 Q 335.7142857142858 361.60714285714283 336.60714285714295 362.5 Q 337.5000000000001 363.3928571428571 338.3928571428572 364.73214285714283 Q 339.28571428571433 366.07142857142856 340.1785714285715 366.5178571428571 Q 341.07142857142867 366.9642857142857 341.9642857142858 368.30357142857144 Q 342.8571428571429 369.6428571428571 344.1964285714286 371.42857142857144 Q 345.53571428571433 373.2142857142857 346.87500000000006 375 Q 348.2142857142858 376.7857142857143 349.10714285714295 378.57142857142856 Q 350.0000000000001 380.35714285714283 351.3392857142858 381.69642857142856 Q 352.67857142857144 383.0357142857143 354.01785714285717 384.375 Q 355.3571428571429 385.7142857142857 356.25000000000006 386.6071428571429 Q 357.1428571428572 387.5 357.5892857142858 387.94642857142856 Q 358.03571428571433 388.3928571428571 358.9285714285715 388.83928571428567 Q 359.82142857142867 389.2857142857143 360.7142857142858 390.625 Q 361.6071428571429 391.9642857142857 362.50000000000006 393.75 Q 363.3928571428572 395.5357142857143 363.8392857142858 397.32142857142856 Q 364.28571428571433 399.10714285714283 364.28571428571433 400.8928571428571 L 364.28571428571433 402.6795714285714" stroke-linecap="round" />
</g>
<g transform="matrix(1 0 0 1 362.05 119.64)" id="viMW7_c9yXUetMCwYVceA"  >
<path style="stroke: rgb(0,0,0); stroke-width: 1; stroke-dasharray: none; stroke-linecap: round; stroke-dashoffset: 0; stroke-linejoin: round; stroke-miterlimit: 10; fill: none; fill-rule: nonzero; opacity: 1;" vector-effect="non-scaling-stroke"  transform=" translate(-362.05, -119.64)" d="M 329.4642857142858 82.14385714285713 Q 329.4642857142858 82.14285714285712 329.4642857142858 81.24999999999999 Q 329.4642857142858 80.35714285714285 329.4642857142858 79.01785714285714 Q 329.4642857142858 77.67857142857142 329.01785714285717 75.44642857142856 Q 328.57142857142856 73.2142857142857 328.57142857142856 70.98214285714283 Q 328.57142857142856 68.74999999999999 328.57142857142856 67.41071428571428 Q 328.57142857142856 66.07142857142856 329.01785714285717 64.73214285714283 Q 329.4642857142858 63.392857142857125 331.25000000000006 62.05357142857141 Q 333.03571428571433 60.714285714285694 334.8214285714286 58.92857142857141 Q 336.6071428571429 57.142857142857125 339.28571428571433 56.249999999999986 Q 341.9642857142858 55.35714285714285 345.53571428571433 55.35714285714285 Q 349.1071428571429 55.35714285714285 352.6785714285715 55.35714285714285 Q 356.2500000000001 55.35714285714285 359.82142857142867 56.69642857142856 Q 363.3928571428572 58.03571428571428 366.9642857142858 59.82142857142856 Q 370.53571428571433 61.60714285714285 374.5535714285715 63.8392857142857 Q 378.57142857142867 66.07142857142856 381.69642857142867 68.74999999999999 Q 384.82142857142867 71.42857142857142 386.60714285714295 72.76785714285714 Q 388.3928571428572 74.10714285714285 390.62500000000006 75.89285714285714 Q 392.8571428571429 77.67857142857142 393.75000000000006 79.4642857142857 Q 394.6428571428572 81.24999999999999 395.0892857142858 83.03571428571428 Q 395.53571428571433 84.82142857142856 395.53571428571433 86.60714285714283 Q 395.53571428571433 88.39285714285712 395.53571428571433 90.17857142857142 Q 395.53571428571433 91.96428571428571 395.53571428571433 93.30357142857142 Q 395.53571428571433 94.64285714285712 395.53571428571433 96.42857142857142 Q 395.53571428571433 98.21428571428571 394.1964285714286 100.44642857142856 Q 392.8571428571429 102.67857142857142 391.0714285714286 104.4642857142857 Q 389.28571428571433 106.24999999999999 387.0535714285715 108.48214285714285 Q 384.82142857142867 110.71428571428571 382.1428571428572 113.83928571428571 Q 379.4642857142858 116.96428571428571 378.12500000000006 118.74999999999999 Q 376.78571428571433 120.53571428571426 375.00000000000006 122.76785714285712 Q 373.2142857142858 124.99999999999999 371.87500000000006 127.23214285714286 Q 370.53571428571433 129.46428571428572 369.1964285714286 131.69642857142858 Q 367.8571428571429 133.92857142857144 366.9642857142858 136.16071428571428 Q 366.07142857142867 138.3928571428571 364.73214285714295 140.62499999999997 Q 363.3928571428572 142.85714285714283 362.50000000000006 145.98214285714283 Q 361.6071428571429 149.10714285714283 361.16071428571433 152.23214285714283 Q 360.7142857142858 155.35714285714283 360.2678571428572 157.5892857142857 Q 359.82142857142867 159.82142857142856 359.82142857142867 162.05357142857142 Q 359.82142857142867 164.28571428571428 359.82142857142867 166.07142857142856 Q 359.82142857142867 167.85714285714283 360.7142857142858 168.30357142857142 Q 361.6071428571429 168.75 362.9464285714286 170.08928571428572 Q 364.28571428571433 171.42857142857144 365.62500000000006 172.32142857142858 Q 366.9642857142858 173.21428571428572 367.85714285714295 174.55357142857142 Q 368.7500000000001 175.8928571428571 370.0892857142858 177.67857142857142 Q 371.42857142857144 179.46428571428572 372.3214285714286 180.35714285714286 Q 373.2142857142858 181.25 374.10714285714295 182.14285714285714 Q 375.0000000000001 183.03571428571428 375.8928571428572 183.48214285714286 L 376.7867142857143 183.92957142857145" stroke-linecap="round" />
</g>
<g transform="matrix(1 0 0 1 386.16 244.14)" id="xt5xVNBAxp1MKsXr4guS5"  >
<path style="stroke: rgb(0,0,0); stroke-width: 1; stroke-dasharray: none; stroke-linecap: round; stroke-dashoffset: 0; stroke-linejoin: round; stroke-miterlimit: 10; fill: none; fill-rule: nonzero; opacity: 1;" vector-effect="non-scaling-stroke"  transform=" translate(-386.16, -244.14)" d="M 382.1428571428572 234.82242857142856 Q 382.1428571428572 234.82142857142856 382.1428571428572 234.375 Q 382.1428571428572 233.92857142857144 382.1428571428572 233.48214285714286 Q 382.1428571428572 233.03571428571428 382.1428571428572 232.14285714285714 Q 382.1428571428572 231.25 382.5892857142858 230.35714285714286 Q 383.03571428571433 229.46428571428572 383.9285714285715 229.01785714285714 Q 384.82142857142867 228.57142857142856 385.2678571428572 228.57142857142856 Q 385.7142857142858 228.57142857142856 387.50000000000006 228.57142857142856 Q 389.28571428571433 228.57142857142856 391.0714285714286 229.4642857142857 Q 392.8571428571429 230.35714285714283 394.64285714285717 232.5892857142857 Q 396.42857142857144 234.82142857142856 397.76785714285717 236.60714285714283 Q 399.1071428571429 238.3928571428571 400.00000000000006 240.62499999999997 Q 400.8928571428572 242.85714285714283 401.3392857142858 245.0892857142857 Q 401.78571428571433 247.32142857142856 402.2321428571429 250.44642857142856 Q 402.67857142857144 253.57142857142856 402.67857142857144 255.35714285714283 Q 402.67857142857144 257.1428571428571 402.2321428571429 258.0357142857142 Q 401.78571428571433 258.9285714285714 396.87500000000006 259.375 Q 391.9642857142858 259.82142857142856 388.8392857142858 259.375 Q 385.7142857142858 258.9285714285714 383.48214285714295 258.48214285714283 Q 381.2500000000001 258.0357142857143 379.0178571428572 257.1428571428571 Q 376.78571428571433 256.25 374.5535714285715 255.35714285714286 Q 372.32142857142867 254.46428571428572 371.87500000000006 254.01785714285714 Q 371.42857142857144 253.57142857142856 370.53571428571433 252.67857142857142 Q 369.6428571428572 251.78571428571428 369.6428571428572 250.89285714285714 Q 369.6428571428572 250 369.6428571428572 248.66071428571428 Q 369.6428571428572 247.32142857142856 369.6428571428572 245.98214285714283 Q 369.6428571428572 244.6428571428571 370.53571428571433 242.85714285714283 Q 371.42857142857144 241.07142857142856 373.2142857142858 239.73214285714283 Q 375.0000000000001 238.3928571428571 376.7857142857144 237.49999999999997 Q 378.57142857142867 236.60714285714283 381.69642857142867 236.16071428571428 Q 384.82142857142867 235.71428571428572 387.94642857142867 235.26785714285714 Q 391.07142857142867 234.82142857142856 393.75000000000006 234.82142857142856 Q 396.42857142857144 234.82142857142856 399.55357142857144 234.82142857142856 L 402.6795714285714 234.82142857142856" stroke-linecap="round" />
</g>
</svg>